<svg width="20" height="20" viewBox="0 0 20 20" fill="none" xmlns="http://www.w3.org/2000/svg">
<g id="alarm">
<mask id="mask0_1931_5748" style="mask-type:alpha" maskUnits="userSpaceOnUse" x="0" y="0" width="20" height="20">
<rect id="Bounding box" width="20" height="20" fill="#D9D9D9"/>
</mask>
<g mask="url(#mask0_1931_5748)">
<path id="alarm_2" d="M10 18.333C8.95833 18.333 7.98264 18.1351 7.07292 17.7393C6.16319 17.3434 5.37153 16.8087 4.69792 16.1351C4.02431 15.4615 3.48958 14.6698 3.09375 13.7601C2.69792 12.8504 2.5 11.8747 2.5 10.833C2.5 9.79134 2.69792 8.81565 3.09375 7.90592C3.48958 6.9962 4.02431 6.20454 4.69792 5.53092C5.37153 4.85731 6.16319 4.32259 7.07292 3.92676C7.98264 3.53092 8.95833 3.33301 10 3.33301C11.0417 3.33301 12.0174 3.53092 12.9271 3.92676C13.8368 4.32259 14.6285 4.85731 15.3021 5.53092C15.9757 6.20454 16.5104 6.9962 16.9063 7.90592C17.3021 8.81565 17.5 9.79134 17.5 10.833C17.5 11.8747 17.3021 12.8504 16.9063 13.7601C16.5104 14.6698 15.9757 15.4615 15.3021 16.1351C14.6285 16.8087 13.8368 17.3434 12.9271 17.7393C12.0174 18.1351 11.0417 18.333 10 18.333ZM12.3333 14.333L13.5 13.1663L10.8333 10.4997V6.66634H9.16667V11.1663L12.3333 14.333ZM4.66667 1.95801L5.83333 3.12467L2.29167 6.66634L1.125 5.49967L4.66667 1.95801ZM15.3333 1.95801L18.875 5.49967L17.7083 6.66634L14.1667 3.12467L15.3333 1.95801Z" fill="#656565"/>
</g>
</g>
</svg>
