<svg width="12" height="15" viewBox="0 0 12 15" fill="none" xmlns="http://www.w3.org/2000/svg">
<path d="M1.33333 14.1667C0.966667 14.1667 0.652778 14.0362 0.391667 13.775C0.130556 13.5139 0 13.2 0 12.8334V3.50004C0 3.13337 0.130556 2.81949 0.391667 2.55837C0.652778 2.29726 0.966667 2.16671 1.33333 2.16671H2V0.833374H3.33333V2.16671H8.66667V0.833374H10V2.16671H10.6667C11.0333 2.16671 11.3472 2.29726 11.6083 2.55837C11.8694 2.81949 12 3.13337 12 3.50004V12.8334C12 13.2 11.8694 13.5139 11.6083 13.775C11.3472 14.0362 11.0333 14.1667 10.6667 14.1667H1.33333ZM1.33333 12.8334H10.6667V6.16671H1.33333V12.8334ZM1.33333 4.83337H10.6667V3.50004H1.33333V4.83337ZM6 8.83337C5.81111 8.83337 5.65278 8.76948 5.525 8.64171C5.39722 8.51393 5.33333 8.3556 5.33333 8.16671C5.33333 7.97782 5.39722 7.81949 5.525 7.69171C5.65278 7.56393 5.81111 7.50004 6 7.50004C6.18889 7.50004 6.34722 7.56393 6.475 7.69171C6.60278 7.81949 6.66667 7.97782 6.66667 8.16671C6.66667 8.3556 6.60278 8.51393 6.475 8.64171C6.34722 8.76948 6.18889 8.83337 6 8.83337ZM3.33333 8.83337C3.14444 8.83337 2.98611 8.76948 2.85833 8.64171C2.73056 8.51393 2.66667 8.3556 2.66667 8.16671C2.66667 7.97782 2.73056 7.81949 2.85833 7.69171C2.98611 7.56393 3.14444 7.50004 3.33333 7.50004C3.52222 7.50004 3.68056 7.56393 3.80833 7.69171C3.93611 7.81949 4 7.97782 4 8.16671C4 8.3556 3.93611 8.51393 3.80833 8.64171C3.68056 8.76948 3.52222 8.83337 3.33333 8.83337ZM8.66667 8.83337C8.47778 8.83337 8.31944 8.76948 8.19167 8.64171C8.06389 8.51393 8 8.3556 8 8.16671C8 7.97782 8.06389 7.81949 8.19167 7.69171C8.31944 7.56393 8.47778 7.50004 8.66667 7.50004C8.85556 7.50004 9.01389 7.56393 9.14167 7.69171C9.26945 7.81949 9.33333 7.97782 9.33333 8.16671C9.33333 8.3556 9.26945 8.51393 9.14167 8.64171C9.01389 8.76948 8.85556 8.83337 8.66667 8.83337ZM6 11.5C5.81111 11.5 5.65278 11.4362 5.525 11.3084C5.39722 11.1806 5.33333 11.0223 5.33333 10.8334C5.33333 10.6445 5.39722 10.4862 5.525 10.3584C5.65278 10.2306 5.81111 10.1667 6 10.1667C6.18889 10.1667 6.34722 10.2306 6.475 10.3584C6.60278 10.4862 6.66667 10.6445 6.66667 10.8334C6.66667 11.0223 6.60278 11.1806 6.475 11.3084C6.34722 11.4362 6.18889 11.5 6 11.5ZM3.33333 11.5C3.14444 11.5 2.98611 11.4362 2.85833 11.3084C2.73056 11.1806 2.66667 11.0223 2.66667 10.8334C2.66667 10.6445 2.73056 10.4862 2.85833 10.3584C2.98611 10.2306 3.14444 10.1667 3.33333 10.1667C3.52222 10.1667 3.68056 10.2306 3.80833 10.3584C3.93611 10.4862 4 10.6445 4 10.8334C4 11.0223 3.93611 11.1806 3.80833 11.3084C3.68056 11.4362 3.52222 11.5 3.33333 11.5ZM8.66667 11.5C8.47778 11.5 8.31944 11.4362 8.19167 11.3084C8.06389 11.1806 8 11.0223 8 10.8334C8 10.6445 8.06389 10.4862 8.19167 10.3584C8.31944 10.2306 8.47778 10.1667 8.66667 10.1667C8.85556 10.1667 9.01389 10.2306 9.14167 10.3584C9.26945 10.4862 9.33333 10.6445 9.33333 10.8334C9.33333 11.0223 9.26945 11.1806 9.14167 11.3084C9.01389 11.4362 8.85556 11.5 8.66667 11.5Z" fill="#006A4E"/>
</svg>
