<svg width="20" height="20" viewBox="0 0 20 20" fill="none" xmlns="http://www.w3.org/2000/svg">
<g id="dictionary">
<mask id="mask0_1931_5743" style="mask-type:alpha" maskUnits="userSpaceOnUse" x="0" y="0" width="20" height="20">
<rect id="Bounding box" width="20" height="20" fill="#D9D9D9"/>
</mask>
<g mask="url(#mask0_1931_5743)">
<path id="dictionary_2" d="M3.33337 11.8538H4.27087L4.75004 10.4788H6.91671L7.41671 11.8538H8.33337L6.31254 6.47884H5.35421L3.33337 11.8538ZM5.02087 9.70801L5.81254 7.47884H5.85421L6.64587 9.70801H5.02087ZM11.6667 8.24967V6.83301C12.125 6.63856 12.5938 6.49273 13.073 6.39551C13.5521 6.29829 14.0556 6.24967 14.5834 6.24967C14.9445 6.24967 15.2987 6.27745 15.6459 6.33301C15.9931 6.38856 16.3334 6.45801 16.6667 6.54134V7.87467C16.3334 7.74967 15.9966 7.65592 15.6563 7.59342C15.316 7.53092 14.9584 7.49967 14.5834 7.49967C14.0556 7.49967 13.5487 7.56565 13.0625 7.69759C12.5764 7.82954 12.1112 8.01356 11.6667 8.24967ZM11.6667 12.833V11.4163C12.125 11.2219 12.5938 11.0761 13.073 10.9788C13.5521 10.8816 14.0556 10.833 14.5834 10.833C14.9445 10.833 15.2987 10.8608 15.6459 10.9163C15.9931 10.9719 16.3334 11.0413 16.6667 11.1247V12.458C16.3334 12.333 15.9966 12.2393 15.6563 12.1768C15.316 12.1143 14.9584 12.083 14.5834 12.083C14.0556 12.083 13.5487 12.1455 13.0625 12.2705C12.5764 12.3955 12.1112 12.583 11.6667 12.833ZM11.6667 10.5413V9.12467C12.125 8.93023 12.5938 8.7844 13.073 8.68717C13.5521 8.58995 14.0556 8.54134 14.5834 8.54134C14.9445 8.54134 15.2987 8.56912 15.6459 8.62467C15.9931 8.68023 16.3334 8.74967 16.6667 8.83301V10.1663C16.3334 10.0413 15.9966 9.94759 15.6563 9.88509C15.316 9.82259 14.9584 9.79134 14.5834 9.79134C14.0556 9.79134 13.5487 9.85731 13.0625 9.98926C12.5764 10.1212 12.1112 10.3052 11.6667 10.5413ZM10.8334 14.208C11.4445 13.9163 12.0591 13.6976 12.6771 13.5518C13.2952 13.4059 13.9306 13.333 14.5834 13.333C15.0834 13.333 15.573 13.3747 16.0521 13.458C16.5313 13.5413 17.0139 13.6663 17.5 13.833V5.58301C17.0417 5.38856 16.566 5.24273 16.073 5.14551C15.5799 5.04829 15.0834 4.99967 14.5834 4.99967C13.9306 4.99967 13.2848 5.08301 12.6459 5.24967C12.007 5.41634 11.4028 5.66634 10.8334 5.99967V14.208ZM10 16.6663C9.33337 16.1386 8.61115 15.7288 7.83337 15.4372C7.0556 15.1455 6.25004 14.9997 5.41671 14.9997C4.83337 14.9997 4.26046 15.0761 3.69796 15.2288C3.13546 15.3816 2.59726 15.5969 2.08337 15.8747C1.79171 16.0275 1.51046 16.0205 1.23962 15.8538C0.968791 15.6872 0.833374 15.4441 0.833374 15.1247V5.08301C0.833374 4.93023 0.871568 4.7844 0.947957 4.64551C1.02435 4.50662 1.13893 4.40245 1.29171 4.33301C1.9306 3.99967 2.59726 3.74967 3.29171 3.58301C3.98615 3.41634 4.69449 3.33301 5.41671 3.33301C6.22226 3.33301 7.01046 3.43717 7.78129 3.64551C8.55212 3.85384 9.29171 4.16634 10 4.58301C10.7084 4.16634 11.448 3.85384 12.2188 3.64551C12.9896 3.43717 13.7778 3.33301 14.5834 3.33301C15.3056 3.33301 16.0139 3.41634 16.7084 3.58301C17.4028 3.74967 18.0695 3.99967 18.7084 4.33301C18.8612 4.40245 18.9757 4.50662 19.0521 4.64551C19.1285 4.7844 19.1667 4.93023 19.1667 5.08301V15.1247C19.1667 15.4441 19.0313 15.6872 18.7605 15.8538C18.4896 16.0205 18.2084 16.0275 17.9167 15.8747C17.4028 15.5969 16.8646 15.3816 16.3021 15.2288C15.7396 15.0761 15.1667 14.9997 14.5834 14.9997C13.75 14.9997 12.9445 15.1455 12.1667 15.4372C11.3889 15.7288 10.6667 16.1386 10 16.6663Z" fill="#656565"/>
</g>
</g>
</svg>
