<svg width="20" height="20" viewBox="0 0 20 20" fill="none" xmlns="http://www.w3.org/2000/svg">
<g id="stylus">
<mask id="mask0_200_946" style="mask-type:alpha" maskUnits="userSpaceOnUse" x="0" y="0" width="20" height="20">
<rect id="Bounding box" width="20" height="20" fill="#D9D9D9"/>
</mask>
<g mask="url(#mask0_200_946)">
<path id="stylus_2" d="M3.49969 17.4791C3.20802 17.5485 2.95455 17.4756 2.73927 17.2603C2.524 17.0451 2.45108 16.7916 2.52052 16.4999L3.24969 12.9583L7.04136 16.7499L3.49969 17.4791ZM8.39552 15.7291L4.27052 11.6041L12.8747 2.99992C13.1941 2.68047 13.59 2.52075 14.0622 2.52075C14.5344 2.52075 14.9302 2.68047 15.2497 2.99992L16.9997 4.74992C17.3191 5.06936 17.4789 5.4652 17.4789 5.93742C17.4789 6.40964 17.3191 6.80547 16.9997 7.12492L8.39552 15.7291Z" fill="#006A4E"/>
</g>
</g>
</svg>
