<svg width="20" height="20" fill="none" xmlns="http://www.w3.org/2000/svg">
    <mask id="a" style="mask-type:alpha" maskUnits="userSpaceOnUse" x="0" y="0" width="20" height="20">
        <path fill="#D9D9D9" d="M0 0h20v20H0z"/>
    </mask>
    <g mask="url(#a)">
        <path d="M10 14.167c.458 0 .85-.163 1.177-.49.326-.326.49-.718.49-1.177 0-.458-.164-.85-.49-1.177a1.605 1.605 0 0 0-1.177-.49c-.459 0-.851.164-1.177.49-.327.326-.49.719-.49 1.177 0 .459.163.85.49 1.177.326.327.718.49 1.177.49Zm-5 4.167c-.459 0-.851-.164-1.177-.49a1.605 1.605 0 0 1-.49-1.177V8.333c0-.458.163-.85.49-1.177.326-.326.718-.49 1.177-.49h5.833V5c0-1.153.406-2.135 1.219-2.948C12.864 1.24 13.847.833 15 .833c1.152 0 2.135.407 2.948 1.22.812.812 1.218 1.794 1.218 2.947H17.5c0-.694-.243-1.285-.73-1.77A2.41 2.41 0 0 0 15 2.5c-.695 0-1.285.243-1.771.73a2.41 2.41 0 0 0-.73 1.77v1.667H15c.459 0 .851.163 1.178.49.326.326.49.718.49 1.177v8.333c0 .458-.164.85-.49 1.177-.327.326-.719.49-1.177.49H5Z" fill="#006A4E"/>
    </g>
</svg>
