<svg width="18" height="14" viewBox="0 0 18 14" fill="none" xmlns="http://www.w3.org/2000/svg">
<path d="M2.33366 13.6666C1.87533 13.6666 1.48296 13.5035 1.15658 13.1771C0.830187 12.8507 0.666992 12.4583 0.666992 12V1.99998C0.666992 1.54165 0.830187 1.14929 1.15658 0.822896C1.48296 0.496507 1.87533 0.333313 2.33366 0.333313H7.33366L9.00033 1.99998H15.667C16.1253 1.99998 16.5177 2.16317 16.8441 2.48956C17.1705 2.81595 17.3337 3.20831 17.3337 3.66665V6.39581C16.8475 6.04859 16.3198 5.7847 15.7503 5.60415C15.1809 5.42359 14.5906 5.33331 13.9795 5.33331C12.3406 5.33331 10.9621 5.90623 9.84408 7.05206C8.72602 8.1979 8.16699 9.56248 8.16699 11.1458C8.16699 11.5903 8.2156 12.0208 8.31283 12.4375C8.41005 12.8541 8.55588 13.2639 8.75033 13.6666H2.33366ZM10.667 13.6666V13.2083C10.667 12.5833 10.9725 12.0868 11.5837 11.7187C12.1948 11.3507 13.0003 11.1666 14.0003 11.1666C15.0003 11.1666 15.8059 11.3507 16.417 11.7187C17.0281 12.0868 17.3337 12.5833 17.3337 13.2083V13.6666H10.667ZM14.0003 10.3333C13.542 10.3333 13.1496 10.1701 12.8232 9.84373C12.4969 9.51734 12.3337 9.12498 12.3337 8.66665C12.3337 8.20831 12.4969 7.81595 12.8232 7.48956C13.1496 7.16317 13.542 6.99998 14.0003 6.99998C14.4587 6.99998 14.851 7.16317 15.1774 7.48956C15.5038 7.81595 15.667 8.20831 15.667 8.66665C15.667 9.12498 15.5038 9.51734 15.1774 9.84373C14.851 10.1701 14.4587 10.3333 14.0003 10.3333Z" fill="#006A4E"/>
</svg>
