<svg xmlns="http://www.w3.org/2000/svg" width="19" height="20" viewBox="0 0 19 20" fill="none">
    <path d="M2.5 20C1.95 20 1.47917 19.8042 1.0875 19.4125C0.695833 19.0208 0.5 18.55 0.5 18V4C0.5 3.45 0.695833 2.97917 1.0875 2.5875C1.47917 2.19583 1.95 2 2.5 2H6.7C6.91667 1.4 7.27917 0.916667 7.7875 0.55C8.29583 0.183333 8.86667 0 9.5 0C10.1333 0 10.7042 0.183333 11.2125 0.55C11.7208 0.916667 12.0833 1.4 12.3 2H16.5C17.05 2 17.5208 2.19583 17.9125 2.5875C18.3042 2.97917 18.5 3.45 18.5 4V18C18.5 18.55 18.3042 19.0208 17.9125 19.4125C17.5208 19.8042 17.05 20 16.5 20H2.5ZM4.5 16H11.5V14H4.5V16ZM4.5 12H14.5V10H4.5V12ZM4.5 8H14.5V6H4.5V8ZM9.5 3.25C9.71667 3.25 9.89583 3.17917 10.0375 3.0375C10.1792 2.89583 10.25 2.71667 10.25 2.5C10.25 2.28333 10.1792 2.10417 10.0375 1.9625C9.89583 1.82083 9.71667 1.75 9.5 1.75C9.28333 1.75 9.10417 1.82083 8.9625 1.9625C8.82083 2.10417 8.75 2.28333 8.75 2.5C8.75 2.71667 8.82083 2.89583 8.9625 3.0375C9.10417 3.17917 9.28333 3.25 9.5 3.25Z" fill="#076DAB"/>
</svg>