<?xml version="1.0" standalone="no"?>
<!DOCTYPE svg PUBLIC "-//W3C//DTD SVG 20010904//EN"
 "http://www.w3.org/TR/2001/REC-SVG-20010904/DTD/svg10.dtd">
<svg version="1.0" xmlns="http://www.w3.org/2000/svg"
 width="2000.000000pt" height="2000.000000pt" viewBox="0 0 2000.000000 2000.000000"
 preserveAspectRatio="xMidYMid meet">

<g transform="translate(0.000000,2000.000000) scale(0.100000,-0.100000)"
fill="#000000" stroke="none">
<path d="M6075 17314 c-642 -42 -1263 -257 -1779 -617 -192 -134 -461 -362
-551 -468 -190 -222 -176 -209 -220 -209 -118 0 -271 -79 -354 -183 -82 -103
-123 -249 -102 -365 6 -35 20 -84 30 -110 l18 -47 -54 -125 c-283 -652 -360
-1399 -217 -2104 91 -448 258 -853 509 -1236 255 -390 606 -745 982 -995 40
-26 73 -51 73 -54 0 -12 -131 -93 -184 -115 -41 -16 -73 -20 -166 -20 -105 0
-131 4 -293 47 -196 52 -274 59 -368 31 -72 -21 -133 -57 -198 -118 -146 -138
-213 -311 -213 -551 1 -188 44 -359 137 -544 l45 -91 -60 0 c-237 0 -450 -222
-450 -468 0 -79 424 -2480 456 -2579 30 -94 93 -210 153 -282 l42 -50 -39 -20
c-22 -11 -54 -32 -71 -47 -54 -45 -61 -77 -61 -269 0 -159 2 -174 21 -199 11
-14 28 -30 38 -36 13 -7 1314 -180 1354 -180 4 0 7 72 7 160 0 88 -4 160 -9
160 -9 0 -1137 145 -1237 160 -70 9 -99 22 -114 50 -15 27 -12 82 5 106 20 29
133 95 141 83 3 -6 40 -35 81 -66 139 -102 316 -168 478 -178 44 -3 209 -7
368 -10 277 -5 287 -5 287 14 0 18 -15 19 -342 24 -270 4 -359 9 -418 22 -334
75 -586 311 -665 623 -15 61 -408 2280 -429 2422 -16 110 -5 192 35 278 73
152 237 252 413 252 38 0 43 -3 71 -48 40 -64 176 -198 254 -251 35 -24 105
-63 155 -86 85 -41 250 -95 286 -95 13 0 22 -23 40 -92 23 -98 91 -294 184
-540 30 -81 58 -164 62 -185 16 -103 -98 -486 -209 -703 -39 -74 -89 -173
-113 -219 -77 -150 -124 -407 -127 -686 -3 -242 -20 -214 200 -346 222 -133
427 -234 578 -285 61 -20 111 -37 112 -38 1 0 4 -13 8 -28 6 -24 4 -27 -27
-30 l-33 -3 0 -1200 c0 -660 -4 -1206 -8 -1212 -6 -10 -93 -13 -377 -13 -339
0 -373 -2 -432 -20 -182 -56 -315 -213 -343 -402 l-7 -48 768 -2 769 -3 3 -35
c6 -87 -8 -80 182 -80 l170 0 0 60 0 60 445 0 445 0 0 28 c-1 131 -118 311
-248 380 -108 57 -141 62 -424 62 -250 0 -258 1 -258 20 0 11 -16 244 -35 517
-19 274 -46 658 -60 853 -13 195 -27 385 -31 423 -3 40 -2 67 3 67 6 0 148
-18 317 -40 169 -22 315 -40 325 -40 15 0 19 17 28 153 6 83 9 154 7 156 -4 4
-230 35 -561 77 l-142 17 -5 51 c-3 28 -7 76 -8 106 l-3 55 378 -4 377 -4 0
21 0 22 -380 0 -380 0 1 48 c0 26 8 89 17 140 l17 94 408 1 c224 1 407 -2 407
-6 0 -5 -5 -17 -11 -28 -44 -83 -139 -1334 -139 -1840 l0 -127 238 -7 c130 -3
244 -9 253 -11 10 -3 20 3 24 13 45 113 249 673 330 903 279 801 420 1284 432
1482 6 92 5 98 -22 143 -15 26 -43 65 -62 86 -35 39 -35 39 -10 39 30 0 88
-66 119 -137 17 -40 20 -59 14 -122 -12 -148 -76 -400 -207 -818 l-79 -252 36
-78 c137 -296 391 -891 537 -1253 24 -62 38 -85 50 -84 10 1 127 33 262 70
191 54 245 73 245 85 0 15 -36 172 -120 524 -195 822 -452 1689 -605 2047 -7
17 17 18 414 18 l420 0 423 -55 c233 -31 542 -71 688 -90 922 -121 1420 -185
1435 -185 21 0 25 87 -42 -869 l-47 -673 -51 5 c-27 3 -628 81 -1335 172 -707
92 -1311 169 -1342 172 l-57 6 42 -164 42 -163 1025 -133 c564 -72 1164 -150
1333 -172 170 -21 311 -42 314 -45 3 -3 -2 -113 -11 -243 -84 -1200 -106
-1511 -106 -1531 l0 -22 173 2 172 3 91 868 c51 478 94 870 95 871 2 2 189
-21 414 -51 367 -48 425 -53 550 -50 162 5 279 29 420 87 50 20 398 214 775
429 377 216 1374 786 2216 1268 1160 663 1535 882 1547 903 14 23 17 57 17
192 0 180 -12 230 -64 263 -29 19 3 14 -851 125 -341 44 -1212 156 -1935 249
-723 94 -1733 224 -2245 290 -511 66 -1281 166 -1710 221 -429 56 -841 109
-915 119 -133 17 -135 17 -133 41 1 14 6 38 12 53 10 25 15 27 43 22 18 -3
407 -52 863 -110 457 -57 882 -112 945 -120 63 -9 608 -78 1210 -155 1168
-148 1815 -231 2990 -381 1458 -186 1466 -187 1520 -178 74 12 152 52 197 103
21 23 81 76 135 118 84 67 100 85 130 145 l33 68 3 2271 2 2271 42 19 c63 28
134 104 171 181 l32 68 0 1580 0 1580 -31 65 c-39 83 -111 155 -194 194 l-65
31 -2215 0 -2215 0 -58 -23 c-76 -31 -167 -115 -200 -186 -44 -93 -47 -135
-47 -758 0 -463 -3 -588 -12 -588 -16 -1 -1082 133 -1086 136 -2 1 16 26 40
56 24 29 57 82 73 118 26 56 30 77 30 151 0 78 -3 90 -30 134 -63 101 -183
159 -335 160 -96 0 -117 -8 -255 -94 -94 -59 -225 -104 -370 -126 -55 -9 -119
-25 -142 -36 -55 -27 -143 -114 -168 -167 -11 -23 -27 -42 -35 -42 -8 0 -129
14 -268 32 l-254 32 -54 115 c-72 152 -160 308 -252 445 -40 61 -74 114 -75
117 -1 4 57 69 129 146 184 195 204 218 204 237 0 31 -109 234 -129 241 -10 3
-160 -12 -332 -35 -172 -22 -326 -40 -342 -40 -20 0 -48 18 -100 62 -512 440
-1182 732 -1867 813 -132 16 -486 27 -605 19z m630 -59 c310 -41 572 -108 840
-215 169 -68 235 -100 235 -113 0 -7 -5 -41 -11 -76 -27 -171 -119 -261 -264
-261 -29 0 -93 12 -141 26 -125 36 -176 31 -225 -25 -60 -67 -79 -184 -59
-363 38 -351 143 -372 321 -64 44 76 69 96 104 82 8 -3 20 -17 27 -30 10 -24
3 -34 -145 -189 -152 -159 -158 -164 -212 -176 -94 -21 -155 -91 -155 -178 0
-34 -9 -47 -88 -128 -198 -203 -439 -461 -451 -482 -10 -20 -4 -36 43 -131 30
-59 62 -114 71 -122 13 -11 48 -9 228 13 117 15 219 27 227 27 8 0 -16 -17
-55 -38 -145 -77 -225 -150 -247 -225 -10 -33 -8 -62 12 -178 l23 -139 -18
-144 c-20 -161 -14 -244 26 -337 27 -61 100 -130 164 -155 54 -21 216 -27 308
-11 46 8 47 8 47 -17 0 -14 4 -28 10 -31 9 -5 179 15 257 31 26 5 37 1 70 -29
l38 -35 7 -229 c4 -125 11 -254 17 -286 10 -59 14 -68 69 -167 63 -113 59
-257 -9 -378 -103 -182 -119 -236 -126 -423 -12 -317 75 -475 210 -384 l37 26
-2 -503 -3 -502 -85 -43 c-451 -227 -990 -352 -1515 -353 -145 0 -393 15 -403
25 -2 1 -6 34 -9 73 l-6 71 57 61 c67 74 91 116 105 194 14 78 0 166 -44 274
-60 149 -135 253 -212 299 l-48 28 -247 0 c-135 0 -249 3 -253 7 -3 3 14 32
38 65 126 166 236 367 266 485 33 134 68 175 178 207 143 42 223 92 223 137 0
13 -12 57 -26 97 -52 140 -66 208 -54 250 13 43 64 85 150 124 94 42 130 89
130 168 0 58 -26 110 -83 162 -57 53 -105 77 -204 104 -43 12 -110 34 -150 51
l-72 29 -6 47 c-28 209 -155 356 -352 407 -31 8 -83 15 -114 15 l-57 0 -56 61
c-70 78 -106 102 -187 127 -135 42 -256 38 -365 -12 -29 -13 -58 -35 -65 -48
-7 -12 -16 -70 -20 -128 -9 -121 -46 -274 -83 -348 -14 -28 -46 -74 -70 -101
-74 -83 -81 -114 -81 -356 1 -191 3 -214 22 -255 40 -88 110 -135 315 -214 53
-20 111 -47 130 -59 61 -41 67 -67 89 -384 21 -327 44 -564 65 -672 l14 -74
-48 -56 c-26 -31 -74 -90 -107 -131 -68 -85 -182 -200 -199 -200 -18 1 -239
159 -364 262 -212 175 -468 448 -624 669 -644 908 -818 2062 -472 3122 42 127
141 377 149 377 2 0 15 -26 30 -57 34 -76 132 -251 205 -368 39 -62 65 -119
79 -169 61 -222 264 -565 480 -813 87 -99 149 -143 203 -143 80 0 112 70 113
245 0 158 -23 241 -151 525 -31 70 -38 99 -42 167 -4 81 -4 83 26 113 17 16
40 30 52 30 26 0 72 -23 90 -45 31 -37 133 -78 205 -83 65 -4 73 -2 102 22 39
33 50 64 63 186 6 52 13 103 16 112 3 9 37 38 77 64 119 78 145 103 203 190
36 54 74 99 107 123 62 47 210 122 318 161 107 40 175 76 184 97 4 10 11 68
15 129 6 104 10 117 60 230 29 65 55 137 58 160 4 35 0 46 -28 78 -92 105
-208 98 -410 -24 -138 -83 -196 -102 -234 -77 -114 75 -41 288 129 374 39 20
73 27 165 34 199 16 272 40 317 108 54 80 3 174 -116 216 -73 25 -103 19 -294
-61 -310 -131 -395 -154 -568 -154 -99 0 -229 13 -269 26 -18 6 139 110 309
204 364 199 806 343 1211 394 l45 6 -25 -18 c-47 -32 -100 -84 -121 -118 -11
-19 -35 -42 -52 -50 -50 -25 -97 -75 -97 -102 0 -15 14 -37 35 -58 23 -21 35
-42 35 -59 0 -67 80 -258 185 -445 23 -41 75 -163 114 -270 117 -317 178 -425
226 -406 24 9 50 59 131 251 103 242 139 312 189 366 63 67 103 190 129 389
19 152 -6 227 -96 286 -24 15 -60 54 -82 87 -39 59 -115 128 -171 154 -27 12
-12 13 135 9 91 -3 219 -12 285 -21z m-517 -206 c110 -54 138 -216 53 -313
-68 -77 -223 -77 -293 1 -54 59 -64 176 -22 239 15 21 34 45 43 52 57 46 148
55 219 21z m-510 -56 c-6 -21 -12 -44 -14 -52 -3 -11 -7 -11 -19 -1 -21 17
-19 40 7 67 31 33 38 29 26 -14z m901 -56 c41 -66 37 -163 -15 -370 -28 -114
-50 -160 -94 -202 -39 -36 -89 -134 -182 -354 -73 -174 -107 -241 -119 -241
-12 0 -54 76 -89 160 -41 97 -93 236 -86 229 3 -3 24 -33 46 -67 22 -34 47
-62 55 -62 9 0 41 39 72 88 168 259 285 477 334 623 28 84 31 102 26 172 -6
74 -5 77 12 67 11 -5 28 -25 40 -43z m1338 -71 c197 -106 461 -286 598 -409
36 -33 46 -47 35 -50 -8 -3 -202 -28 -430 -57 -509 -63 -476 -57 -515 -92
l-33 -28 -30 30 c-32 32 -56 37 -94 19 -24 -10 -33 -22 -111 -149 -126 -203
-176 -193 -214 43 -34 219 -4 379 79 420 36 18 38 18 135 -9 257 -72 401 -5
458 213 8 31 15 72 15 90 0 18 1 33 3 33 2 0 49 -24 104 -54z m-2450 -67 c54
-26 83 -62 83 -104 0 -80 -84 -120 -278 -134 -143 -11 -175 -20 -249 -68 -124
-82 -194 -244 -145 -339 59 -116 133 -117 317 -3 129 80 193 103 264 96 39 -4
64 -14 90 -35 53 -43 52 -76 -4 -202 -58 -128 -75 -195 -75 -290 0 -41 -4 -80
-8 -86 -10 -16 -59 -40 -162 -79 -133 -51 -270 -121 -334 -172 -37 -28 -76
-73 -110 -126 -54 -83 -90 -116 -208 -190 -31 -20 -62 -46 -69 -58 -6 -13 -18
-75 -25 -138 -15 -124 -30 -158 -77 -175 -53 -19 -155 19 -266 99 -40 29 -109
34 -146 9 -13 -8 -30 -33 -39 -55 -33 -81 -14 -181 65 -351 27 -59 64 -149 81
-200 29 -85 31 -104 32 -228 1 -194 -22 -245 -98 -220 -67 22 -251 234 -396
457 -67 102 -190 338 -205 393 -7 23 -5 23 21 -8 17 -19 34 -29 40 -25 34 23
260 393 355 582 87 174 129 298 129 383 0 163 -86 322 -221 409 -49 31 -51 34
-45 68 4 20 9 79 13 131 l6 95 66 64 c70 67 258 220 353 288 l57 40 73 -15
c115 -24 373 -21 468 6 66 18 282 101 455 176 73 31 134 33 192 5z m3911 -464
c18 -36 32 -70 32 -76 0 -14 -40 -60 -164 -189 -50 -52 -246 -259 -436 -460
-189 -201 -389 -411 -445 -467 l-100 -102 -473 -59 c-260 -33 -476 -63 -479
-66 -3 -3 6 -96 19 -207 20 -170 22 -202 10 -207 -8 -2 -18 1 -22 8 -4 7 -15
10 -24 7 -38 -15 -39 -41 -13 -448 14 -217 23 -396 21 -398 -22 -23 -249 -27
-320 -6 -57 17 -127 72 -151 119 -41 80 -53 202 -33 336 15 94 13 216 -5 299
-8 40 -15 94 -15 120 0 85 69 154 246 248 49 25 98 55 108 66 19 20 20 20 34
1 8 -10 43 -73 78 -139 38 -70 63 -107 60 -90 -3 17 -10 75 -16 130 -6 55 -13
114 -16 131 l-5 30 -297 -38 c-163 -20 -312 -37 -329 -38 -31 0 -35 5 -69 71
-19 39 -33 73 -30 76 3 4 670 92 704 93 1 0 2 6 2 13 0 7 42 58 93 113 50 55
164 178 252 274 266 291 303 327 311 307 5 -13 -18 -44 -89 -120 -391 -422
-525 -572 -512 -575 12 -3 764 88 852 103 35 6 48 18 193 170 115 121 735 777
875 926 55 59 105 108 110 108 6 1 25 -28 43 -64z m7699 3 c80 -30 172 -121
201 -201 l22 -58 -2 -1567 -3 -1567 -28 -57 c-54 -110 -158 -186 -266 -195
-99 -7 -2371 -8 -2371 -1 0 4 12 37 26 73 l26 65 1139 0 c1132 0 1140 0 1180
21 30 15 46 32 60 64 19 42 20 66 17 404 -3 345 -4 361 -24 387 -11 15 -33 37
-48 48 -27 21 -36 21 -927 24 l-900 2 29 38 c17 21 38 54 48 75 l18 37 147 0
c162 0 195 7 209 45 11 29 -4 70 -28 80 -9 3 -232 6 -496 6 -432 -1 -481 -2
-498 -17 -27 -25 -23 -69 9 -94 25 -20 36 -21 220 -18 106 2 192 1 191 -3 -2
-3 -37 -37 -78 -76 l-75 -71 -117 -4 c-126 -3 -147 -11 -192 -72 -19 -25 -21
-46 -26 -220 l-5 -193 -75 -89 -75 -89 -5 282 c-6 310 -5 306 -74 357 -27 21
-35 21 -866 21 -831 0 -839 0 -866 -21 -15 -11 -37 -33 -48 -48 -20 -26 -21
-42 -24 -381 l-3 -353 -75 73 -74 73 2 1489 3 1488 33 67 c39 80 111 148 185
177 51 20 77 20 2249 20 l2197 1 58 -22z m-13322 -263 c-9 -85 -10 -87 -75
-68 -30 8 -57 17 -59 19 -2 2 27 38 65 80 78 87 82 85 69 -31z m5393 -310 c27
-49 73 -128 102 -175 46 -76 200 -371 200 -385 0 -3 -22 -3 -49 1 l-48 6 -7
-34 c-3 -19 -22 -66 -40 -105 l-34 -71 36 -6 c20 -3 181 -24 357 -46 176 -22
334 -42 350 -45 25 -4 36 -15 57 -59 15 -30 30 -71 34 -91 l7 -38 -39 6 c-21
3 -239 32 -483 63 -365 46 -445 54 -452 42 -13 -20 7 -24 201 -48 257 -31 710
-89 748 -95 l32 -6 0 -93 c0 -83 3 -97 25 -130 21 -31 22 -36 7 -36 -9 0 -226
27 -482 59 -256 33 -545 70 -642 82 -147 19 -179 20 -193 9 -8 -7 -14 -14 -12
-16 3 -3 106 -17 997 -130 239 -30 441 -57 448 -59 6 -2 12 -14 12 -26 0 -49
26 -106 70 -150 37 -39 53 -48 94 -54 l49 -7 -7 -59 c-8 -77 -28 -125 -74
-172 -53 -55 -77 -65 -225 -93 -335 -64 -638 -163 -805 -265 -225 -137 -415
-366 -585 -705 -59 -119 -151 -345 -189 -464 l-23 -75 -3 385 c-1 212 -1 690
0 1063 2 372 2 677 0 677 -2 0 -12 -5 -23 -10 -19 -10 -19 -34 -19 -1138 l0
-1128 -34 -150 c-19 -82 -36 -167 -38 -189 l-3 -40 37 2 38 2 2 -1217 3 -1217
24 -53 c28 -63 111 -143 167 -160 37 -11 643 -90 3604 -467 674 -86 1662 -212
2195 -280 1625 -207 1486 -191 1533 -177 54 16 110 66 133 117 18 38 19 132
19 2188 l0 2147 165 0 165 0 0 -2252 c0 -1606 -3 -2264 -11 -2293 -15 -56 -84
-120 -142 -132 -35 -8 -134 2 -503 49 -252 32 -688 87 -969 123 -280 36 -701
89 -935 119 -1084 139 -1415 181 -1815 232 -549 70 -2364 301 -3128 399 -324
41 -606 79 -627 85 -89 24 -171 118 -190 219 -7 35 -10 906 -10 2568 0 2007
-3 2514 -12 2511 -10 -4 -14 -524 -16 -2546 -2 -2534 -2 -2541 18 -2596 27
-71 88 -138 153 -171 42 -20 93 -31 248 -50 107 -14 212 -29 234 -34 25 -5
-110 -9 -366 -10 l-406 -1 -43 46 c-23 25 -54 71 -68 102 l-27 57 -3 2573 c-2
2560 -2 2572 -22 2572 -20 0 -20 -9 -20 -1233 l0 -1234 -22 -20 c-13 -11 -38
-28 -56 -37 -30 -16 -36 -16 -57 -2 -32 21 -63 109 -77 221 -21 165 16 366 88
486 76 126 88 164 89 279 0 111 -6 130 -84 270 -28 49 -41 173 -41 383 0 194
-6 222 -56 269 -16 15 -45 34 -65 42 l-35 15 -68 333 c-37 183 -70 344 -73
357 l-6 24 44 -29 c115 -77 252 -103 445 -84 490 48 1068 374 1304 736 74 114
94 172 95 279 l0 90 -123 233 c-99 189 -121 236 -111 248 6 8 13 13 14 12 2
-2 25 -43 53 -93z m-2027 -18 c-59 -58 -63 -60 -56 -32 3 17 16 41 28 53 22
24 78 53 87 45 2 -2 -24 -32 -59 -66z m-3466 -16 c113 -51 160 -199 98 -312
-31 -59 -96 -105 -158 -115 -146 -21 -277 99 -262 243 9 87 56 152 137 190 39
18 139 15 185 -6z m7273 -595 c67 -35 138 -141 163 -242 18 -74 42 -113 103
-174 31 -30 56 -60 56 -67 0 -8 -16 -23 -35 -34 l-35 -21 0 -78 c0 -135 -23
-211 -80 -267 -91 -89 -252 -60 -380 69 -41 42 -64 58 -71 51 -15 -15 47 -91
111 -136 29 -20 78 -45 107 -54 51 -16 53 -18 53 -52 0 -50 24 -134 49 -174
28 -46 109 -120 149 -136 18 -8 31 -19 29 -25 -6 -18 -146 -83 -232 -108 -106
-30 -313 -32 -420 -4 -80 21 -215 74 -215 85 0 4 25 18 55 30 63 26 125 82
157 143 21 40 23 57 26 250 3 200 3 206 -17 213 -11 3 -34 23 -51 43 -24 29
-30 46 -30 83 0 51 28 99 58 99 9 0 41 14 70 30 63 37 65 51 23 150 -23 53
-27 71 -17 79 6 5 50 22 96 37 97 30 130 54 130 96 0 36 26 99 47 116 22 16
68 15 101 -2z m820 -451 c285 -36 527 -67 540 -70 21 -5 22 -10 22 -90 0 -47
-3 -85 -6 -85 -6 0 -512 64 -874 110 -85 11 -165 23 -178 25 -23 6 -23 6 8 31
40 34 38 60 -7 106 -20 21 -33 38 -29 38 4 0 240 -29 524 -65z m32 -215 c267
-33 495 -63 508 -65 21 -5 22 -9 22 -135 0 -130 0 -130 -22 -125 -23 5 -813
106 -995 127 -50 6 -96 14 -102 17 -7 5 -6 21 4 54 8 26 17 82 21 123 l7 76
36 -5 c20 -3 254 -33 521 -67z m-4422 11 c9 -5 44 -158 93 -402 44 -217 82
-406 85 -420 6 -25 5 -26 -87 -37 -51 -6 -95 -10 -97 -8 -5 6 -51 724 -52 803
0 59 6 70 35 72 6 0 16 -3 23 -8z m4382 -302 c305 -38 560 -71 565 -73 7 -2 9
-167 7 -475 l-2 -472 -148 140 c-184 175 -368 332 -461 395 -113 76 -285 128
-501 151 -75 8 -88 14 -142 63 -54 49 -90 122 -96 197 l-4 61 37 2 c48 3 92
22 130 56 17 14 37 26 45 26 8 0 264 -32 570 -71z m3500 -207 c0 -56 -51 -132
-199 -295 l-62 -69 54 -57 c66 -69 87 -132 67 -209 -35 -142 -159 -244 -313
-259 l-67 -6 -21 -71 c-172 -590 -513 -1078 -921 -1321 -344 -205 -767 -253
-1223 -139 -143 36 -316 95 -322 110 -4 12 149 572 164 597 4 8 51 73 103 146
66 93 99 131 110 127 8 -3 60 -21 115 -40 55 -19 143 -42 195 -51 123 -19 354
-20 457 0 343 66 718 305 1046 670 61 68 146 181 222 296 128 193 254 357 321
420 22 20 88 75 148 123 116 92 126 94 126 28z m-10442 -127 c34 -8 79 -23
100 -34 37 -19 142 -122 142 -139 0 -5 -17 -14 -38 -20 -57 -17 -154 -83 -195
-134 -20 -24 -51 -75 -69 -114 -31 -64 -33 -76 -33 -174 0 -101 2 -109 45
-214 51 -126 168 -340 293 -537 92 -145 106 -162 124 -151 12 8 113 163 203
312 87 145 204 387 226 466 14 51 21 64 33 60 9 -3 66 -22 126 -42 182 -61
214 -75 265 -121 63 -57 88 -117 71 -173 -13 -44 -50 -76 -125 -109 -64 -28
-113 -65 -137 -105 -30 -49 -25 -115 21 -246 22 -63 40 -125 40 -137 0 -32
-45 -59 -164 -98 -59 -19 -117 -42 -130 -50 -40 -27 -76 -92 -97 -177 -31
-125 -128 -304 -261 -484 l-60 -82 -84 -4 c-75 -4 -94 -9 -174 -49 l-89 -45
-5 26 c-23 110 -48 369 -71 727 -10 152 -21 258 -31 285 -26 76 -65 103 -240
171 -123 48 -173 73 -212 111 -58 54 -64 76 -73 258 -11 237 2 302 80 392 50
58 81 118 110 211 25 79 51 237 51 307 0 39 5 50 30 72 17 14 50 30 73 36 23
6 47 13 52 15 25 9 146 3 203 -10z m6565 -65 c226 -44 300 -85 562 -313 125
-109 441 -412 617 -592 l147 -150 -127 -177 c-69 -98 -128 -176 -130 -174 -3
4 13 72 25 102 4 12 -99 14 -766 14 l-770 0 -20 -67 c-11 -38 -42 -149 -70
-248 -28 -99 -91 -325 -141 -502 -49 -177 -90 -325 -90 -327 0 -8 -123 -42
-231 -65 -500 -106 -820 25 -909 375 -13 48 -20 110 -20 166 l0 88 -27 0 c-16
0 -226 -25 -468 -55 -241 -30 -440 -53 -442 -52 -10 11 90 397 148 572 200
598 481 1002 814 1167 163 82 380 153 614 202 l123 26 28 -20 c15 -11 61 -33
102 -50 224 -89 439 -100 644 -31 84 28 202 89 224 116 16 20 38 19 163 -5z
m2943 -74 l34 -34 0 -305 0 -305 -102 -96 -103 -96 -762 0 -763 0 -32 29 -33
29 -3 358 c-3 382 -1 397 46 434 24 20 45 20 854 20 l830 0 34 -34z m451 -78
c-46 -62 -103 -144 -127 -183 l-45 -69 -3 39 c-2 22 -2 90 0 151 3 95 6 115
23 134 30 33 51 39 147 39 l88 1 -83 -112z m2249 78 l34 -34 0 -367 0 -367
-34 -34 -34 -34 -1136 0 c-625 0 -1136 3 -1136 6 0 14 44 150 51 160 5 6 34
14 65 17 171 18 311 159 322 325 5 79 -14 134 -67 189 l-40 41 57 66 57 66
913 0 914 0 34 -34z m-11785 -287 c143 -48 191 -222 93 -337 -86 -101 -251
-93 -329 17 -27 39 -30 50 -30 120 0 69 3 82 29 119 51 74 153 109 237 81z
m8823 -620 c-22 -17 -65 -49 -96 -70 l-56 -39 -591 -2 c-325 -2 -591 -2 -591
0 0 1 6 11 12 22 11 17 7 25 -37 70 l-49 50 723 0 724 0 -39 -31z m-263 -175
c-65 -40 -214 -102 -305 -129 -228 -66 -510 -56 -744 27 -122 42 -117 38 -82
86 l30 42 573 0 572 0 -44 -26z m2399 -641 c2 -3967 8 -3663 -67 -3720 -64
-49 67 -63 -2113 217 -168 21 -433 55 -590 75 -157 20 -404 51 -550 70 -146
19 -363 46 -483 61 -119 15 -221 31 -227 34 -6 4 -6 25 0 60 5 30 15 171 22
313 17 369 -2 994 -58 1857 l-16 255 56 200 c32 110 59 201 61 203 2 2 67 -17
144 -42 274 -90 483 -122 736 -113 241 9 402 49 610 152 118 59 243 144 350
239 181 160 388 447 511 712 l44 94 785 0 785 0 0 -667z m658 -1685 l-3 -2353
-23 -42 c-35 -66 -79 -110 -140 -140 -49 -24 -69 -28 -137 -27 -44 0 -417 44
-830 98 -412 53 -943 121 -1180 151 -236 30 -554 71 -705 90 -151 20 -453 58
-670 86 -217 27 -849 108 -1405 179 -555 71 -1390 177 -1855 236 -465 59 -846
108 -848 110 -2 1 4 19 12 39 20 48 20 85 0 113 -16 23 -16 23 17 18 19 -4
228 -31 464 -61 604 -76 1204 -153 1890 -240 1527 -195 3126 -399 3375 -431
151 -19 397 -50 545 -69 852 -109 984 -125 1020 -125 79 1 166 63 199 142 14
33 16 279 16 2301 0 1245 3 2267 7 2270 3 4 62 7 130 7 l123 0 -2 -2352z
m-7435 1485 c20 -284 170 -479 422 -548 95 -26 289 -31 425 -11 217 32 627
155 624 187 -1 8 -11 60 -23 117 -25 118 -27 302 -3 310 17 5 67 -107 81 -182
21 -112 57 -138 203 -144 116 -5 220 9 383 51 88 23 143 31 207 32 99 0 118
-9 100 -49 -32 -71 -350 -259 -566 -335 -127 -45 -220 -56 -282 -35 l-49 16
-25 -33 c-56 -74 -186 -213 -270 -289 -284 -254 -550 -387 -842 -422 -274 -33
-613 83 -831 282 -121 111 -233 292 -292 475 -48 147 -87 467 -67 540 l8 30
365 46 c200 26 378 47 395 48 l31 1 6 -87z m-744 -671 c82 -207 241 -406 409
-512 l71 -45 0 -70 c1 -112 -40 -1370 -45 -1374 -2 -3 -78 5 -168 16 -110 14
-176 28 -202 41 -46 24 -94 73 -120 122 -18 33 -19 82 -21 1060 l-2 1025 29
-105 c15 -58 37 -129 49 -158z m3431 -358 c34 -562 41 -720 47 -1169 5 -407
-3 -682 -24 -808 -6 -37 -7 -38 -42 -33 -20 3 -218 28 -441 56 -223 28 -551
71 -730 95 -179 25 -446 56 -595 70 -471 45 -819 89 -1094 138 l-66 12 -3 72
c-3 79 35 1334 41 1339 2 3 33 -9 68 -25 127 -58 241 -83 399 -88 217 -8 372
28 585 134 84 42 243 145 308 199 l29 24 702 0 703 0 43 155 c24 85 45 153 47
152 2 -2 12 -147 23 -323z m-6405 -93 c38 -12 86 -21 106 -21 l36 0 7 -152 c4
-84 8 -169 9 -188 2 -31 -1 -35 -35 -45 -32 -9 -42 -19 -68 -71 -40 -81 -117
-154 -162 -154 -45 0 -90 30 -135 90 -20 27 -41 50 -45 50 -15 0 -18 -19 -7
-43 10 -22 5 -36 -40 -114 -44 -76 -51 -96 -51 -141 0 -47 4 -57 41 -97 22
-24 39 -52 37 -61 -5 -25 -94 -67 -155 -72 -82 -7 -129 12 -246 99 -106 78
-129 109 -110 142 4 9 100 113 211 233 112 119 206 223 209 229 2 7 -10 33
-27 58 -26 35 -33 58 -37 108 -4 55 -2 68 17 92 27 34 56 34 90 2 32 -30 53
-25 70 15 34 81 109 92 285 41z m2233 -1634 c13 -32 39 -78 58 -102 19 -25 34
-47 34 -50 0 -3 -112 -5 -248 -5 l-249 0 -40 -29 c-45 -32 -52 -48 -154 -357
l-53 -162 -308 -176 c-169 -97 -312 -176 -316 -176 -5 0 -40 23 -78 51 -257
192 -507 458 -648 693 -93 153 -88 125 -97 541 -10 410 -15 443 -72 510 -19
22 -78 66 -130 99 l-95 59 15 32 c13 27 23 34 55 39 52 9 134 86 177 166 26
48 37 60 57 60 23 0 58 26 65 49 3 9 45 9 179 0 589 -39 1213 87 1750 354 l65
32 5 -785 5 -785 23 -58z m-3052 913 c-40 -44 -48 -98 -22 -136 21 -29 197
-161 242 -181 91 -39 244 -14 309 51 35 35 31 59 -17 113 -37 39 -43 52 -43
89 0 62 12 70 75 49 45 -15 51 -20 45 -39 -18 -59 -15 -186 14 -516 48 -554
61 -770 68 -1116 6 -305 -9 -698 -26 -709 -4 -2 -48 13 -98 32 l-91 36 1 211
c0 273 -29 466 -118 782 l-35 125 41 47 c22 26 58 83 79 127 52 109 100 313
80 345 -14 23 -28 1 -35 -57 -11 -90 -44 -201 -81 -277 -34 -69 -88 -146 -97
-136 -2 3 -30 82 -61 175 -32 94 -105 288 -162 432 -57 144 -104 267 -104 274
0 23 -65 133 -106 178 -23 26 -61 60 -83 76 -23 15 -39 30 -36 33 6 6 195 29
254 31 l43 1 -36 -40z m-247 -55 c69 -51 141 -143 167 -212 9 -27 62 -163 116
-303 188 -482 307 -872 359 -1180 22 -133 37 -425 25 -504 l-7 -46 -32 17
c-42 21 -132 88 -185 137 -34 31 -45 37 -55 27 -9 -10 0 -24 48 -67 195 -179
425 -266 930 -352 l50 -8 -42 -22 c-53 -28 -77 -62 -71 -102 l5 -30 -139 0
-138 0 0 -27 0 -26 -147 6 c-290 12 -461 63 -628 187 -70 53 -217 206 -315
330 -80 101 -110 128 -110 97 0 -26 226 -304 305 -376 127 -115 286 -204 423
-236 64 -16 72 -20 72 -41 l0 -23 -220 -3 c-219 -3 -238 0 -208 30 9 9 9 15
-1 25 -10 10 -18 6 -39 -20 -15 -18 -40 -35 -57 -39 -80 -18 -132 -61 -165
-136 -18 -42 -27 -49 -78 -69 -79 -31 -229 -31 -322 -1 -42 14 -68 18 -74 12
-28 -28 82 -61 219 -67 93 -4 119 -2 170 15 33 11 61 19 63 18 4 -5 110 -1011
106 -1015 -2 -2 -54 14 -116 35 -144 49 -349 151 -561 279 l-166 100 -7 55
c-11 89 3 365 26 500 29 167 69 286 131 395 126 219 220 457 269 680 38 178
40 170 -95 530 -125 334 -162 473 -172 652 -13 220 41 421 158 594 73 108 189
187 313 214 106 23 127 20 195 -30z m969 -51 c84 -41 153 -106 171 -160 9 -27
16 -151 22 -417 l9 -378 29 -62 c119 -262 452 -634 761 -852 l62 -44 -99 -49
c-54 -28 -105 -58 -113 -67 -8 -9 -14 -35 -15 -56 0 -21 -5 -39 -11 -39 -6 0
-51 20 -100 44 -130 63 -245 139 -395 263 -42 35 -83 63 -90 63 -10 0 -11 -62
-6 -305 6 -244 5 -305 -6 -305 -18 0 -247 56 -253 62 -2 3 0 54 6 114 36 374
17 948 -61 1799 -28 314 -27 425 5 425 7 0 45 -16 84 -36z m3492 -1334 c36 -5
153 -20 260 -34 347 -45 1979 -256 2180 -282 107 -13 575 -74 1040 -134 465
-60 1196 -155 1625 -210 2231 -288 2559 -332 2585 -345 59 -31 63 -117 7 -159
-18 -13 -133 -81 -257 -151 -124 -71 -1096 -625 -2160 -1233 -1064 -608 -1975
-1125 -2025 -1148 -142 -67 -263 -96 -435 -101 -132 -4 -180 0 -545 47 -220
29 -401 53 -402 53 -3 4 159 1522 163 1526 2 3 98 -8 212 -22 952 -124 1912
-249 1984 -258 52 -7 144 -10 225 -6 151 6 241 25 365 76 102 43 1859 1037
1880 1064 29 37 34 86 12 126 -36 65 -38 66 -459 120 -214 28 -804 105 -1310
170 -506 66 -1545 201 -2310 301 -764 99 -1541 200 -1725 225 -184 24 -503 65
-707 91 -277 36 -373 51 -373 61 0 7 16 63 36 123 39 122 30 115 134 100z
m-1840 -247 c0 -5 -31 -96 -68 -203 -61 -177 -70 -196 -99 -213 -31 -18 -32
-18 -81 7 -58 29 -224 95 -266 104 -26 7 -3 22 235 159 145 83 267 152 272
152 4 1 7 -2 7 -6z m1880 -53 c247 -31 2354 -305 2810 -365 228 -30 901 -117
1495 -194 2588 -337 2297 -296 2322 -326 26 -29 30 -80 9 -107 -11 -15 -184
-114 -996 -573 -135 -76 -342 -193 -460 -260 -417 -236 -478 -263 -660 -291
-162 -24 -14 -40 -1899 206 -338 44 -616 82 -619 84 -2 3 9 135 26 294 33 309
32 335 -10 395 -11 15 -34 35 -51 45 -30 16 -118 17 -1294 20 -763 1 -1263 6
-1263 12 0 5 4 11 9 15 5 3 12 20 16 38 4 17 81 258 172 535 l164 504 37 -6
c20 -3 107 -15 192 -26z m-1026 -40 c32 -12 66 -65 66 -103 0 -45 -26 -95 -62
-117 -49 -30 -84 -26 -124 14 -28 28 -34 42 -34 75 0 54 22 97 63 121 36 22
54 24 91 10z m-2179 -195 c73 -61 181 -136 257 -181 37 -21 67 -41 67 -44 1
-7 -379 -223 -384 -219 -9 10 -9 497 0 491 6 -3 33 -24 60 -47z m940 -102 c74
-27 168 -73 198 -97 17 -13 17 -18 6 -50 -12 -33 -16 -36 -52 -36 -21 0 -69 5
-107 11 -64 11 -77 10 -173 -16 l-104 -27 -48 21 c-26 11 -57 21 -68 21 -46 0
-73 56 -44 92 6 9 66 43 132 76 119 60 119 60 155 45 19 -8 67 -26 105 -40z
m-490 -176 c80 -34 197 -60 268 -61 31 -1 57 -2 57 -3 0 -7 -321 -183 -334
-183 -9 0 -35 9 -56 20 -56 29 -81 28 -150 -5 l-60 -29 -93 13 c-117 16 -139
21 -135 32 5 14 422 249 433 245 6 -3 37 -16 70 -29z m577 -39 c54 -7 87 -16
85 -22 -2 -6 -32 -95 -66 -198 l-63 -188 -134 0 -134 0 0 24 c0 33 -65 87
-146 123 -35 15 -64 30 -64 33 0 8 411 240 424 240 5 0 49 -5 98 -12z m-586
-249 c133 -52 183 -77 222 -112 50 -46 43 -47 -293 -47 -282 0 -316 2 -322 16
-15 39 11 64 132 129 66 35 123 64 126 64 4 1 65 -22 135 -50z m4726 -334 c15
-11 35 -37 44 -58 17 -37 14 -72 -200 -2105 -119 -1137 -219 -2082 -222 -2099
l-5 -33 -134 0 -135 0 0 44 c0 24 7 133 15 242 8 110 51 714 95 1344 44 630
96 1370 116 1645 20 275 34 524 32 553 -5 58 -41 113 -95 144 -28 17 -178 18
-2757 18 -3000 0 -2767 5 -2801 -60 -21 -40 -20 -63 25 -700 185 -2628 220
-3130 220 -3162 l0 -38 -134 0 -135 0 -6 43 c-5 38 -93 864 -245 2317 -33 311
-87 824 -120 1140 -34 316 -60 596 -57 622 6 64 46 124 100 149 41 18 115 19
3207 16 3148 -2 3165 -2 3192 -22z m-5882 -347 c0 -14 -73 -524 -88 -616 -11
-63 -22 -79 -22 -31 0 19 -9 155 -20 303 -18 243 -18 272 -4 301 8 18 25 37
37 43 31 15 97 15 97 0z m5387 -14 c53 -40 67 -78 65 -173 -2 -47 -6 -88 -10
-92 -4 -3 -225 22 -492 57 -267 35 -658 86 -870 114 -745 96 -855 111 -865
115 -5 2 475 3 1067 2 l1077 -2 28 -21z"/>
<path d="M14182 16040 c-45 -10 -90 -56 -102 -102 -7 -24 -10 -248 -8 -620 l3
-583 23 -33 c48 -67 -61 -62 1473 -62 l1393 0 33 23 c65 44 63 23 63 679 0
663 2 641 -70 683 -35 20 -47 20 -1405 22 -753 0 -1385 -2 -1403 -7z"/>
<path d="M12770 16020 c-23 -23 -26 -58 -6 -86 14 -18 32 -19 463 -22 444 -3
450 -2 476 18 32 26 35 62 7 90 -19 19 -33 20 -470 20 -437 0 -451 -1 -470
-20z"/>
<path d="M12590 15750 c-27 -27 -26 -75 2 -94 20 -14 98 -16 648 -16 550 0
628 2 648 16 28 19 29 67 2 94 -20 20 -33 20 -650 20 -617 0 -630 0 -650 -20z"/>
<path d="M12580 15480 c-27 -27 -25 -56 5 -85 l24 -25 251 0 251 0 25 26 c20
19 24 31 19 52 -12 51 -19 52 -297 52 -245 0 -259 -1 -278 -20z"/>
<path d="M13360 15480 c-23 -23 -26 -58 -6 -86 13 -18 30 -19 247 -22 129 -2
243 -1 255 2 53 14 71 69 34 106 -19 19 -33 20 -265 20 -232 0 -246 -1 -265
-20z"/>
<path d="M12592 15244 c-28 -19 -30 -74 -4 -97 17 -15 77 -17 650 -17 619 0
632 0 652 20 28 28 25 64 -6 89 -26 21 -35 21 -648 21 -546 0 -624 -2 -644
-16z"/>
<path d="M12590 14990 c-20 -20 -26 -56 -12 -76 21 -32 50 -34 657 -34 l606 0
24 25 c14 13 25 29 25 35 0 16 -21 53 -34 62 -6 4 -289 8 -628 8 -605 0 -618
0 -638 -20z"/>
<path d="M12580 14740 c-28 -28 -25 -64 6 -89 26 -21 35 -21 634 -21 599 0
608 0 634 21 31 25 34 61 6 89 -20 20 -33 20 -640 20 -607 0 -620 0 -640 -20z"/>
<path d="M12610 14511 c-47 -13 -58 -87 -17 -113 7 -4 299 -8 649 -8 l638 0
16 26 c22 32 10 73 -26 91 -19 10 -163 13 -630 12 -333 -1 -616 -4 -630 -8z"/>
<path d="M16105 14307 c-24 -18 -23 -76 1 -94 14 -10 114 -13 473 -11 l455 3
16 28 c13 24 13 30 0 55 l-16 27 -455 3 c-371 2 -458 0 -474 -11z"/>
<path d="M12587 14242 c-21 -23 -21 -61 -1 -87 15 -20 27 -20 655 -20 623 0
641 1 655 19 19 27 18 70 -4 89 -17 15 -77 17 -654 17 -602 0 -636 -1 -651
-18z"/>
<path d="M15752 14044 c-15 -10 -22 -25 -22 -49 0 -68 -26 -65 660 -65 686 0
660 -3 660 65 0 68 26 65 -660 65 -541 0 -618 -2 -638 -16z"/>
<path d="M11341 10363 c-37 -77 -124 -205 -196 -290 -233 -273 -557 -489 -925
-618 -105 -36 -367 -105 -402 -105 -18 0 -36 -26 -25 -36 8 -8 153 22 282 58
519 144 953 441 1212 828 60 89 115 195 106 204 -15 15 -31 3 -52 -41z"/>
<path d="M5787 8783 c-3 -6 18 -657 23 -680 0 -2 7 -3 16 -3 15 0 15 24 9 253
-10 327 -17 429 -32 434 -6 2 -13 0 -16 -4z"/>
<path d="M9954 16349 c-11 -18 81 -103 102 -95 15 6 10 14 -31 56 -52 53 -60
57 -71 39z"/>
<path d="M10267 16316 c-50 -47 -58 -66 -29 -66 23 0 92 70 92 93 0 26 -13 21
-63 -27z"/>
<path d="M9994 16046 c-43 -42 -50 -66 -20 -66 19 0 98 88 91 100 -11 18 -24
11 -71 -34z"/>
<path d="M10224 16079 c-7 -12 74 -99 93 -99 24 0 13 24 -29 67 -45 45 -53 50
-64 32z"/>
<path d="M3347 11284 c-47 -57 -58 -84 -33 -84 15 0 101 104 101 122 0 28 -24
14 -68 -38z"/>
<path d="M3066 11301 c-7 -11 103 -111 122 -111 26 0 10 30 -42 74 -55 46 -70
54 -80 37z"/>
<path d="M3314 11095 c-4 -9 -5 -17 -3 -18 2 -2 30 -25 62 -52 46 -38 60 -46
70 -36 9 10 1 22 -38 57 -68 60 -84 69 -91 49z"/>
<path d="M3141 11039 c-55 -65 -59 -74 -37 -82 14 -6 106 98 106 120 0 30 -21
18 -69 -38z"/>
<path d="M3133 8758 c-7 -9 19 -182 91 -590 56 -318 105 -581 109 -585 4 -3
12 -2 18 4 8 8 -17 171 -91 590 -56 318 -105 582 -109 586 -4 4 -12 2 -18 -5z"/>
<path d="M15158 5587 c-14 -19 -111 -121 -215 -227 -527 -541 -1121 -985
-1768 -1325 -154 -81 -139 -71 -131 -90 5 -13 17 -10 78 21 416 208 916 538
1293 853 271 226 805 752 805 792 0 21 -37 7 -62 -24z"/>
<path d="M6810 5315 c-6 -16 -31 -87 -55 -156 l-43 -127 76 -11 c42 -6 103
-14 135 -17 l58 -7 -10 24 c-15 39 -116 261 -133 294 l-16 30 -12 -30z"/>
<path d="M15180 4994 c-237 -238 -484 -456 -722 -637 -101 -77 -128 -107 -94
-107 34 0 431 323 651 530 142 134 335 334 335 348 0 30 -34 3 -170 -134z"/>
<path d="M7952 4081 c-10 -6 -7 -33 11 -119 l24 -112 -22 0 c-12 0 -49 -14
-82 -31 l-61 -31 -52 36 c-29 20 -63 36 -75 36 -24 0 -25 2 -41 93 -5 28 -11
37 -26 37 -14 0 -18 -5 -14 -17 3 -10 8 -39 11 -65 7 -47 7 -47 -54 -110 -121
-124 -127 -177 -39 -361 126 -261 300 -475 520 -638 187 -138 283 -151 349
-47 17 28 20 44 15 108 -11 150 -113 488 -235 774 -60 141 -71 159 -119 190
-37 23 -38 26 -61 140 -13 64 -27 119 -31 121 -3 2 -12 0 -18 -4z m-190 -296
c39 -33 88 -33 136 0 48 33 107 33 153 2 28 -18 44 -46 86 -144 78 -181 81
-161 -37 -206 -61 -24 -100 -44 -100 -53 0 -21 19 -18 120 22 74 28 95 33 102
22 11 -18 32 -87 27 -91 -2 -2 -44 -20 -94 -39 -55 -22 -91 -42 -93 -52 -5
-23 10 -20 111 20 49 19 93 32 97 27 13 -14 80 -256 99 -355 22 -113 16 -161
-24 -195 -37 -33 -86 -30 -154 8 -231 130 -472 394 -608 667 -100 201 -99 244
14 354 67 65 100 67 165 13z"/>
<path d="M7587 3603 c-8 -7 45 -107 130 -248 150 -247 328 -436 478 -506 71
-33 128 -41 132 -19 3 11 -11 18 -44 27 -186 44 -437 317 -628 681 -35 67 -51
82 -68 65z"/>
<path d="M5877 4043 c-3 -5 -8 -41 -12 -82 -6 -64 -11 -77 -37 -100 -38 -34
-47 -79 -48 -226 0 -168 13 -188 175 -269 172 -86 363 -143 559 -167 126 -15
381 -7 453 15 71 22 113 71 113 132 0 25 -7 58 -15 73 -43 84 -346 303 -644
467 -118 65 -121 67 -127 106 -5 29 -11 38 -23 36 -10 -3 -15 -12 -13 -27 2
-20 -1 -22 -20 -17 -63 19 -88 18 -132 -3 -36 -18 -48 -31 -62 -67 -18 -46
-24 -50 -55 -34 -10 6 -35 11 -54 12 l-35 1 0 73 c0 65 -10 98 -23 77z m452
-149 c69 -36 131 -70 138 -76 9 -7 -3 -33 -43 -100 -49 -81 -61 -118 -37 -118
4 0 34 43 66 95 32 52 61 95 63 95 2 0 23 -11 45 -25 l40 -26 -37 -66 c-20
-37 -44 -79 -53 -94 -8 -15 -13 -31 -9 -35 16 -15 39 9 83 91 l47 86 31 -20
c80 -50 216 -151 286 -211 89 -77 114 -125 90 -176 -22 -47 -86 -72 -217 -84
-261 -26 -588 38 -847 166 -154 77 -169 104 -158 294 6 108 8 117 34 142 32
32 85 38 124 12 39 -25 67 -15 92 36 52 102 90 104 262 14z"/>
<path d="M5920 3525 c0 -16 47 -39 215 -102 251 -94 491 -136 654 -116 96 12
177 42 187 68 11 27 -5 30 -50 8 -175 -85 -512 -40 -899 121 -98 40 -107 42
-107 21z"/>
<path d="M12680 3902 c-71 -35 -98 -116 -63 -189 49 -104 207 -96 249 12 28
74 -1 146 -70 179 -44 21 -72 20 -116 -2z m109 -36 c31 -16 51 -54 51 -96 0
-37 -42 -87 -80 -95 -38 -8 -94 18 -109 51 -44 98 44 188 138 140z"/>
</g>
</svg>
