<svg width="20" height="20" viewBox="0 0 20 20" fill="none" xmlns="http://www.w3.org/2000/svg">
<mask id="mask0_4294_24925" style="mask-type:alpha" maskUnits="userSpaceOnUse" x="0" y="0" width="20" height="20">
<rect width="20" height="20" fill="#D9D9D9"/>
</mask>
<g mask="url(#mask0_4294_24925)">
<path d="M9.99967 10.8333C10.8052 10.8333 11.4927 10.5486 12.0622 9.97913C12.6316 9.40968 12.9163 8.72218 12.9163 7.91663C12.9163 7.11107 12.6316 6.42357 12.0622 5.85413C11.4927 5.28468 10.8052 4.99996 9.99967 4.99996C9.19412 4.99996 8.50662 5.28468 7.93717 5.85413C7.36773 6.42357 7.08301 7.11107 7.08301 7.91663C7.08301 8.72218 7.36773 9.40968 7.93717 9.97913C8.50662 10.5486 9.19412 10.8333 9.99967 10.8333ZM9.99967 18.3333C7.9719 17.8194 6.35384 16.7083 5.14551 15C3.93717 13.2916 3.33301 11.375 3.33301 9.24996V4.16663L9.99967 1.66663L16.6663 4.16663V9.24996C16.6663 11.375 16.0622 13.2916 14.8538 15C13.6455 16.7083 12.0275 17.8194 9.99967 18.3333ZM9.99967 16.5833C10.8191 16.3194 11.5448 15.9062 12.1768 15.3437C12.8087 14.7812 13.3608 14.1458 13.833 13.4375C13.2358 13.1319 12.6143 12.8993 11.9684 12.7395C11.3226 12.5798 10.6663 12.5 9.99967 12.5C9.33301 12.5 8.67676 12.5798 8.03092 12.7395C7.38509 12.8993 6.76356 13.1319 6.16634 13.4375C6.63856 14.1458 7.19065 14.7812 7.82259 15.3437C8.45454 15.9062 9.18023 16.3194 9.99967 16.5833Z" fill="#006A4E"/>
</g>
</svg>
