<svg xmlns="http://www.w3.org/2000/svg" width="32" height="32" viewBox="0 0 32 32" fill="none">
    <mask id="mask0_2_487" style="mask-type:luminance" maskUnits="userSpaceOnUse" x="0" y="0" width="32" height="32">
        <path d="M32 0H0V32H32V0Z" fill="white"/>
    </mask>
    <g mask="url(#mask0_2_487)">
        <path opacity="0.5" d="M7.95898 2.79883V16.3502C7.95898 16.9309 8.12873 17.4879 8.43086 17.8986C8.73301 18.3091 9.14279 18.5399 9.57008 18.5399L25.8499 18.6316C26.0618 18.6324 26.2719 18.5765 26.4679 18.4668C26.6639 18.3572 26.8421 18.196 26.9922 17.9926C27.1423 17.7892 27.2614 17.5476 27.3427 17.2814C27.424 17.0153 27.4658 16.73 27.4658 16.4419V2.89061L7.95898 2.79883Z" fill="#9CE5E5"/>
        <path d="M2.41196 31.7111H1.37971C0.752635 31.7111 0.250977 30.813 0.250977 29.6461V6.11642C0.250977 4.96911 0.73334 4.05127 1.37971 4.05127H2.41196C1.78972 4.05127 1.28324 4.96911 1.28324 6.11642V29.6461C1.25912 30.813 1.7656 31.7111 2.41196 31.7111Z" fill="#CFB0FF"/>
        <path d="M26.5687 31.9861H23.9495C23.9192 31.9923 23.8884 31.9896 23.859 31.9782C23.8296 31.9667 23.8024 31.9467 23.7792 31.9197C23.756 31.8926 23.7375 31.8591 23.7247 31.8212C23.7119 31.7835 23.7053 31.7424 23.7053 31.7009C23.7053 31.6594 23.7119 31.6182 23.7247 31.5805C23.7375 31.5428 23.756 31.5092 23.7792 31.4822C23.8024 31.455 23.8296 31.4351 23.859 31.4237C23.8884 31.4121 23.9192 31.4094 23.9495 31.4157H26.5687C26.9153 31.4157 27.2479 31.2286 27.493 30.8954C27.7382 30.5621 27.8759 30.1102 27.8759 29.639V6.10288C27.8759 5.86957 27.8421 5.63853 27.7764 5.42297C27.7106 5.20742 27.6144 5.01155 27.493 4.84658C27.3716 4.68159 27.2275 4.55072 27.069 4.46144C26.9103 4.37215 26.7403 4.3262 26.5687 4.3262C26.5124 4.3262 26.4584 4.29581 26.4186 4.24171C26.3788 4.1876 26.3564 4.11424 26.3564 4.03773C26.3564 3.96122 26.3788 3.88785 26.4186 3.83375C26.4584 3.77966 26.5124 3.74927 26.5687 3.74927C26.7961 3.74927 27.0212 3.81015 27.2314 3.92843C27.4415 4.0467 27.6324 4.22007 27.7932 4.43862C27.954 4.65717 28.0815 4.91664 28.1686 5.20219C28.2556 5.48774 28.3004 5.7938 28.3004 6.10288V29.639C28.3004 29.9478 28.2555 30.2536 28.1685 30.5387C28.0814 30.8238 27.9537 31.083 27.7929 31.301C27.632 31.5189 27.4411 31.6918 27.231 31.8093C27.021 31.9269 26.7958 31.9869 26.5687 31.9861Z" fill="#1D1D1F"/>
        <path d="M22.4973 3.00996H6.85427C6.7967 3.00996 6.74149 2.97889 6.70079 2.92356C6.66008 2.86823 6.63721 2.79319 6.63721 2.71494C6.63721 2.6367 6.66008 2.56167 6.70079 2.50634C6.74149 2.45101 6.7967 2.41992 6.85427 2.41992H22.4973C22.5549 2.41992 22.6101 2.45101 22.6509 2.50634C22.6916 2.56167 22.7144 2.6367 22.7144 2.71494C22.7144 2.79319 22.6916 2.86823 22.6509 2.92356C22.6101 2.97889 22.5549 3.00996 22.4973 3.00996Z" fill="#1D1D1F"/>
        <path d="M6.65663 4.33897H5.56166C5.50537 4.33897 5.45138 4.30858 5.41158 4.25448C5.37178 4.20039 5.34942 4.12702 5.34942 4.05051C5.34876 4.01238 5.3538 3.97447 5.36424 3.93906C5.37467 3.90366 5.39027 3.87151 5.41012 3.84453C5.42996 3.81756 5.45362 3.79635 5.47967 3.78218C5.50572 3.768 5.53361 3.76115 5.56166 3.76204H6.65663C6.71292 3.76204 6.76691 3.79243 6.80671 3.84653C6.84651 3.90064 6.86887 3.974 6.86887 4.05051C6.86887 4.12702 6.84651 4.20039 6.80671 4.25448C6.76691 4.30858 6.71292 4.33897 6.65663 4.33897Z" fill="#1D1D1F"/>
        <path d="M25.9656 5.47534H3.47779C2.93966 5.47534 2.50342 6.06827 2.50342 6.79967V28.9001C2.50342 29.6314 2.93966 30.2243 3.47779 30.2243H25.9656C26.5037 30.2243 26.94 29.6314 26.94 28.9001V6.79967C26.94 6.06827 26.5037 5.47534 25.9656 5.47534Z" fill="#076DAB"/>
        <path opacity="0.5" d="M30.1914 18.1927C30.0647 18.5815 29.8579 18.9123 29.596 19.145C29.3341 19.3777 29.0282 19.5024 28.7153 19.5039L12.4307 19.4055C12.0038 19.4039 11.5947 19.1726 11.2929 18.7623C10.991 18.352 10.8209 17.7961 10.8196 17.2158V4.15625H11.712V16.829C11.7132 17.1914 11.82 17.5382 12.009 17.7937C12.1979 18.0493 12.4535 18.1927 12.7202 18.1927H30.1914Z" fill="#797979"/>
        <path d="M2.55646 15.3806C2.53776 15.3835 2.51884 15.3808 2.50098 15.3728C2.48312 15.3648 2.46675 15.3516 2.453 15.3341C2.43924 15.3167 2.42844 15.2954 2.42132 15.2717C2.4142 15.2481 2.41093 15.2226 2.41174 15.1971V6.76599C2.41046 6.56576 2.43853 6.3672 2.49431 6.18187C2.55009 5.99655 2.63248 5.82817 2.73665 5.68659C2.84082 5.545 2.9647 5.43302 3.10106 5.35721C3.23741 5.28139 3.38351 5.24325 3.53083 5.245H7.64057C7.65849 5.24408 7.67636 5.24819 7.69305 5.25709C7.70974 5.26599 7.7249 5.27948 7.73758 5.29671C7.75026 5.31395 7.76018 5.33455 7.76673 5.35723C7.77328 5.37993 7.77631 5.4042 7.77563 5.42856C7.77563 5.47725 7.76141 5.52394 7.73607 5.55836C7.71075 5.5928 7.6764 5.61213 7.64057 5.61213H3.53083C3.30823 5.61213 3.09475 5.73232 2.93735 5.94625C2.77994 6.16018 2.69151 6.45034 2.69151 6.75287V15.1971C2.69151 15.2458 2.67729 15.2924 2.65195 15.3269C2.62663 15.3612 2.59228 15.3806 2.55646 15.3806Z" fill="#1D1D1F"/>
        <path d="M26.0189 30.368H3.53099C3.38368 30.3698 3.23757 30.3317 3.10122 30.2558C2.96487 30.18 2.84098 30.068 2.73681 29.9264C2.63263 29.7849 2.55026 29.6165 2.49447 29.4312C2.43869 29.2458 2.41062 29.0472 2.41191 28.8471V20.4619C2.41191 20.4377 2.4154 20.4139 2.42219 20.3916C2.42898 20.3694 2.43892 20.3491 2.45147 20.332C2.46401 20.3151 2.47889 20.3015 2.49528 20.2923C2.51166 20.2831 2.52923 20.2783 2.54697 20.2783C2.58241 20.2799 2.61606 20.2997 2.64114 20.3338C2.66621 20.368 2.68083 20.4137 2.68203 20.4619V28.8471C2.68203 29.1495 2.77045 29.4397 2.92786 29.6537C3.08527 29.8676 3.29874 29.9877 3.52135 29.9877H26.0189C26.2414 29.9877 26.4549 29.8676 26.6123 29.6537C26.7696 29.4397 26.8581 29.1495 26.8581 28.8471V19.4982C26.8575 19.4737 26.8605 19.4495 26.867 19.4268C26.8736 19.4041 26.8834 19.3835 26.8961 19.3663C26.9088 19.349 26.924 19.3356 26.9408 19.3267C26.9574 19.3177 26.9753 19.3136 26.9932 19.3146C27.0286 19.3162 27.0622 19.336 27.0874 19.3701C27.1125 19.4043 27.127 19.45 27.1282 19.4982V28.8471C27.1295 29.0461 27.1018 29.2437 27.0466 29.428C26.9914 29.6126 26.9099 29.7803 26.8067 29.9218C26.7036 30.0632 26.5809 30.1754 26.4456 30.252C26.3103 30.3285 26.1653 30.368 26.0189 30.368Z" fill="#1D1D1F"/>
        <path d="M2.55626 19.4774C2.53759 19.4803 2.51869 19.4776 2.50085 19.4696C2.48302 19.4615 2.46667 19.4483 2.45294 19.4309C2.43921 19.4134 2.42842 19.3921 2.4213 19.3685C2.41419 19.3449 2.41093 19.3194 2.41174 19.2939V17.3729C2.41107 17.3485 2.41409 17.3242 2.42063 17.3015C2.42717 17.2789 2.43708 17.2583 2.44974 17.241C2.4624 17.2238 2.47755 17.2102 2.49421 17.2014C2.51089 17.1925 2.52873 17.1884 2.54662 17.1893C2.58239 17.1893 2.6167 17.2086 2.64199 17.2431C2.66728 17.2775 2.6815 17.3242 2.6815 17.3729V19.2939C2.68159 19.3403 2.66871 19.3852 2.64546 19.4192C2.62221 19.4533 2.59033 19.474 2.55626 19.4774Z" fill="#1D1D1F"/>
        <path opacity="0.35" d="M17.6834 26.8331C17.814 26.8331 17.9198 26.6893 17.9198 26.5118C17.9198 26.3345 17.814 26.1907 17.6834 26.1907C17.5528 26.1907 17.447 26.3345 17.447 26.5118C17.447 26.6893 17.5528 26.8331 17.6834 26.8331Z" fill="#797979"/>
        <path opacity="0.5" d="M25.9658 28.7213H18.5566C18.5589 28.6973 18.5589 28.6732 18.5566 28.6491C18.5566 28.517 18.518 28.3903 18.4493 28.2969C18.3805 28.2034 18.2872 28.1509 18.19 28.1509C18.0928 28.1509 17.9995 28.2034 17.9308 28.2969C17.8621 28.3903 17.8235 28.517 17.8235 28.6491C17.8235 28.6491 17.8235 28.6951 17.8235 28.7213H17.2687C17.2818 28.6706 17.2899 28.6177 17.2928 28.5639C17.2928 28.4093 17.2476 28.2608 17.1671 28.1513C17.0865 28.042 16.9774 27.9805 16.8635 27.9805C16.7496 27.9805 16.6405 28.042 16.56 28.1513C16.4795 28.2608 16.4342 28.4093 16.4342 28.5639C16.4292 28.6162 16.4292 28.6691 16.4342 28.7213H3.47791C3.22205 28.7213 2.97667 28.5832 2.79574 28.3372C2.61483 28.0914 2.51318 27.7579 2.51318 27.4101V28.9049C2.51318 29.2526 2.61483 29.5861 2.79574 29.832C2.97667 30.078 3.22205 30.2161 3.47791 30.2161H25.9658C26.2216 30.2161 26.467 30.078 26.6479 29.832C26.8288 29.5861 26.9305 29.2526 26.9305 28.9049V27.397C26.9317 27.5702 26.9077 27.7421 26.8598 27.9028C26.8119 28.0634 26.741 28.2095 26.6513 28.3326C26.5616 28.4558 26.4548 28.5535 26.3371 28.6202C26.2194 28.687 26.0933 28.7213 25.9658 28.7213Z" fill="#797979"/>
        <path opacity="0.35" d="M16.8151 26.3762C16.8895 26.3762 16.9499 26.294 16.9499 26.1926C16.9499 26.0911 16.8895 26.009 16.8151 26.009C16.7406 26.009 16.6802 26.0911 16.6802 26.1926C16.6802 26.294 16.7406 26.3762 16.8151 26.3762Z" fill="#797979"/>
        <path opacity="0.35" d="M18.653 26.7498C18.7036 26.7498 18.7446 26.6941 18.7446 26.6253C18.7446 26.5565 18.7036 26.5007 18.653 26.5007C18.6025 26.5007 18.5615 26.5565 18.5615 26.6253C18.5615 26.6941 18.6025 26.7498 18.653 26.7498Z" fill="#797979"/>
        <path opacity="0.35" d="M18.0454 25.6147C18.1573 25.6147 18.248 25.4914 18.248 25.3393C18.248 25.1872 18.1573 25.064 18.0454 25.064C17.9335 25.064 17.8428 25.1872 17.8428 25.3393C17.8428 25.4914 17.9335 25.6147 18.0454 25.6147Z" fill="#797979"/>
        <path opacity="0.35" d="M15.9902 26.434C16.1022 26.434 16.1928 26.3107 16.1928 26.1586C16.1928 26.0066 16.1022 25.8833 15.9902 25.8833C15.8783 25.8833 15.7876 26.0066 15.7876 26.1586C15.7876 26.3107 15.8783 26.434 15.9902 26.434Z" fill="#797979"/>
        <path d="M7.72756 13.7666C7.72756 13.3936 7.50511 13.0913 7.23072 13.0913C6.95633 13.0913 6.73389 13.3936 6.73389 13.7666V17.8116C6.73389 18.1846 6.95633 18.4869 7.23072 18.4869C7.50511 18.4869 7.72756 18.1846 7.72756 17.8116V13.7666Z" fill="#797979"/>
        <path d="M30.5578 0.105022H9.11192C9.00586 0.103946 8.90024 0.123822 8.79838 0.164026H9.07333C8.76816 0.158468 8.47363 0.316239 8.25331 0.60328C8.04138 0.905224 7.92381 1.30706 7.92531 1.72437V22.048C7.93655 22.4655 8.06651 22.8607 8.28784 23.1505C8.50916 23.4403 8.80459 23.602 9.11192 23.6018H30.5578C30.8717 23.6018 31.1728 23.4329 31.3952 23.1318C31.6176 22.8307 31.7432 22.4222 31.7444 21.9956V1.72437C31.7444 1.29602 31.6196 0.885123 31.3972 0.581627C31.1748 0.27813 30.873 0.106756 30.5578 0.105022Z" fill="#FEFFFF"/>
        <path opacity="0.2" d="M31.754 1.96705V22.2907C31.7527 22.7173 31.6271 23.1258 31.4047 23.4269C31.1823 23.7279 30.8812 23.897 30.5674 23.897H15.7395C38.7435 23.8577 23.0183 5.80232 29.0962 0.341155H30.5432C30.702 0.336763 30.8596 0.375671 31.007 0.455578C31.1544 0.535483 31.2885 0.654763 31.4014 0.806358C31.5143 0.957954 31.6037 1.13878 31.6642 1.33815C31.7248 1.53752 31.7553 1.75137 31.754 1.96705Z" fill="#C9D2DF"/>
        <path d="M13.1347 4.9759H11.3211C11.2789 4.9759 11.2383 4.95311 11.2085 4.91254C11.1786 4.87196 11.1619 4.81693 11.1619 4.75955C11.1619 4.70217 11.1786 4.64714 11.2085 4.60657C11.2383 4.56599 11.2789 4.54321 11.3211 4.54321H13.1347C13.177 4.54321 13.2174 4.56599 13.2473 4.60657C13.2772 4.64714 13.294 4.70217 13.294 4.75955C13.294 4.81693 13.2772 4.87196 13.2473 4.91254C13.2174 4.95311 13.177 4.9759 13.1347 4.9759Z" fill="#FEFFFF"/>
        <path d="M13.135 13.001H11.3213C11.2984 13.0064 11.275 13.005 11.2525 12.9969C11.2301 12.9887 11.2092 12.9739 11.1914 12.9536C11.1736 12.9333 11.1593 12.9079 11.1494 12.8793C11.1396 12.8507 11.1345 12.8195 11.1345 12.7879C11.1345 12.7563 11.1396 12.7251 11.1494 12.6965C11.1593 12.6678 11.1736 12.6425 11.1914 12.6222C11.2092 12.6019 11.2301 12.5871 11.2525 12.5789C11.275 12.5707 11.2984 12.5693 11.3213 12.5748H13.135C13.1579 12.5693 13.1814 12.5707 13.2038 12.5789C13.2263 12.5871 13.2471 12.6019 13.2649 12.6222C13.2828 12.6425 13.2971 12.6678 13.3068 12.6965C13.3167 12.7251 13.3218 12.7563 13.3218 12.7879C13.3218 12.8195 13.3167 12.8507 13.3068 12.8793C13.2971 12.9079 13.2828 12.9333 13.2649 12.9536C13.2471 12.9739 13.2263 12.9887 13.2038 12.9969C13.1814 13.005 13.1579 13.0064 13.135 13.001Z" fill="#FEFFFF"/>
        <path d="M13.135 17.0446H11.3213C11.2984 17.0502 11.275 17.0487 11.2525 17.0406C11.2301 17.0324 11.2092 17.0176 11.1914 16.9973C11.1736 16.9771 11.1593 16.9517 11.1494 16.9231C11.1396 16.8945 11.1345 16.8632 11.1345 16.8316C11.1345 16.8 11.1396 16.7688 11.1494 16.7402C11.1593 16.7116 11.1736 16.6862 11.1914 16.6658C11.2092 16.6456 11.2301 16.6308 11.2525 16.6227C11.275 16.6144 11.2984 16.6131 11.3213 16.6185H13.135C13.1579 16.6131 13.1814 16.6144 13.2038 16.6227C13.2263 16.6308 13.2471 16.6456 13.2649 16.6658C13.2828 16.6862 13.2971 16.7116 13.3068 16.7402C13.3167 16.7688 13.3218 16.8 13.3218 16.8316C13.3218 16.8632 13.3167 16.8945 13.3068 16.9231C13.2971 16.9517 13.2828 16.9771 13.2649 16.9973C13.2471 17.0176 13.2263 17.0324 13.2038 17.0406C13.1814 17.0487 13.1579 17.0502 13.135 17.0446Z" fill="#FEFFFF"/>
        <path d="M9.165 23.7931H7.93015C7.61711 23.7896 7.31776 23.6182 7.09732 23.3161C6.87686 23.0141 6.75316 22.6058 6.75317 22.1803V1.8894C6.75316 1.46391 6.87686 1.05568 7.09732 0.753595C7.31776 0.451514 7.61711 0.28007 7.93015 0.276611H9.165C9.00917 0.276611 8.85487 0.318327 8.7109 0.399377C8.56694 0.480427 8.43612 0.599223 8.32594 0.748985C8.21575 0.898745 8.12834 1.07654 8.0687 1.27221C8.00908 1.46788 7.97838 1.67761 7.97838 1.8894V22.213C7.9847 22.6351 8.1125 23.037 8.33435 23.3324C8.55621 23.6277 8.85443 23.7931 9.165 23.7931Z" fill="#CFB0FF"/>
        <path opacity="0.6" d="M7.79006 4.18919C7.79006 3.81625 7.56761 3.51392 7.29322 3.51392C7.01883 3.51392 6.79639 3.81625 6.79639 4.18919V6.94272C6.79639 7.31566 7.01883 7.618 7.29322 7.618C7.56761 7.618 7.79006 7.31566 7.79006 6.94272V4.18919Z" fill="#8647EA"/>
        <path d="M29.6846 2.94465H8.94298C8.91355 2.94465 8.88533 2.92876 8.86452 2.90049C8.84372 2.8722 8.83203 2.83386 8.83203 2.79386C8.83203 2.75387 8.84372 2.71552 8.86452 2.68724C8.88533 2.65895 8.91355 2.64307 8.94298 2.64307H29.6846C29.7141 2.64307 29.7423 2.65895 29.7631 2.68724C29.7839 2.71552 29.7956 2.75387 29.7956 2.79386C29.7956 2.83386 29.7839 2.8722 29.7631 2.90049C29.7423 2.92876 29.7141 2.94465 29.6846 2.94465Z" fill="#1D1D1F"/>
        <path d="M25.0442 10.4905H19.555C19.5195 10.4889 19.4858 10.4691 19.4608 10.435C19.4357 10.4009 19.4211 10.3552 19.4199 10.307C19.4199 10.2583 19.4341 10.2116 19.4595 10.1772C19.4848 10.1428 19.5191 10.1234 19.555 10.1234H25.0442C25.0622 10.1225 25.0801 10.1266 25.0967 10.1355C25.1134 10.1444 25.1286 10.1579 25.1413 10.1751C25.1539 10.1924 25.1638 10.213 25.1704 10.2357C25.177 10.2583 25.18 10.2826 25.1793 10.307C25.1793 10.3557 25.1651 10.4024 25.1398 10.4368C25.1144 10.4712 25.0801 10.4905 25.0442 10.4905Z" fill="#1D1D1F"/>
        <path d="M25.0443 8.69956H19.5551C19.5355 8.70464 19.5153 8.7038 19.4961 8.6971C19.4768 8.69039 19.4589 8.67798 19.4435 8.66076C19.4283 8.64353 19.4159 8.62192 19.4074 8.59745C19.3989 8.573 19.3945 8.5463 19.3945 8.51926C19.3945 8.49223 19.3989 8.46553 19.4074 8.44107C19.4159 8.41662 19.4283 8.39501 19.4435 8.37778C19.4589 8.36056 19.4768 8.34814 19.4961 8.34144C19.5153 8.33473 19.5355 8.33388 19.5551 8.33897H25.0443C25.0639 8.33388 25.084 8.33473 25.1033 8.34144C25.1226 8.34814 25.1404 8.36056 25.1558 8.37778C25.1711 8.39501 25.1835 8.41662 25.1919 8.44107C25.2004 8.46553 25.2048 8.49223 25.2048 8.51926C25.2048 8.5463 25.2004 8.573 25.1919 8.59745C25.1835 8.62192 25.1711 8.64353 25.1558 8.66076C25.1404 8.67798 25.1226 8.69039 25.1033 8.6971C25.084 8.7038 25.0639 8.70464 25.0443 8.69956Z" fill="#1D1D1F"/>
        <path d="M27.9771 12.2796H19.5551C19.5355 12.2847 19.5153 12.2839 19.4961 12.2772C19.4768 12.2705 19.4589 12.258 19.4435 12.2408C19.4283 12.2236 19.4159 12.202 19.4074 12.1775C19.3989 12.1531 19.3945 12.1264 19.3945 12.0993C19.3945 12.0723 19.3989 12.0456 19.4074 12.0211C19.4159 11.9967 19.4283 11.9751 19.4435 11.9578C19.4589 11.9406 19.4768 11.9282 19.4961 11.9215C19.5153 11.9148 19.5355 11.914 19.5551 11.9191H27.9771C27.9967 11.914 28.0167 11.9148 28.036 11.9215C28.0553 11.9282 28.0732 11.9406 28.0886 11.9578C28.1039 11.9751 28.1163 11.9967 28.1247 12.0211C28.1332 12.0456 28.1376 12.0723 28.1376 12.0993C28.1376 12.1264 28.1332 12.1531 28.1247 12.1775C28.1163 12.202 28.1039 12.2236 28.0886 12.2408C28.0732 12.258 28.0553 12.2705 28.036 12.2772C28.0167 12.2839 27.9967 12.2847 27.9771 12.2796Z" fill="#1D1D1F"/>
        <path d="M10.1584 2.07264C10.0916 2.07264 10.0264 2.04572 9.97086 1.99529C9.91534 1.94485 9.87206 1.87319 9.84651 1.78933C9.82094 1.70548 9.81426 1.6132 9.82729 1.52417C9.84032 1.43515 9.87247 1.35338 9.9197 1.2892C9.96692 1.22501 10.0271 1.18131 10.0925 1.1636C10.1581 1.1459 10.226 1.15498 10.2877 1.18972C10.3494 1.22446 10.4021 1.28327 10.4392 1.35874C10.4763 1.43422 10.4961 1.52294 10.4961 1.6137C10.4961 1.73542 10.4605 1.85214 10.3972 1.93822C10.3339 2.02428 10.248 2.07264 10.1584 2.07264ZM10.1584 1.33836C10.1289 1.33217 10.0987 1.33475 10.07 1.34592C10.0412 1.35708 10.0146 1.37657 9.99181 1.40302C9.96916 1.42949 9.95094 1.46231 9.93846 1.49925C9.92597 1.53618 9.9195 1.57634 9.9195 1.61699C9.9195 1.65764 9.92597 1.6978 9.93846 1.73473C9.95094 1.77166 9.96916 1.80448 9.99181 1.83094C10.0146 1.85741 10.0412 1.87689 10.07 1.88806C10.0987 1.89921 10.1289 1.9018 10.1584 1.89562C10.188 1.9018 10.2182 1.89921 10.247 1.88806C10.2757 1.87689 10.3024 1.85741 10.325 1.83094C10.3478 1.80448 10.366 1.77166 10.3784 1.73473C10.3909 1.6978 10.3974 1.65764 10.3974 1.61699C10.3974 1.57634 10.3909 1.53618 10.3784 1.49925C10.366 1.46231 10.3478 1.42949 10.325 1.40302C10.3024 1.37657 10.2757 1.35708 10.247 1.34592C10.2182 1.33475 10.188 1.33217 10.1584 1.33836Z" fill="#1D1D1F"/>
        <path d="M11.3308 2.07262C11.2865 2.07262 11.2425 2.06076 11.2016 2.0377C11.1606 2.01463 11.1233 1.98082 11.092 1.93822C11.0606 1.8956 11.0358 1.84501 11.0188 1.78933C11.0018 1.73364 10.9932 1.67397 10.9932 1.6137C10.9932 1.55344 11.0018 1.49377 11.0188 1.43808C11.0358 1.3824 11.0606 1.33182 11.092 1.2892C11.1233 1.24659 11.1606 1.21278 11.2016 1.18972C11.2425 1.16666 11.2865 1.15479 11.3308 1.15479C11.3751 1.15479 11.419 1.16666 11.46 1.18972C11.501 1.21278 11.5382 1.24659 11.5696 1.2892C11.6009 1.33182 11.6258 1.3824 11.6427 1.43808C11.6597 1.49377 11.6684 1.55344 11.6684 1.6137C11.6684 1.67397 11.6597 1.73364 11.6427 1.78933C11.6258 1.84501 11.6009 1.8956 11.5696 1.93822C11.5382 1.98082 11.501 2.01463 11.46 2.0377C11.419 2.06076 11.3751 2.07262 11.3308 2.07262ZM11.3308 1.33836C11.2893 1.33706 11.2486 1.35265 11.2138 1.38312C11.1789 1.41359 11.1516 1.45755 11.1353 1.50931C11.119 1.56109 11.1145 1.6183 11.1223 1.67359C11.1302 1.72888 11.1501 1.77971 11.1793 1.81953C11.2086 1.85935 11.246 1.88632 11.2868 1.89699C11.3274 1.90767 11.3695 1.90153 11.4075 1.87938C11.4457 1.85723 11.478 1.8201 11.5004 1.77275C11.5228 1.7254 11.5343 1.67 11.5333 1.6137C11.536 1.5754 11.5328 1.53676 11.5238 1.50026C11.5149 1.46377 11.5004 1.43023 11.4813 1.40182C11.4622 1.37341 11.439 1.35075 11.413 1.33529C11.3871 1.31985 11.3591 1.31196 11.3308 1.31213V1.33836Z" fill="#1D1D1F"/>
        <path d="M12.4981 2.07264C12.4313 2.07264 12.366 2.04572 12.3105 1.99529C12.2549 1.94485 12.2117 1.87319 12.1861 1.78933C12.1606 1.70548 12.1539 1.6132 12.1669 1.52417C12.1799 1.43515 12.2121 1.35338 12.2593 1.2892C12.3065 1.22501 12.3667 1.18131 12.4322 1.1636C12.4977 1.1459 12.5656 1.15498 12.6273 1.18972C12.6889 1.22446 12.7418 1.28327 12.7788 1.35874C12.8159 1.43422 12.8357 1.52294 12.8357 1.6137C12.8357 1.73542 12.8001 1.85214 12.7369 1.93822C12.6735 2.02428 12.5876 2.07264 12.4981 2.07264ZM12.4981 1.33836C12.4491 1.34859 12.4044 1.38232 12.3722 1.43343C12.34 1.48454 12.3222 1.54965 12.3222 1.61699C12.3222 1.68432 12.34 1.74944 12.3722 1.80055C12.4044 1.85166 12.4491 1.88537 12.4981 1.89562C12.5276 1.9018 12.5578 1.89921 12.5865 1.88806C12.6153 1.87689 12.6419 1.85741 12.6647 1.83094C12.6873 1.80448 12.7056 1.77166 12.7181 1.73473C12.7306 1.6978 12.7371 1.65764 12.7371 1.61699C12.7371 1.57634 12.7306 1.53618 12.7181 1.49925C12.7056 1.46231 12.6873 1.42949 12.6647 1.40302C12.6419 1.37657 12.6153 1.35708 12.5865 1.34592C12.5578 1.33475 12.5276 1.33217 12.4981 1.33836Z" fill="#1D1D1F"/>
        <path d="M4.65946 4.45052C4.81132 4.45052 4.93441 4.2832 4.93441 4.07682C4.93441 3.87044 4.81132 3.70312 4.65946 3.70312C4.50762 3.70312 4.38452 3.87044 4.38452 4.07682C4.38452 4.2832 4.50762 4.45052 4.65946 4.45052Z" fill="#1D1D1F"/>
        <path d="M2.57573 16.6972C2.72758 16.6972 2.85068 16.5297 2.85068 16.3234C2.85068 16.117 2.72758 15.9497 2.57573 15.9497C2.42389 15.9497 2.30078 16.117 2.30078 16.3234C2.30078 16.5297 2.42389 16.6972 2.57573 16.6972Z" fill="#1D1D1F"/>
        <path d="M4.24966 10.0578H4.20143C4.18621 10.0493 4.17245 10.0367 4.16097 10.0207C4.14949 10.0047 4.14053 9.98563 4.13465 9.96475C4.12878 9.94388 4.12612 9.92159 4.12682 9.89926C4.12752 9.87692 4.13157 9.85502 4.13872 9.83489L4.78509 7.75664C4.79781 7.71816 4.82095 7.68783 4.8497 7.67196C4.87845 7.65609 4.91059 7.6559 4.93944 7.6714C4.95433 7.67846 4.96794 7.68975 4.97936 7.70451C4.99078 7.71927 4.99977 7.73718 5.0057 7.75703C5.01164 7.77688 5.01438 7.79822 5.01377 7.81963C5.01316 7.84104 5.0092 7.86203 5.00215 7.8812L4.34131 9.9529C4.33453 9.98009 4.32241 10.0042 4.30626 10.0227C4.29009 10.0412 4.27053 10.0533 4.24966 10.0578Z" fill="#1D1D1F"/>
        <path d="M5.10817 9.05239H5.05993C5.03163 9.03509 5.00931 9.00364 4.99764 8.96458C4.98596 8.92551 4.98581 8.88182 4.99722 8.84259L5.34453 7.72806C5.35724 7.6896 5.38038 7.65928 5.40913 7.6434C5.43788 7.62753 5.47003 7.62732 5.49888 7.64284C5.52719 7.66013 5.5495 7.69158 5.56118 7.73066C5.57286 7.76973 5.57301 7.81342 5.56159 7.85263L5.21428 8.96716C5.20387 8.99302 5.18852 9.01459 5.16984 9.0296C5.15117 9.04459 5.12986 9.05247 5.10817 9.05239Z" fill="#1D1D1F"/>
        <path opacity="0.6" d="M7.37072 9.48719C7.62913 9.48719 7.83861 9.20247 7.83861 8.85126C7.83861 8.50004 7.62913 8.21533 7.37072 8.21533C7.11231 8.21533 6.90283 8.50004 6.90283 8.85126C6.90283 9.20247 7.11231 9.48719 7.37072 9.48719Z" fill="#8647EA"/>
        <path d="M12.4546 23.9492H9.025C8.66807 23.9492 8.32575 23.7564 8.07337 23.4134C7.82098 23.0704 7.6792 22.6052 7.6792 22.12V1.82914C7.6792 1.34402 7.82098 0.878769 8.07337 0.53574C8.32575 0.192711 8.66807 0 9.025 0H12.4546C12.4968 0 12.5373 0.0227933 12.5671 0.0633665C12.5971 0.10394 12.6138 0.15897 12.6138 0.216349C12.6138 0.273728 12.5971 0.328757 12.5671 0.369331C12.5373 0.409904 12.4968 0.432698 12.4546 0.432698H9.025C8.7525 0.432698 8.49117 0.579822 8.29849 0.841704C8.10581 1.10359 7.99756 1.45878 7.99756 1.82914V22.1528C7.99756 22.5232 8.10581 22.8784 8.29849 23.1403C8.49117 23.4022 8.7525 23.5492 9.025 23.5492H12.4546C12.4968 23.5492 12.5373 23.572 12.5671 23.6126C12.5971 23.6532 12.6138 23.7082 12.6138 23.7656C12.6138 23.823 12.5971 23.878 12.5671 23.9185C12.5373 23.9591 12.4968 23.9819 12.4546 23.9819V23.9492Z" fill="#1D1D1F"/>
        <path d="M30.6541 23.9492H7.983C7.62608 23.9492 7.28377 23.7564 7.03138 23.4134C6.77899 23.0704 6.63721 22.6052 6.63721 22.12V1.82914C6.63719 1.34741 6.77698 0.885113 7.02625 0.542645C7.27552 0.200175 7.61412 0.00517952 7.96853 0H30.6396C30.9966 0 31.3389 0.192711 31.5913 0.53574C31.8437 0.878769 31.9854 1.34402 31.9854 1.82914V22.1528C31.9792 22.6288 31.8367 23.0828 31.588 23.4182C31.3394 23.7537 31.0044 23.9442 30.6541 23.9492ZM7.96853 0.432698C7.69603 0.432698 7.43471 0.579822 7.24202 0.841704C7.04934 1.10359 6.9411 1.45878 6.9411 1.82914V22.1528C6.9411 22.5232 7.04934 22.8784 7.24202 23.1403C7.43471 23.4022 7.69603 23.5492 7.96853 23.5492H30.6396C30.9122 23.5492 31.1735 23.4022 31.3662 23.1403C31.5588 22.8784 31.6671 22.5232 31.6671 22.1528V1.82914C31.6672 1.46215 31.5608 1.10992 31.3713 0.848593C31.1817 0.587269 30.9241 0.437867 30.6541 0.432698H7.96853Z" fill="#1D1D1F"/>
        <path opacity="0.6" d="M0.709171 19.1763H0.704347C0.440609 19.1763 0.226807 19.4669 0.226807 19.8254V23.8638C0.226807 24.2223 0.440609 24.5129 0.704347 24.5129H0.709171C0.97291 24.5129 1.18671 24.2223 1.18671 23.8638V19.8254C1.18671 19.4669 0.97291 19.1763 0.709171 19.1763Z" fill="#8647EA"/>
        <path d="M21.5376 31.9988H1.73169C1.27242 31.9988 0.831954 31.7508 0.507199 31.3094C0.182445 30.8681 0 30.2694 0 29.6452V6.11559C0 5.49136 0.182445 4.89272 0.507199 4.45133C0.831954 4.00994 1.27242 3.76196 1.73169 3.76196H3.81068C3.83855 3.76196 3.86615 3.76943 3.8919 3.78393C3.91765 3.79842 3.94105 3.81967 3.96076 3.84646C3.98046 3.87325 3.99609 3.90505 4.00677 3.94004C4.01743 3.97505 4.02292 4.01255 4.02292 4.05043C4.02292 4.12694 4.00056 4.20031 3.96076 4.25441C3.92095 4.3085 3.86697 4.33889 3.81068 4.33889H1.73169C1.385 4.33889 1.0525 4.52609 0.807353 4.85927C0.562203 5.19247 0.42448 5.64438 0.42448 6.11559V29.6452C0.42448 30.1164 0.562203 30.5683 0.807353 30.9014C1.0525 31.2347 1.385 31.4219 1.73169 31.4219H21.5376C21.5938 31.4219 21.6478 31.4523 21.6876 31.5063C21.7275 31.5604 21.7498 31.6338 21.7498 31.7104C21.7498 31.7869 21.7275 31.8601 21.6876 31.9143C21.6478 31.9684 21.5938 31.9988 21.5376 31.9988Z" fill="#1D1D1F"/>
        <path d="M2.7302 31.894C2.29139 31.894 1.87056 31.6571 1.56028 31.2354C1.25 30.8137 1.07569 30.2417 1.07569 29.6452V6.11567C1.07505 5.82012 1.11741 5.52733 1.20033 5.2541C1.28325 4.98088 1.4051 4.73265 1.55886 4.52366C1.71262 4.31468 1.89526 4.14907 2.09629 4.03637C2.29731 3.92367 2.51275 3.8661 2.7302 3.86695C2.74793 3.86695 2.7655 3.8717 2.78188 3.88093C2.79827 3.89015 2.81316 3.90368 2.82569 3.92072C2.83824 3.93778 2.84819 3.95801 2.85497 3.98028C2.86176 4.00255 2.86526 4.02642 2.86526 4.05053C2.86406 4.09869 2.84944 4.14444 2.82437 4.17852C2.79929 4.21259 2.76564 4.23246 2.7302 4.2341C2.54822 4.23323 2.36791 4.2813 2.19966 4.37556C2.03142 4.46981 1.87854 4.60837 1.74987 4.78327C1.62119 4.95816 1.51924 5.16592 1.44989 5.39461C1.38055 5.62328 1.34517 5.86834 1.34581 6.11567V29.6452C1.34581 30.1443 1.49167 30.6229 1.75128 30.9757C2.01091 31.3286 2.36303 31.5268 2.7302 31.5268C2.74793 31.5268 2.7655 31.5316 2.78188 31.5408C2.79827 31.55 2.81316 31.5636 2.82569 31.5805C2.83824 31.5976 2.84819 31.6179 2.85497 31.6401C2.86176 31.6624 2.86526 31.6862 2.86526 31.7104C2.86406 31.7586 2.84944 31.8043 2.82437 31.8383C2.79929 31.8725 2.76564 31.8923 2.7302 31.894Z" fill="#1D1D1F"/>
        <path d="M17.3796 5.65186H10.3467C10.1069 5.65186 9.9126 5.91603 9.9126 6.24191V14.2402C9.9126 14.5661 10.1069 14.8303 10.3467 14.8303H17.3796C17.6193 14.8303 17.8137 14.5661 17.8137 14.2402V6.24191C17.8137 5.91603 17.6193 5.65186 17.3796 5.65186Z" fill="#B29FBF"/>
        <path d="M17.7124 6.20743V14.1992C17.7124 14.3574 17.6661 14.5092 17.5838 14.6212C17.5015 14.7329 17.3898 14.7958 17.2734 14.7958H12.9949C15.2895 12.6794 16.9309 9.48935 17.6062 5.83374C17.6745 5.93612 17.7123 6.06929 17.7124 6.20743Z" fill="#7C6887"/>
        <path d="M17.3652 15.0776H10.3468C10.1958 15.0776 10.0511 14.996 9.9443 14.851C9.83755 14.706 9.77759 14.5091 9.77759 14.3039V6.29252C9.77759 6.08735 9.83755 5.89057 9.9443 5.74549C10.0511 5.60041 10.1958 5.51891 10.3468 5.51891H17.3652C17.4409 5.51717 17.5163 5.53586 17.5867 5.57387C17.6571 5.61189 17.7213 5.66849 17.7756 5.74042C17.8298 5.81234 17.8732 5.89816 17.9028 5.99292C17.9326 6.08769 17.9482 6.1895 17.9488 6.29252V14.2843C17.9501 14.389 17.936 14.4929 17.9071 14.59C17.8782 14.687 17.8352 14.7752 17.7808 14.8492C17.7263 14.9232 17.6614 14.9815 17.5901 15.0209C17.5187 15.0601 17.4422 15.0793 17.3652 15.0776ZM10.3468 5.89916C10.3075 5.89916 10.2686 5.90966 10.2324 5.9301C10.196 5.95053 10.1631 5.98046 10.1353 6.01821C10.1076 6.05595 10.0855 6.10077 10.0704 6.15007C10.0555 6.19939 10.0477 6.25225 10.0477 6.30563V14.2843C10.0477 14.3377 10.0555 14.3905 10.0704 14.4399C10.0855 14.4891 10.1076 14.5341 10.1353 14.5718C10.1631 14.6095 10.196 14.6395 10.2324 14.6598C10.2686 14.6803 10.3075 14.6908 10.3468 14.6908H17.3652C17.4449 14.6908 17.5215 14.6482 17.5784 14.5722C17.6352 14.4961 17.6678 14.3927 17.669 14.2843V6.29252C17.6653 6.18642 17.6317 6.08634 17.5751 6.01309C17.5185 5.93984 17.4433 5.89904 17.3652 5.89916H10.3468Z" fill="#1D1D1F"/>
    </g>
</svg>