<svg width="64" height="64" viewBox="0 0 64 64" fill="none" xmlns="http://www.w3.org/2000/svg">
<g id="Illustration - Asset 38">
<g id="Asset 38">
<g id="Clip path group">
<mask id="mask0_408_1433" style="mask-type:luminance" maskUnits="userSpaceOnUse" x="0" y="0" width="64" height="64">
<g id="clip0_3_49762">
<path id="Vector" d="M64 0H0V64H64V0Z" fill="white"/>
</g>
</mask>
<g mask="url(#mask0_408_1433)">
<g id="Asset 38_2">
<g id="Layer 2">
<g id="Layer 1">
<path id="Vector_2" opacity="0.4" d="M31.5748 53.7346H27.2925V57.2822H31.5748V53.7346Z" fill="#C9D2DF"/>
<path id="Vector_2_2" d="M31.585 63.9994C31.4427 63.9994 31.3063 63.9315 31.2056 63.8108C31.105 63.6901 31.0484 63.5262 31.0484 63.3555V53.7336C31.0199 53.6365 31.0113 53.5327 31.0233 53.4309C31.0352 53.3288 31.0673 53.2317 31.1167 53.1478C31.1664 53.0638 31.232 52.9954 31.3082 52.9481C31.3843 52.9009 31.4689 52.8762 31.5546 52.8762C31.6403 52.8762 31.7249 52.9009 31.801 52.9481C31.8772 52.9954 31.9428 53.0638 31.9925 53.1478C32.0419 53.2317 32.0742 53.3288 32.0859 53.4309C32.0978 53.5327 32.0893 53.6365 32.0608 53.7336V63.3555C32.0639 63.5151 32.0168 63.6703 31.9284 63.7897C31.8402 63.9091 31.7174 63.984 31.585 63.9994Z" fill="#3E3126"/>
<path id="Vector_3" d="M27.3334 63.9994C27.2635 63.9994 27.1941 63.9828 27.1296 63.9501C27.0651 63.9177 27.0066 63.8702 26.9576 63.8101C26.9086 63.7502 26.87 63.6791 26.8442 63.6009C26.8183 63.5229 26.8057 63.4395 26.8069 63.3555V53.7336C26.7787 53.6365 26.7699 53.5327 26.7818 53.4309C26.7937 53.3288 26.8258 53.2317 26.8754 53.1478C26.9249 53.0638 26.9905 52.9954 27.0667 52.9481C27.143 52.9009 27.2274 52.8762 27.3131 52.8762C27.399 52.8762 27.4834 52.9009 27.5597 52.9481C27.6357 52.9954 27.7013 53.0638 27.751 53.1478C27.8006 53.2317 27.8327 53.3288 27.8446 53.4309C27.8564 53.5327 27.8478 53.6365 27.8193 53.7336V63.3555C27.8199 63.5162 27.7705 63.6715 27.6806 63.7907C27.5905 63.9096 27.4667 63.9843 27.3334 63.9994Z" fill="#3E3126"/>
<path id="Vector_4" d="M3.36112 21.8688V6.43976H60.6494V49.9326C60.6494 51.0281 60.2868 52.0788 59.6413 52.8534C58.9958 53.628 58.1203 54.0632 57.2074 54.0632H8.70626C7.93379 54.065 7.1688 53.8812 6.45636 53.5229C5.74391 53.1646 5.09842 52.6389 4.55788 51.9767C4.01733 51.3144 3.59269 50.529 3.30891 49.6666C3.02513 48.8045 2.88799 47.8828 2.90555 46.956L3.36112 21.8688Z" fill="white"/>
<path id="Vector_5" opacity="0.4" d="M60.5986 28.0277C57.7898 33.0423 54.1079 37.266 49.807 40.4072C49.7502 40.2099 49.6371 40.0427 49.4877 39.9356C49.3383 39.8282 49.1621 39.7877 48.9903 39.8212C48.8183 39.8546 48.6618 39.9597 48.5483 40.1181C48.4347 40.2765 48.3714 40.4779 48.3695 40.6868C48.3758 40.9196 48.4554 41.1409 48.5923 41.3063C47.762 41.8773 46.9116 42.4241 46.0411 42.9222C45.7899 42.4478 45.4189 42.082 44.9825 41.8786C44.5459 41.6749 44.0665 41.6442 43.6142 41.7906C43.1621 41.9371 42.7607 42.2534 42.4688 42.6929C42.177 43.1324 42.0098 43.6725 41.9918 44.2341C41.9918 44.4644 42.019 44.6935 42.0726 44.9145C41.1919 45.3032 40.291 45.6433 39.3899 45.9715C39.1924 45.7037 38.9466 45.4935 38.6711 45.3567C38.3958 45.22 38.0981 45.1601 37.8006 45.1817C36.7883 45.1817 36.029 45.7892 36.029 46.5424C36.0315 46.6961 36.0663 46.8467 36.1302 46.9799C25.101 49.6933 13.678 48.9951 2.93566 44.9509V46.8947C2.91268 47.8232 3.04475 48.7477 3.32405 49.6138C3.60336 50.48 4.02428 51.2702 4.56199 51.9382C5.09971 52.6062 5.74337 53.1382 6.45507 53.5031C7.16676 53.8679 7.93208 54.0582 8.70599 54.0625H57.2071C58.1199 54.0625 58.9955 53.6275 59.6409 52.8529C60.2864 52.0782 60.6491 51.0276 60.6491 49.9321L60.5986 28.0277Z" fill="#C9D2DF"/>
<path id="Vector_6" opacity="0.6" d="M60.3658 6.13632H3.91772V12.4537H60.3658V6.13632Z" fill="#C9D2DF"/>
<path id="Vector_7" d="M57.2074 54.6691H19.6293C19.487 54.6691 19.3505 54.6013 19.2499 54.4806C19.1493 54.3599 19.0928 54.196 19.0928 54.0252C19.0928 53.8545 19.1493 53.6909 19.2499 53.5699C19.3505 53.4492 19.487 53.3814 19.6293 53.3814H57.2074C57.978 53.3814 58.7169 53.014 59.2619 52.3601C59.8066 51.7064 60.1129 50.8194 60.1129 49.8946V7.08225H3.88743V21.8674C3.91588 21.9645 3.92451 22.0683 3.91261 22.1702C3.90071 22.2721 3.86864 22.3692 3.81907 22.4531C3.7695 22.5371 3.70388 22.6056 3.62771 22.6529C3.55153 22.7001 3.46702 22.7248 3.38127 22.7248C3.29551 22.7248 3.211 22.7001 3.13482 22.6529C3.05865 22.6056 2.99303 22.5371 2.94346 22.4531C2.89387 22.3692 2.8618 22.2721 2.84992 22.1702C2.83802 22.0683 2.84665 21.9645 2.8751 21.8674V6.43839C2.8751 6.26762 2.93162 6.10384 3.03225 5.98309C3.13285 5.86233 3.26933 5.79449 3.41162 5.79449H60.6492C60.7917 5.79449 60.9281 5.86233 61.0286 5.98309C61.1294 6.10384 61.1857 6.26762 61.1857 6.43839V49.9311C61.1753 51.19 60.7517 52.3933 60.0071 53.28C59.2623 54.1671 58.2564 54.6661 57.2074 54.6691Z" fill="#3E3126"/>
<path id="Vector_8" d="M14.2741 54.6676H6.79293C5.74476 54.6646 4.73999 54.165 3.99691 53.278C3.25386 52.3907 2.83257 51.1874 2.82456 49.9295V29.155C2.79611 29.058 2.78748 28.9541 2.79938 28.8523C2.81126 28.7505 2.84335 28.6534 2.89292 28.5695C2.94249 28.4855 3.00811 28.4168 3.08429 28.3696C3.16046 28.3223 3.24498 28.2977 3.33073 28.2977C3.41648 28.2977 3.50099 28.3223 3.57717 28.3696C3.65335 28.4168 3.71896 28.4855 3.76853 28.5695C3.8181 28.6534 3.8502 28.7505 3.86208 28.8523C3.87398 28.9541 3.86534 29.058 3.83689 29.155V49.9295C3.83279 50.3957 3.90658 50.858 4.05392 51.2892C4.20129 51.7207 4.41919 52.1121 4.69478 52.4405C4.97038 52.7691 5.29805 53.0278 5.65842 53.2018C6.01881 53.3755 6.40457 53.461 6.79293 53.4527H14.2741C14.4164 53.4527 14.5529 53.5206 14.6535 53.6413C14.7541 53.7622 14.8107 53.9259 14.8107 54.0966C14.8107 54.2673 14.7541 54.4312 14.6535 54.5519C14.5529 54.6726 14.4164 54.7405 14.2741 54.7405V54.6676Z" fill="#3E3126"/>
<path id="Vector_9" d="M18.3131 17.2646L19.1129 19.2206L20.9249 19.5486L19.619 21.0672L19.9227 23.2297L18.3131 22.2092L16.6934 23.2297L16.9971 21.0672L15.6912 19.5486L17.5032 19.2206L18.3131 17.2646Z" fill="#FF9C01"/>
<path id="Vector_10" d="M25.0453 17.2646L25.8452 19.2206L27.6572 19.5486L26.3513 21.0672L26.6549 23.2297L25.0453 22.2092L23.4256 23.2297L23.7394 21.0672L22.4336 19.5486L24.2356 19.2206L25.0453 17.2646Z" fill="#FF9C01"/>
<path id="Vector_11" d="M31.7772 17.2646L32.5769 19.2206L34.3889 19.5486L33.0831 21.0672L33.3869 23.2297L31.7772 22.2092L30.1573 23.2297L30.4712 21.0672L29.1553 19.5486L30.9673 19.2206L31.7772 17.2646Z" fill="#FF9C01"/>
<path id="Vector_12" d="M38.5094 17.2646L39.3194 19.2206L41.1213 19.5486L39.8155 21.0672L40.119 23.2297L38.5094 22.2092L36.8897 23.2297L37.2036 21.0672L35.8977 19.5486L37.6997 19.2206L38.5094 17.2646Z" fill="#FF9C01"/>
<path id="Vector_13" d="M45.2413 17.2646L46.0512 19.2206L47.8532 19.5486L46.5472 21.0672L46.8509 23.2297L45.2413 22.2092L43.6216 23.2297L43.9355 21.0672L42.6294 19.5486L44.4314 19.2206L45.2413 17.2646Z" fill="#FF9C01"/>
<path id="Vector_14" d="M6.84365 18.7922H6.75253C6.68872 18.7622 6.63716 18.7036 6.60879 18.6287C6.58045 18.5539 6.57753 18.4687 6.60068 18.3913L8.00785 14.3943C8.0367 14.319 8.08824 14.2597 8.15209 14.2281C8.21593 14.1966 8.28737 14.1952 8.35203 14.2242C8.41465 14.2587 8.4635 14.3213 8.48812 14.3985C8.51272 14.4758 8.51112 14.5615 8.48364 14.6373L7.08661 18.5978C7.0678 18.6564 7.03436 18.7065 6.99085 18.7413C6.94733 18.7761 6.89592 18.7939 6.84365 18.7922Z" fill="#3E3126"/>
<path id="Vector_15" d="M8.72639 16.8619H8.62515C8.59362 16.8472 8.56486 16.8251 8.54055 16.7968C8.51627 16.7685 8.49693 16.7347 8.48374 16.6973C8.47052 16.66 8.46369 16.6198 8.46362 16.5792C8.46358 16.5386 8.47031 16.4984 8.48342 16.461L9.24269 14.3106C9.25472 14.2727 9.2732 14.2383 9.29695 14.2094C9.32071 14.1806 9.34922 14.158 9.38067 14.1432C9.41212 14.1283 9.44579 14.1215 9.47956 14.1231C9.51331 14.1248 9.54641 14.1348 9.57675 14.1527C9.6109 14.167 9.64207 14.1899 9.6682 14.2199C9.69432 14.2499 9.71479 14.2863 9.72822 14.3266C9.74165 14.3669 9.74775 14.4102 9.74605 14.4535C9.74437 14.4969 9.73497 14.5393 9.71848 14.5779L8.95923 16.7282C8.93398 16.7735 8.89904 16.8098 8.85808 16.8334C8.8171 16.8569 8.77162 16.8667 8.72639 16.8619Z" fill="#3E3126"/>
<path id="Vector_16" d="M16.987 54.8876C17.3113 54.8876 17.5742 54.5721 17.5742 54.1829C17.5742 53.7937 17.3113 53.4781 16.987 53.4781C16.6628 53.4781 16.3999 53.7937 16.3999 54.1829C16.3999 54.5721 16.6628 54.8876 16.987 54.8876Z" fill="#3E3126"/>
<path id="Vector_17" d="M3.36133 26.1195C3.6856 26.1195 3.94849 25.8039 3.94849 25.4147C3.94849 25.0256 3.6856 24.7101 3.36133 24.7101C3.03706 24.7101 2.77417 25.0256 2.77417 25.4147C2.77417 25.8039 3.03706 26.1195 3.36133 26.1195Z" fill="#3E3126"/>
<path id="Vector_18" d="M60.6488 0.450806H3.36056C1.80067 0.450806 0.536133 1.96834 0.536133 3.84033C0.536133 5.7123 1.80067 7.22985 3.36056 7.22985H60.6488C62.2088 7.22985 63.4734 5.7123 63.4734 3.84033C63.4734 1.96834 62.2088 0.450806 60.6488 0.450806Z" fill="#6AE184"/>
<path id="Vector_19" d="M62.9979 4.02132C63.0048 4.4728 62.9346 4.92119 62.7917 5.339C62.6491 5.75679 62.4368 6.13523 62.1678 6.45107C61.6294 7.09156 60.9014 7.44979 60.1432 7.44728L1.82228 6.92487C1.06303 6.92487 1.17438 5.39414 0.668213 4.85959C24.7214 6.54827 55.0409 7.98183 61.7528 1.21494C62.137 1.52332 62.4517 1.9409 62.669 2.43052C62.8862 2.92015 62.9992 3.46661 62.9979 4.02132Z" fill="#389D9C"/>
<path id="Vector_20" d="M53.2589 6.14703C53.7342 6.14703 54.1193 5.68469 54.1193 5.11437C54.1193 4.54407 53.7342 4.08173 53.2589 4.08173C52.7837 4.08173 52.3984 4.54407 52.3984 5.11437C52.3984 5.68469 52.7837 6.14703 53.2589 6.14703Z" fill="#389D9C"/>
<path id="Vector_21" d="M55.9622 4.80006C56.1244 4.80006 56.2557 4.64232 56.2557 4.44775C56.2557 4.25317 56.1244 4.09543 55.9622 4.09543C55.8001 4.09543 55.6687 4.25317 55.6687 4.44775C55.6687 4.64232 55.8001 4.80006 55.9622 4.80006Z" fill="#389D9C"/>
<path id="Vector_22" d="M50.6575 6.13631C50.8921 6.13631 51.0826 5.90787 51.0826 5.62605C51.0826 5.34426 50.8921 5.11581 50.6575 5.11581C50.4226 5.11581 50.2322 5.34426 50.2322 5.62605C50.2322 5.90787 50.4226 6.13631 50.6575 6.13631Z" fill="#389D9C"/>
<path id="Vector_23" opacity="0.45" d="M48.3696 5.11266C48.5261 5.11266 48.6531 4.96035 48.6531 4.77249C48.6531 4.58462 48.5261 4.43231 48.3696 4.43231C48.2129 4.43231 48.0862 4.58462 48.0862 4.77249C48.0862 4.96035 48.2129 5.11266 48.3696 5.11266Z" fill="#389D9C"/>
<path id="Vector_24" opacity="0.45" d="M50.161 4.33801C50.4406 4.33801 50.6673 4.06605 50.6673 3.73057C50.6673 3.3951 50.4406 3.12314 50.161 3.12314C49.8815 3.12314 49.6548 3.3951 49.6548 3.73057C49.6548 4.06605 49.8815 4.33801 50.161 4.33801Z" fill="#389D9C"/>
<path id="Vector_25" opacity="0.45" d="M51.9737 3.03752C52.214 3.03752 52.4088 2.80365 52.4088 2.51514C52.4088 2.22662 52.214 1.99274 51.9737 1.99274C51.7332 1.99274 51.5383 2.22662 51.5383 2.51514C51.5383 2.80365 51.7332 3.03752 51.9737 3.03752Z" fill="#389D9C"/>
<path id="Vector_26" opacity="0.4" d="M47.256 40.2609C47.4739 40.2609 47.6507 40.0487 47.6507 39.7869C47.6507 39.5252 47.4739 39.3133 47.256 39.3133C47.0379 39.3133 46.8611 39.5252 46.8611 39.7869C46.8611 40.0487 47.0379 40.2609 47.256 40.2609Z" fill="#C9D2DF"/>
<path id="Vector_27" opacity="0.4" d="M38.9044 42.4588C39.2285 42.4588 39.4914 42.1433 39.4914 41.7541C39.4914 41.3652 39.2285 41.0496 38.9044 41.0496C38.5801 41.0496 38.3171 41.3652 38.3171 41.7541C38.3171 42.1433 38.5801 42.4588 38.9044 42.4588Z" fill="#C9D2DF"/>
<path id="Vector_28" opacity="0.4" d="M43.1355 39.3231C43.2866 39.3231 43.4089 39.176 43.4089 38.995C43.4089 38.8137 43.2866 38.6669 43.1355 38.6669C42.9847 38.6669 42.8623 38.8137 42.8623 38.995C42.8623 39.176 42.9847 39.3231 43.1355 39.3231Z" fill="#C9D2DF"/>
<path id="Vector_29" d="M18.0198 0.702209H2.22734C1.60113 0.702209 1.09351 1.3114 1.09351 2.06288V2.07503C1.09351 2.8265 1.60113 3.4357 2.22734 3.4357H18.0198C18.646 3.4357 19.1536 2.8265 19.1536 2.07503V2.06288C19.1536 1.3114 18.646 0.702209 18.0198 0.702209Z" fill="#C0FFCC"/>
<path id="Vector_30" d="M60.6492 8.11775H3.36102C2.90483 8.14782 2.44829 8.06596 2.01933 7.87716C1.59038 7.68835 1.19801 7.39657 0.866188 7.01964C0.534371 6.64271 0.270075 6.18856 0.0894542 5.68491C-0.0911691 5.18126 -0.184326 4.63872 -0.184326 4.09039C-0.184326 3.54209 -0.0911691 2.99955 0.0894542 2.4959C0.270075 1.99226 0.534371 1.5381 0.866188 1.16117C1.19801 0.784239 1.59038 0.492461 2.01933 0.303658C2.44829 0.114855 2.90483 0.0329929 3.36102 0.0630738H21.7451C21.8211 0.050465 21.8984 0.0575365 21.9718 0.0838116C22.0453 0.110087 22.1132 0.154956 22.171 0.215394C22.2288 0.275833 22.2751 0.35044 22.307 0.434186C22.3388 0.517933 22.3552 0.608877 22.3552 0.700888C22.3552 0.792898 22.3388 0.88384 22.307 0.967586C22.2751 1.05133 22.2288 1.12594 22.171 1.18638C22.1132 1.24682 22.0453 1.29169 21.9718 1.31796C21.8984 1.34424 21.8211 1.35131 21.7451 1.3387H3.36102C2.75425 1.3387 2.17231 1.62797 1.74325 2.14288C1.31419 2.65779 1.07314 3.35614 1.07314 4.08433C1.07314 4.81253 1.31419 5.51088 1.74325 6.02579C2.17231 6.5407 2.75425 6.82997 3.36102 6.82997H60.6492C60.9497 6.82997 61.2474 6.75894 61.5248 6.62096C61.8024 6.48298 62.0546 6.28073 62.267 6.02579C62.4795 5.77082 62.6481 5.46816 62.7632 5.13503C62.878 4.80192 62.9373 4.4449 62.9373 4.08433C62.9373 3.72377 62.878 3.36673 62.7632 3.03362C62.6481 2.70051 62.4795 2.39783 62.267 2.14288C62.0546 1.88792 61.8024 1.68568 61.5248 1.5477C61.2474 1.40972 60.9497 1.3387 60.6492 1.3387H26.3209C26.1847 1.33241 26.0561 1.26309 25.9616 1.14529C25.8673 1.02749 25.8145 0.870381 25.8147 0.706962C25.812 0.541451 25.8635 0.381255 25.958 0.260838C26.0527 0.140422 26.183 0.0694079 26.3209 0.0630738H60.6492C61.5076 0.119659 62.315 0.568632 62.9058 1.31769C63.4966 2.06676 63.826 3.05899 63.826 4.09039C63.826 5.12183 63.4966 6.11407 62.9058 6.86313C62.315 7.61219 61.5076 8.06115 60.6492 8.11775Z" fill="#3E3126"/>
<path id="Vector_31" d="M24.0428 1.40926C24.3672 1.40926 24.6301 1.09379 24.6301 0.70463C24.6301 0.315474 24.3672 0 24.0428 0C23.7185 0 23.4558 0.315474 23.4558 0.70463C23.4558 1.09379 23.7185 1.40926 24.0428 1.40926Z" fill="#3E3126"/>
<path id="Vector_32" d="M50.6979 24.9295C50.6572 24.9311 50.6166 24.9229 50.5787 24.9053C50.5405 24.8877 50.506 24.8611 50.4766 24.8271C50.4473 24.7931 50.424 24.7524 50.4081 24.7073C50.3922 24.6623 50.384 24.6139 50.384 24.565V8.05477C50.384 7.95488 50.4171 7.85908 50.476 7.78846C50.5349 7.71784 50.6147 7.67816 50.6979 7.67816C50.7813 7.67816 50.8611 7.71784 50.9199 7.78846C50.9786 7.85908 51.0117 7.95488 51.0117 8.05477V24.565C51.0117 24.6139 51.0035 24.6623 50.9878 24.7073C50.9719 24.7524 50.9487 24.7931 50.9193 24.8271C50.89 24.8611 50.8552 24.8877 50.8173 24.9053C50.7792 24.9229 50.7387 24.9311 50.6979 24.9295Z" fill="#3E3126"/>
<path id="Vector_33" d="M50.6982 31.6821C50.0975 31.6821 49.5103 31.4684 49.0108 31.0679C48.5114 30.6674 48.1221 30.0982 47.8923 29.4321C47.6625 28.7664 47.6023 28.0335 47.7194 27.3265C47.8368 26.6195 48.1259 25.9701 48.5506 25.4604C48.9754 24.9506 49.5166 24.6035 50.1057 24.4629C50.6948 24.3223 51.3053 24.3944 51.8603 24.6703C52.4153 24.9461 52.8896 25.4132 53.2234 26.0125C53.5571 26.6119 53.7352 27.3167 53.7352 28.0375C53.7352 29.0042 53.4153 29.9312 52.8456 30.6146C52.2762 31.2982 51.5035 31.6821 50.6982 31.6821ZM50.6982 25.1218C50.2172 25.1218 49.747 25.293 49.3473 25.614C48.9476 25.9349 48.636 26.3909 48.4525 26.9245C48.269 27.458 48.2214 28.0448 48.3159 28.6107C48.4106 29.1767 48.6429 29.6961 48.9838 30.1034C49.3245 30.5107 49.7584 30.7876 50.2304 30.8987C50.7024 31.0098 51.1912 30.9502 51.6349 30.7277C52.0786 30.5052 52.4574 30.1296 52.7233 29.6486C52.9889 29.1674 53.1297 28.6024 53.1278 28.0254C53.1278 27.643 53.0648 27.2644 52.9426 26.9114C52.8205 26.5584 52.6414 26.2376 52.4155 25.9678C52.1899 25.698 51.9219 25.4846 51.6271 25.3392C51.3324 25.1942 51.0166 25.1203 50.6982 25.1218Z" fill="#3E3126"/>
<path id="Vector_34" d="M44.5531 27.5063H25.0554C24.8989 27.5063 24.772 27.6584 24.772 27.8464V29.049C24.772 29.237 24.8989 29.3892 25.0554 29.3892H44.5531C44.7096 29.3892 44.8365 29.237 44.8365 29.049V27.8464C44.8365 27.6584 44.7096 27.5063 44.5531 27.5063Z" fill="#C9D2DF"/>
<path id="Vector_35" d="M44.5531 31.7814H25.0554C24.8989 31.7814 24.772 31.9335 24.772 32.1216V33.3242C24.772 33.512 24.8989 33.6643 25.0554 33.6643H44.5531C44.7096 33.6643 44.8365 33.512 44.8365 33.3242V32.1216C44.8365 31.9335 44.7096 31.7814 44.5531 31.7814Z" fill="#C9D2DF"/>
<path id="Vector_36" d="M44.5531 36.0476H25.0554C24.8989 36.0476 24.772 36.2 24.772 36.3878V37.5906C24.772 37.7784 24.8989 37.9308 25.0554 37.9308H44.5531C44.7096 37.9308 44.8365 37.7784 44.8365 37.5906V36.3878C44.8365 36.2 44.7096 36.0476 44.5531 36.0476Z" fill="#C9D2DF"/>
<path id="Vector_37" d="M20.9047 33.6058C20.8115 33.3539 20.6772 33.1266 20.51 32.9375C20.3527 32.756 20.1756 32.6006 19.9836 32.4759C19.7973 32.3552 19.6046 32.2496 19.4065 32.1601L18.6675 31.7956C18.4612 31.6973 18.2723 31.5529 18.1107 31.3704C18.0412 31.2907 17.9864 31.1944 17.9497 31.0876C17.9131 30.981 17.8955 30.8663 17.8981 30.7509C17.8949 30.5747 17.9261 30.3997 17.9892 30.2405C18.0642 30.099 18.1738 29.9886 18.3031 29.9247C18.4739 29.8448 18.6564 29.8076 18.8396 29.8154C19.0316 29.8086 19.2212 29.8677 19.3863 29.9853C19.544 30.0977 19.6817 30.2463 19.7912 30.4228C19.9098 30.6144 20.0147 30.8175 20.105 31.0302L20.9755 30.3863C20.8607 30.0942 20.7107 29.8242 20.5302 29.5846C20.3288 29.3261 20.0883 29.1157 19.8216 28.9651C19.6452 28.8642 19.4577 28.7946 19.2648 28.7584V27.5435H18.3841V28.7584C18.156 28.8006 17.9343 28.8823 17.726 29.0015C17.432 29.1536 17.1794 29.402 16.9972 29.7181C16.817 30.0049 16.7209 30.3552 16.7238 30.7145C16.7165 31.0423 16.7756 31.3674 16.8959 31.6621C17.0001 31.9157 17.1445 32.1428 17.3211 32.3301C17.4903 32.5073 17.6773 32.6585 17.8779 32.7796C18.0516 32.8865 18.2308 32.9798 18.4144 33.0592C18.6675 33.1683 18.9003 33.29 19.1231 33.4115C19.3225 33.5326 19.5038 33.6928 19.6596 33.8851C19.8051 34.0772 19.8815 34.3304 19.8722 34.5899C19.8762 34.7923 19.8379 34.9929 19.7608 35.1729C19.6871 35.3321 19.5738 35.4593 19.4369 35.5375C19.2609 35.6262 19.0709 35.6677 18.8801 35.6589C18.6438 35.6657 18.4101 35.5986 18.2018 35.4646C17.9935 35.3286 17.8109 35.1425 17.6653 34.918C17.4868 34.6389 17.334 34.3374 17.2097 34.0189L16.3594 34.6869C16.4979 35.0814 16.6933 35.4432 16.9364 35.7562C17.1753 36.0672 17.4602 36.3227 17.7767 36.5095C17.9692 36.606 18.1693 36.6792 18.3739 36.728V37.9428H19.2344V36.728C19.5069 36.6993 19.7737 36.6173 20.024 36.4851C20.3346 36.3131 20.5954 36.034 20.7732 35.6833C20.9548 35.3162 21.0459 34.8951 21.0363 34.4684C21.0422 34.173 20.9973 33.8796 20.9047 33.6058Z" fill="#42CAF8"/>
</g>
</g>
</g>
</g>
</g>
</g>
</g>
</svg>
