<svg width="64" height="64" viewBox="0 0 64 64" fill="none" xmlns="http://www.w3.org/2000/svg">
<g id="Illustration - Asset 20" clip-path="url(#clip0_408_1365)">
<g id="Asset 20">
<g id="Clip path group">
<mask id="mask0_408_1365" style="mask-type:luminance" maskUnits="userSpaceOnUse" x="0" y="0" width="64" height="64">
<g id="clip0_3_49754">
<path id="Vector" d="M0 0H64V64H0V0Z" fill="white"/>
</g>
</mask>
<g mask="url(#mask0_408_1365)">
<g id="Asset 20_2">
<g id="Layer 2">
<g id="Layer 1">
<path id="Vector_2" d="M3.3772 38.708C5.63903 48.8427 9.89146 57.7218 15.7981 61.6239C16.5663 62.1307 17.3508 62.5606 18.1475 62.9114C22.3616 64.7708 26.9719 64.124 30.8565 60.736C32.5053 59.2969 34.0087 57.3954 35.6634 55.977C37.318 54.5586 39.2076 53.6302 41.0086 54.3303C42.5593 54.9332 43.8676 56.6608 45.1849 58.1998C48.2903 61.828 52.0242 64.6993 55.7013 63.4531C57.3933 62.8804 59.0595 61.2941 59.8452 58.6424C61.5821 52.7802 58.3065 45.8104 58.9699 39.3272C59.3944 35.1779 61.3332 32.0706 62.5385 28.4088C64.6013 22.1452 64.3575 13.825 61.9389 7.95589C59.5203 2.08674 55.0554 -1.02653 50.9617 0.304898C45.9697 1.92914 42.1955 9.23993 37.3414 11.827C34.3058 13.4435 31.0098 12.9612 28.1105 10.8323C23.4261 7.3918 16.9905 2.11516 11.7188 2.97465C8.91557 3.43195 6.16605 5.58498 4.31578 9.26146C1.97682 13.9025 1.27562 20.4916 1.66578 26.6114C1.93352 30.7541 2.5088 34.8198 3.3772 38.708Z" fill="url(#paint0_linear_408_1365)"/>
<path id="Vector_2_2" d="M1.872 46.7241C1.97601 46.7239 2.07953 46.7022 2.18055 46.6595C2.50004 46.5236 2.77723 46.182 2.95589 45.7042C3.13455 45.2264 3.20123 44.6485 3.14201 44.0886C3.08329 43.5288 2.90264 43.029 2.63789 42.6914C2.37314 42.3539 2.04369 42.204 1.71723 42.2723C1.39077 42.3407 1.09169 42.6222 0.881181 43.0592C0.670177 43.4963 0.564172 44.0561 0.583581 44.6242C0.603487 45.1924 0.747811 45.7261 0.987182 46.1163C1.22655 46.5066 1.54305 46.7239 1.872 46.7241ZM1.872 43.2638C2.04319 43.2649 2.20792 43.3743 2.33582 43.5712C2.46371 43.7682 2.54533 44.0392 2.56573 44.3332C2.58564 44.6272 2.54334 44.9238 2.4458 45.1674C2.34875 45.4109 2.20344 45.5845 2.03723 45.6554C1.94118 45.6954 1.84115 45.6997 1.74361 45.668C1.64657 45.6364 1.5545 45.5695 1.47338 45.4717C1.39227 45.3739 1.32359 45.2475 1.27283 45.1007C1.22207 44.954 1.18923 44.7903 1.17778 44.6204C1.16584 44.4504 1.17529 44.278 1.20466 44.1146C1.23402 43.9513 1.28328 43.8006 1.34897 43.6724C1.41466 43.5443 1.49478 43.4416 1.58535 43.3712C1.67543 43.3007 1.77297 43.2641 1.872 43.2638Z" fill="#E7F6FF"/>
<path id="Vector_3" d="M3.05068 49.0931C2.97757 48.5694 3.16306 48.0418 3.4659 47.9149C3.76825 47.7879 4.07259 48.1095 4.14619 48.6332C4.21929 49.1569 4.0338 49.6844 3.73145 49.8115C3.42861 49.9384 3.12427 49.6168 3.05068 49.0931Z" fill="#E7F6FF"/>
<path id="Vector_4" d="M61.2534 46.5112C61.5952 46.4983 61.9203 46.2526 62.1581 45.8274C62.3958 45.4022 62.5271 44.832 62.5234 44.2404C62.5196 43.6487 62.3812 43.0835 62.1381 42.6675C61.8951 42.2513 61.567 42.018 61.2251 42.018C60.8832 42.018 60.5551 42.2513 60.312 42.6675C60.0689 43.0835 59.9305 43.6487 59.9268 44.2404C59.923 44.832 60.0543 45.4022 60.2921 45.8274C60.5298 46.2526 60.8549 46.4983 61.1967 46.5112H61.2534ZM61.2534 43.0517H61.2828C61.4674 43.0587 61.643 43.1913 61.7714 43.4209C61.8998 43.6505 61.9708 43.9585 61.9688 44.2781C61.9668 44.5976 61.892 44.9028 61.7607 45.1276C61.6295 45.3523 61.4523 45.4784 61.2676 45.4784C61.083 45.4784 60.9058 45.3523 60.7745 45.1276C60.6432 44.9028 60.5685 44.5976 60.5665 44.2781C60.5645 43.9585 60.6354 43.6505 60.7638 43.4209C60.8922 43.1913 61.0678 43.0587 61.2524 43.0517H61.2534Z" fill="#E7F6FF"/>
<path id="Vector_5" d="M62.1794 50.2818C61.8685 50.2585 61.6274 49.8033 61.6408 49.2649C61.6542 48.7265 61.9171 48.3088 62.2279 48.3321C62.5388 48.3553 62.78 48.8106 62.7666 49.349C62.7531 49.8873 62.4903 50.305 62.1794 50.2818Z" fill="#E7F6FF"/>
<path id="Vector_6" d="M28.7127 10.1844C29.0225 10.1849 29.3222 9.99342 29.5575 9.64463C29.7929 9.29583 29.9482 8.81278 29.9955 8.28289C30.0428 7.75301 29.979 7.21132 29.8155 6.75587C29.652 6.30042 29.3997 5.9613 29.1043 5.79989C28.8088 5.63848 28.4897 5.66545 28.2048 5.87592C27.9198 6.08639 27.6878 6.46645 27.5508 6.9473C27.4137 7.42815 27.3807 7.97804 27.4576 8.49741C27.5346 9.0168 27.7164 9.47135 27.9702 9.7788C28.1879 10.0423 28.4471 10.1839 28.7127 10.1844ZM28.7167 6.72578C28.898 6.72546 29.0723 6.84622 29.2034 7.0629C29.3345 7.27957 29.4122 7.57544 29.4204 7.88883C29.4285 8.20224 29.3665 8.50898 29.2471 8.74518C29.1278 8.98132 28.9604 9.12867 28.7798 9.15649C28.5993 9.18431 28.4195 9.09052 28.2779 8.89451C28.1363 8.69859 28.0439 8.41565 28.0199 8.1047C27.9959 7.79375 28.0422 7.47876 28.1491 7.2254C28.256 6.97205 28.4153 6.79986 28.5938 6.74473C28.6343 6.73221 28.6755 6.72587 28.7167 6.72578Z" fill="#E7F6FF"/>
<path id="Vector_7" d="M31.3606 10.0618C31.1058 9.75236 31.0441 9.14392 31.2228 8.70264C31.4015 8.26145 31.7528 8.15459 32.0076 8.46399C32.2624 8.77343 32.324 9.38187 32.1454 9.82316C31.9667 10.2644 31.6154 10.3712 31.3606 10.0618Z" fill="#E7F6FF"/>
<path id="Vector_8" d="M0.0021553 21.7591C0.0021553 20.8122 0.21963 19.904 0.606305 19.2344C0.993479 18.5647 1.518 18.1885 2.06542 18.1885C2.1112 18.1885 2.15649 18.1885 2.20128 18.1963C2.19829 18.1188 2.1968 18.0404 2.1968 17.9612C2.1968 17.4537 2.25951 16.9521 2.38043 16.4898C2.50136 16.0274 2.67753 15.615 2.89799 15.28C3.11845 14.9449 3.37723 14.695 3.6579 14.5469C3.93808 14.3987 4.23369 14.3557 4.52432 14.4207C4.81544 14.4858 5.09462 14.6574 5.34445 14.924C5.59377 15.1907 5.80776 15.5464 5.97149 15.9673C6.13521 16.3882 6.24519 16.8647 6.29446 17.365C6.34323 17.8654 6.3303 18.3781 6.25565 18.8689C6.50497 18.556 6.79162 18.3436 7.09469 18.2474C7.39776 18.1512 7.70929 18.1737 8.00638 18.3131C8.30398 18.4525 8.57919 18.7053 8.81308 19.0531C9.04648 19.4008 9.2316 19.8346 9.35602 20.3226C9.47993 20.8106 9.53915 21.3405 9.5292 21.8733C9.51924 22.4061 9.44062 22.9283 9.29879 23.4017C9.15746 23.875 8.9564 24.2874 8.71056 24.6087C8.46472 24.93 8.18057 25.1519 7.87849 25.2582C7.75507 25.8238 7.55103 26.3261 7.28479 26.7179C7.01904 27.1095 6.69955 27.378 6.35766 27.4979C6.01528 27.6179 5.66046 27.5855 5.32753 27.4038C4.9946 27.222 4.69352 26.8968 4.45266 26.4587C4.20632 26.7805 3.92166 27.0025 3.61909 27.1084C3.31652 27.2144 3.00449 27.2017 2.7054 27.0711C2.40581 26.9406 2.12762 26.6955 1.89024 26.3541C1.65286 26.0126 1.46326 25.5834 1.33437 25.098C0.942719 24.8411 0.605805 24.3842 0.367431 23.7878C0.129553 23.1914 0.0021553 22.4839 0.0021553 21.7591Z" fill="white"/>
<path id="Vector_9" d="M54.4724 13.1763C54.4722 12.7072 54.5253 12.2426 54.6289 11.8091C54.7324 11.3756 54.8843 10.9816 55.0759 10.6496C55.2674 10.3177 55.4949 10.0544 55.7453 9.87472C55.9957 9.69499 56.2641 9.60241 56.5352 9.60232C56.581 9.60232 56.6263 9.60232 56.6711 9.61007C56.6681 9.53256 56.6666 9.45419 56.6666 9.37496C56.6666 8.86754 56.7292 8.36587 56.8501 7.90353C56.971 7.44119 57.1475 7.02877 57.3677 6.69375C57.588 6.35873 57.847 6.1088 58.1275 5.96065C58.408 5.81249 58.7035 5.7695 58.9943 5.83454C59.2851 5.89958 59.5646 6.07116 59.8141 6.33783C60.0636 6.60452 60.2774 6.96017 60.4412 7.38108C60.605 7.802 60.7151 8.27851 60.7641 8.77883C60.8131 9.2792 60.7999 9.79187 60.7254 10.2827C60.9748 9.96971 61.2615 9.75734 61.5645 9.66123C61.8675 9.56503 62.179 9.58751 62.4764 9.72685C62.7737 9.86628 63.0492 10.1191 63.2826 10.4669C63.5161 10.8146 63.7016 11.2484 63.8256 11.7364C63.9495 12.2244 64.0088 12.7543 63.999 13.2871C63.9891 13.8198 63.9105 14.3421 63.7688 14.8154C63.6271 15.2888 63.426 15.7012 63.1802 16.0225C62.9344 16.3437 62.6501 16.5657 62.3483 16.672C62.2249 17.2371 62.0207 17.7389 61.7548 18.1302C61.4889 18.5216 61.1699 18.7898 60.8278 18.9098C60.4857 19.0297 60.1315 18.9974 59.7986 18.8161C59.4656 18.6347 59.1647 18.31 58.9239 17.8725C58.6777 18.1943 58.3928 18.4163 58.0904 18.5222C57.788 18.6282 57.4756 18.6155 57.1764 18.4848C56.8772 18.3543 56.5988 18.1093 56.3615 17.7678C56.1243 17.4263 55.9343 16.9972 55.8057 16.5118C55.4142 16.2554 55.077 15.7991 54.8389 15.2034C54.6008 14.6077 54.473 13.9007 54.4724 13.1763Z" fill="white"/>
<path id="Vector_10" d="M16.5153 63.9819H46.2002V62.8624H16.5153C16.4295 62.8624 16.3472 62.9213 16.2866 63.0262C16.2259 63.1312 16.1918 63.2737 16.1918 63.4221C16.1918 63.5706 16.2259 63.713 16.2866 63.818C16.3472 63.9229 16.4295 63.9819 16.5153 63.9819Z" fill="#426572"/>
<path id="Vector_11" d="M47.5276 63.9819H49.3425C49.4283 63.9819 49.5106 63.9229 49.5713 63.818C49.6319 63.713 49.666 63.5706 49.666 63.4221C49.666 63.2737 49.6319 63.1312 49.5713 63.0262C49.5106 62.9213 49.4283 62.8624 49.3425 62.8624H47.5276C47.4418 62.8624 47.3595 62.9213 47.2989 63.0262C47.2382 63.1312 47.2041 63.2737 47.2041 63.4221C47.2041 63.5706 47.2382 63.713 47.2989 63.818C47.3595 63.9229 47.4418 63.9819 47.5276 63.9819Z" fill="#426572"/>
<path id="Vector_12" d="M50.5213 63.9819H51.0991C51.1849 63.9819 51.2671 63.9229 51.3277 63.818C51.3883 63.713 51.4224 63.5706 51.4224 63.4221C51.4224 63.2737 51.3883 63.1312 51.3277 63.0262C51.2671 62.9213 51.1849 62.8624 51.0991 62.8624H50.5213C50.4356 62.8624 50.3534 62.9213 50.2927 63.0262C50.2321 63.1312 50.1981 63.2737 50.1981 63.4221C50.1981 63.5706 50.2321 63.713 50.2927 63.818C50.3534 63.9229 50.4356 63.9819 50.5213 63.9819Z" fill="#426572"/>
<path id="Vector_13" d="M6.10603 63.9819H15.23V62.8624H6.10603C6.02044 62.8624 5.93783 62.9213 5.87712 63.0262C5.8164 63.1312 5.78256 63.2737 5.78256 63.4221C5.78256 63.5706 5.8164 63.713 5.87712 63.818C5.93783 63.9229 6.02044 63.9819 6.10603 63.9819Z" fill="#426572"/>
<path id="Vector_14" d="M52.753 63.9819H61.8774V62.8624H52.753C52.6672 62.8624 52.5849 62.9213 52.5243 63.0262C52.4636 63.1312 52.4295 63.2737 52.4295 63.4221C52.4295 63.5706 52.4636 63.713 52.5243 63.818C52.5849 63.9229 52.6672 63.9819 52.753 63.9819Z" fill="#426572"/>
<path id="Vector_15" d="M28.5674 15.0555V63.4831H58.8823V15.0555C58.8818 14.7934 58.8214 14.5422 58.7143 14.3568C58.6071 14.1715 58.462 14.0669 58.3105 14.066H29.1397C29.1053 14.066 29.0709 14.0715 29.0372 14.0823C28.9056 14.1243 28.7866 14.2446 28.7008 14.4223C28.615 14.5999 28.5678 14.8239 28.5674 15.0555Z" fill="white"/>
<path id="Vector_16" d="M58.4054 18.85H28.4722V15.3707L29.0445 14.066H55.2593H58.3099L58.7866 15.3707V18.85H58.4054Z" fill="#E2F2FF"/>
<path id="Vector_17" d="M28.1733 63.9998H59.085V15.0555C59.0847 14.6562 58.9929 14.2734 58.8297 13.991C58.6666 13.7086 58.4453 13.5497 58.2146 13.5492H29.0442C28.8135 13.5497 28.5922 13.7086 28.4291 13.991C28.2659 14.2734 28.1741 14.6562 28.1738 15.0555L28.1733 63.9998ZM58.4878 62.9664H28.7705V15.0555C28.7707 14.9302 28.7995 14.8101 28.8507 14.7214C28.9019 14.6328 28.9713 14.583 29.0437 14.5827H58.2146C58.287 14.583 58.3564 14.6328 58.4076 14.7214C58.4588 14.8101 58.4876 14.9302 58.4878 15.0555V62.9664Z" fill="#426572"/>
<path id="Vector_18" d="M57.0458 17.3033C56.8354 17.3033 56.6649 17.0079 56.6649 16.6436C56.6649 16.2792 56.8354 15.9839 57.0458 15.9839C57.2562 15.9839 57.4268 16.2792 57.4268 16.6436C57.4268 17.0079 57.2562 17.3033 57.0458 17.3033Z" fill="#CADCE8"/>
<path id="Vector_19" d="M55.9023 17.3033C55.6919 17.3033 55.5214 17.0079 55.5214 16.6436C55.5214 16.2792 55.6919 15.9839 55.9023 15.9839C56.1126 15.9839 56.2832 16.2792 56.2832 16.6436C56.2832 17.0079 56.1126 17.3033 55.9023 17.3033Z" fill="#CADCE8"/>
<path id="Vector_20" d="M54.7582 17.3033C54.5478 17.3033 54.3773 17.0079 54.3773 16.6436C54.3773 16.2792 54.5478 15.9839 54.7582 15.9839C54.9686 15.9839 55.1392 16.2792 55.1392 16.6436C55.1392 17.0079 54.9686 17.3033 54.7582 17.3033Z" fill="#CADCE8"/>
<path id="Vector_21" d="M29.9626 15.9832H53.1477C53.3264 15.9832 53.4712 16.2338 53.4712 16.543V16.7428C53.4712 17.052 53.3264 17.3026 53.1477 17.3026H29.9626C29.784 17.3026 29.6391 17.052 29.6391 16.7428V16.543C29.6391 16.2338 29.784 15.9832 29.9626 15.9832Z" fill="#CADCE8"/>
<path id="Vector_22" d="M8.40578 5.65185V63.483H38.7192V5.65185C38.7187 5.38969 38.6583 5.13853 38.5512 4.95315C38.4441 4.76778 38.2989 4.66324 38.1474 4.66232H8.97708C8.94274 4.66234 8.90841 4.66782 8.87457 4.67869C8.74319 4.72101 8.62425 4.8414 8.53865 5.01908C8.45306 5.19675 8.40627 5.42055 8.40578 5.65185Z" fill="white"/>
<path id="Vector_23" d="M38.2438 9.44637H8.31054V5.96706L8.88284 4.66232H35.0976H37.6715L38.625 5.96706V9.44637H38.2438Z" fill="#E2F2FF"/>
<path id="Vector_24" d="M8.01419 63.9997H38.9233V5.65184C38.9231 5.2525 38.8313 4.86964 38.6681 4.58726C38.505 4.30488 38.2837 4.14604 38.0529 4.14558H8.88259C8.65218 4.14695 8.43122 4.30619 8.26849 4.58848C8.10576 4.87076 8.01469 5.25309 8.01419 5.65184V63.9997ZM38.3286 62.9663H8.61137V5.65184C8.61137 5.52652 8.64024 5.40639 8.6915 5.31777C8.74275 5.22915 8.81193 5.17927 8.88458 5.17904H38.0529C38.1254 5.17927 38.1948 5.22915 38.246 5.31777C38.2972 5.40639 38.326 5.52652 38.3262 5.65184L38.3286 62.9663Z" fill="#426572"/>
<path id="Vector_25" d="M36.8842 7.8999C36.6739 7.8999 36.5033 7.60455 36.5033 7.24022C36.5033 6.87588 36.6739 6.58053 36.8842 6.58053C37.0946 6.58053 37.2651 6.87588 37.2651 7.24022C37.2651 7.60455 37.0946 7.8999 36.8842 7.8999Z" fill="#CADCE8"/>
<path id="Vector_26" d="M35.7407 7.8999C35.5303 7.8999 35.3597 7.60455 35.3597 7.24022C35.3597 6.87588 35.5303 6.58053 35.7407 6.58053C35.951 6.58053 36.1216 6.87588 36.1216 7.24022C36.1216 7.60455 35.951 7.8999 35.7407 7.8999Z" fill="#CADCE8"/>
<path id="Vector_27" d="M34.5966 7.8999C34.3863 7.8999 34.2157 7.60455 34.2157 7.24022C34.2157 6.87588 34.3863 6.58053 34.5966 6.58053C34.807 6.58053 34.9775 6.87588 34.9775 7.24022C34.9775 7.60455 34.807 7.8999 34.5966 7.8999Z" fill="#CADCE8"/>
<path id="Vector_28" d="M9.80051 6.58053H32.9856C33.1643 6.58053 33.3091 6.83115 33.3091 7.14032V7.34012C33.3091 7.64927 33.1643 7.8999 32.9856 7.8999H9.80051C9.62186 7.8999 9.47704 7.64927 9.47704 7.34012V7.14032C9.47704 6.83115 9.62186 6.58053 9.80051 6.58053Z" fill="#CADCE8"/>
<path id="Vector_29" d="M28.7401 15.6421H34.9731V27.9324H28.7401V15.6421Z" fill="#E8837E"/>
<path id="Vector_30" d="M13.3721 15.6421H28.1514V27.9324H13.3721V15.6421Z" fill="#E8837E"/>
<path id="Vector_31" d="M13.3725 29.293H20.3506V41.5833H13.3725V29.293Z" fill="#DDE4ED"/>
<path id="Vector_32" d="M20.9389 29.293H34.8945V41.5833H20.9389V29.293Z" fill="#DDE4ED"/>
<path id="Vector_33" d="M13.3333 42.9441H34.8945V55.2344H13.3333V42.9441Z" fill="#DDE4ED"/>
<path id="Vector_34" d="M50.997 45.6482H55.8496V46.5084H50.997V45.6482Z" fill="#DDE4ED"/>
<path id="Vector_35" d="M50.997 47.958H55.8496V48.8182H50.997V47.958Z" fill="#DDE4ED"/>
<path id="Vector_36" d="M50.997 50.2671H55.8496V51.1274H50.997V50.2671Z" fill="#DDE4ED"/>
<path id="Vector_37" d="M50.997 52.5769H55.8496V53.4371H50.997V52.5769Z" fill="#DDE4ED"/>
<path id="Vector_38" d="M50.997 54.8863H55.8496V55.7465H50.997V54.8863Z" fill="#DDE4ED"/>
<path id="Vector_39" d="M50.997 57.1962H55.8496V58.0564H50.997V57.1962Z" fill="#DDE4ED"/>
<path id="Vector_40" d="M53.3351 39.4647L52.3756 36.6176L50.8891 38.7757V40.7471H55.0137L54.0064 38.3401L53.3351 39.4647Z" fill="#DDE4ED"/>
<path id="Vector_41" d="M48.99 38.1205H50.4287V35.0907L50.1411 34.6136L48.99 36.6469V38.1205Z" fill="#DDE4ED"/>
<path id="Vector_42" d="M54.3329 37.8726C54.1774 37.8724 54.0255 37.7924 53.8963 37.6428C53.7671 37.4932 53.6664 37.2806 53.6071 37.0319C53.5478 36.7833 53.5323 36.5097 53.5628 36.246C53.5933 35.9822 53.6683 35.7399 53.7784 35.5499C53.8885 35.3599 54.0286 35.2308 54.1812 35.1787C54.3336 35.1266 54.4917 35.1539 54.6352 35.2572C54.7787 35.3605 54.9013 35.5353 54.9875 35.7592C55.0736 35.9831 55.1194 36.2463 55.1191 36.5153C55.1181 36.8753 55.0348 37.22 54.8876 37.4742C54.7403 37.7285 54.5409 37.8717 54.3329 37.8726Z" fill="#DDE4ED"/>
<path id="Vector_43" opacity="0.2" d="M19.4638 27.2193V62.8235H49.7783V27.2193C49.7801 26.9531 49.721 26.6964 49.6139 26.5054C49.5068 26.3143 49.3603 26.2044 49.2065 26.1997H20.0361C19.8822 26.2042 19.7356 26.314 19.6283 26.5051C19.5211 26.6962 19.4619 26.953 19.4638 27.2193Z" fill="#606060"/>
<path id="Vector_44" d="M20.5601 28.9132V63.4831H50.8745V28.9132C50.874 28.6511 50.8136 28.4 50.7065 28.2145C50.5994 28.0292 50.4542 27.9247 50.3027 27.9237H21.1324C21.098 27.9237 21.0636 27.9292 21.0298 27.9401C20.8983 27.9821 20.7793 28.1023 20.6935 28.28C20.6077 28.4577 20.5605 28.6818 20.5601 28.9132Z" fill="white"/>
<path id="Vector_45" d="M50.3976 32.7068H20.4649V29.2275L21.0367 27.9228H47.252H50.5404L50.7788 29.2275V32.7068H50.3976Z" fill="#E2F2FF"/>
<path id="Vector_46" d="M49.039 30.9958C48.8287 30.9958 48.6581 30.7004 48.6581 30.3361C48.6581 29.9717 48.8287 29.6764 49.039 29.6764C49.2494 29.6764 49.4199 29.9717 49.4199 30.3361C49.4199 30.7004 49.2494 30.9958 49.039 30.9958Z" fill="#CADCE8"/>
<path id="Vector_47" d="M47.895 30.9958C47.6846 30.9958 47.514 30.7004 47.514 30.3361C47.514 29.9717 47.6846 29.6764 47.895 29.6764C48.1054 29.6764 48.2759 29.9717 48.2759 30.3361C48.2759 30.7004 48.1054 30.9958 47.895 30.9958Z" fill="#CADCE8"/>
<path id="Vector_48" d="M46.7509 30.9958C46.5406 30.9958 46.37 30.7004 46.37 30.3361C46.37 29.9717 46.5406 29.6764 46.7509 29.6764C46.9613 29.6764 47.1318 29.9717 47.1318 30.3361C47.1318 30.7004 46.9613 30.9958 46.7509 30.9958Z" fill="#CADCE8"/>
<path id="Vector_49" d="M21.9548 29.6764H45.1399C45.3186 29.6764 45.4634 29.927 45.4634 30.2362V30.436C45.4634 30.7452 45.3186 30.9958 45.1399 30.9958H21.9548C21.7762 30.9958 21.6313 30.7452 21.6313 30.436V30.2362C21.6313 29.927 21.7762 29.6764 21.9548 29.6764Z" fill="#CADCE8"/>
<path id="Vector_50" d="M42.1937 54.74C41.4588 54.74 40.863 53.709 40.863 52.4371C40.863 51.1653 41.4588 50.1343 42.1937 50.1343C42.9286 50.1343 43.5244 51.1653 43.5244 52.4371C43.5244 53.709 42.9286 54.74 42.1937 54.74Z" fill="#DDE4ED"/>
<path id="Vector_51" d="M35.6571 54.74C34.9221 54.74 34.3263 53.709 34.3263 52.4371C34.3263 51.1653 34.9221 50.1343 35.6571 50.1343C36.392 50.1343 36.9878 51.1653 36.9878 52.4371C36.9878 53.709 36.392 54.74 35.6571 54.74Z" fill="#DDE4ED"/>
<path id="Vector_52" d="M29.1205 54.74C28.3855 54.74 27.7897 53.709 27.7897 52.4371C27.7897 51.1653 28.3855 50.1343 29.1205 50.1343C29.8554 50.1343 30.4512 51.1653 30.4512 52.4371C30.4512 53.709 29.8554 54.74 29.1205 54.74Z" fill="#DDE4ED"/>
<path id="Vector_53" d="M24.9818 37.0879H46.3325C46.6623 37.0879 46.9297 37.5506 46.9297 38.1213V46.6129C46.9297 47.1837 46.6623 47.6463 46.3325 47.6463H24.9818C24.652 47.6463 24.3846 47.1837 24.3846 46.6129V38.1213C24.3846 37.5506 24.652 37.0879 24.9818 37.0879Z" fill="#A8EF9E"/>
<path id="Vector_54" d="M35.9739 57.5228H46.7461V58.5563H35.9739V57.5228Z" fill="#E8EDF7"/>
<path id="Vector_55" d="M29.4433 59.5843H46.793V60.6178H29.4433V59.5843Z" fill="#E8EDF7"/>
<path id="Vector_56" d="M24.1528 57.5228H34.4482V58.5563H24.1528V57.5228Z" fill="#E8EDF7"/>
<path id="Vector_57" opacity="0.3" d="M50.0965 63.4004H50.5444V33.0712H20.5783V33.8463H50.0965V63.4004Z" fill="#C1CEDE"/>
<path id="Vector_58" d="M20.5551 32.1901H50.7451V33.2235H20.5551V32.1901Z" fill="#426572"/>
<path id="Vector_59" d="M20.1665 63.9998H51.0776V28.9133C51.0774 28.5139 50.9856 28.1311 50.8224 27.8487C50.6593 27.5663 50.438 27.4075 50.2072 27.407H21.0369C20.8061 27.4075 20.5849 27.5663 20.4217 27.8487C20.2586 28.1311 20.1667 28.5139 20.1665 28.9133V63.9998ZM50.481 62.9664H20.7637V28.9133C20.7638 28.7879 20.7927 28.6678 20.8439 28.5792C20.8951 28.4906 20.9645 28.4407 21.0369 28.4405H50.2072C50.2797 28.4407 50.3491 28.4906 50.4003 28.5792C50.4515 28.6678 50.4803 28.7879 50.4805 28.9133L50.481 62.9664Z" fill="#426572"/>
<path id="Vector_60" d="M12.5233 57.1999H18.0522V57.8881H12.5233V57.1999Z" fill="#DDE4ED"/>
</g>
</g>
</g>
</g>
</g>
</g>
</g>
<defs>
<linearGradient id="paint0_linear_408_1365" x1="63.9345" y1="31.9673" x2="1.56476" y2="31.9673" gradientUnits="userSpaceOnUse">
<stop stop-color="#C5E9FA"/>
<stop offset="1" stop-color="#C4F4EA"/>
</linearGradient>
<clipPath id="clip0_408_1365">
<rect width="64" height="64" fill="white" transform="matrix(-1 0 0 1 64 0)"/>
</clipPath>
</defs>
</svg>
