<svg width="64" height="64" viewBox="0 0 64 64" fill="none" xmlns="http://www.w3.org/2000/svg">
<g id="Illustration - Asset 6" clip-path="url(#clip0_408_1297)">
<g id="Asset 6">
<g id="Clip path group">
<mask id="mask0_408_1297" style="mask-type:luminance" maskUnits="userSpaceOnUse" x="-7" y="0" width="71" height="64">
<g id="clip0_3_49730">
<path id="Vector" d="M-6.62069 0H64V64H-6.62069V0Z" fill="white"/>
</g>
</mask>
<g mask="url(#mask0_408_1297)">
<g id="Asset 6_2">
<g id="Layer 2">
<g id="Layer 1">
<g id="Group" opacity="0.3">
<path id="Vector_2" opacity="0.3" d="M48.1457 22.126V58.0084C48.1457 58.3661 48.1876 58.7202 48.2689 59.0504C48.3503 59.3807 48.4694 59.6804 48.6196 59.9324C48.7698 60.1844 48.948 60.3837 49.144 60.5188C49.3399 60.6538 49.5498 60.7221 49.7614 60.7195H52.5306C51.9912 60.7195 51.4738 60.3573 51.0923 59.7125C50.7108 59.0678 50.4966 58.1933 50.4966 57.2816C50.4966 56.3697 50.7108 55.4953 51.0923 54.8505C51.4738 54.2058 51.9912 53.8436 52.5306 53.8436H61.9659C62.5054 53.8436 63.0228 53.4814 63.4042 52.8366C63.7857 52.1918 64 51.3174 64 50.4056C64 49.4938 63.7857 48.6194 63.4042 47.9746C63.0228 47.3299 62.5054 46.9677 61.9659 46.9677H56.811C56.2715 46.9677 55.7541 46.6055 55.3726 45.9607C54.9912 45.3159 54.7768 44.4415 54.7768 43.5297C54.7768 42.6179 54.9912 41.7435 55.3726 41.0987C55.7541 40.4539 56.2715 40.0917 56.811 40.0917H61.9659C62.5054 40.0917 63.0228 39.7296 63.4042 39.0848C63.7857 38.44 64 37.5656 64 36.6538C64 35.742 63.7857 34.8676 63.4042 34.2228C63.0228 33.578 62.5054 33.2158 61.9659 33.2158H55.3261C54.7866 33.2158 54.2692 32.8537 53.8878 32.2089C53.5063 31.5641 53.292 30.6897 53.292 29.7779C53.292 28.8661 53.5063 27.9917 53.8878 27.3469C54.2692 26.7021 54.7866 26.3399 55.3261 26.3399H59.1676C59.7071 26.3399 60.2244 25.9777 60.6059 25.333C60.9874 24.6882 61.2017 23.8138 61.2017 22.9019C61.2017 21.9902 60.9874 21.1158 60.6059 20.471C60.2244 19.8262 59.7071 19.464 59.1676 19.464H49.7614C49.3389 19.4587 48.9323 19.7353 48.6298 20.2337C48.3273 20.7321 48.1533 21.4121 48.1457 22.126Z" fill="#BDDFE9"/>
<path id="Vector_2_2" opacity="0.3" d="M9.2334 7.36729V43.2645C9.2334 43.6209 9.19199 43.9738 9.11092 44.3031C9.0303 44.6323 8.9118 44.9314 8.76245 45.1833C8.61354 45.435 8.43644 45.6346 8.24127 45.7706C8.04655 45.9065 7.83729 45.9762 7.6267 45.9755H4.84857C5.38825 45.9755 5.90546 45.6133 6.28698 44.9686C6.6685 44.3239 6.88261 43.4494 6.88261 42.5376C6.88261 41.6258 6.6685 40.7513 6.28698 40.1066C5.90546 39.4618 5.38825 39.0996 4.84857 39.0996H-4.57795C-5.11762 39.0996 -5.63483 38.7374 -6.01635 38.0927C-6.39787 37.448 -6.61198 36.5735 -6.61198 35.6617C-6.61198 34.7498 -6.39787 33.8754 -6.01635 33.2307C-5.63483 32.5859 -5.11762 32.2237 -4.57795 32.2237H0.568159C1.10784 32.2237 1.62504 31.8615 2.00656 31.2167C2.38808 30.572 2.60219 29.6976 2.60219 28.7858C2.60219 27.8739 2.38808 26.9995 2.00656 26.3548C1.62504 25.71 1.10784 25.3478 0.568159 25.3478H-4.57795C-5.11762 25.3478 -5.63483 24.9856 -6.01635 24.3408C-6.39787 23.6961 -6.61198 22.8217 -6.61198 21.9099C-6.61198 20.998 -6.39787 20.1236 -6.01635 19.4788C-5.63483 18.8341 -5.11762 18.4719 -4.57795 18.4719H2.0559C2.59558 18.4719 3.11279 18.1097 3.49431 17.4649C3.87583 16.8202 4.08994 15.9458 4.08994 15.0339C4.08994 14.1221 3.87583 13.2477 3.49431 12.6029C3.11279 11.9582 2.59558 11.596 2.0559 11.596H-1.78837C-2.32804 11.596 -2.84525 11.2338 -3.22677 10.589C-3.60829 9.94426 -3.8224 9.06984 -3.8224 8.15799C-3.8224 7.24622 -3.60829 6.37176 -3.22677 5.72702C-2.84525 5.08228 -2.32804 4.72007 -1.78837 4.72007H7.6267C8.04611 4.71859 8.44921 4.99487 8.74967 5.4897C9.04969 5.98453 9.22371 6.65854 9.2334 7.36729Z" fill="#BDDFE9"/>
</g>
<path id="Vector_3" d="M8.32115 58.7448C8.32071 59.4142 8.39824 60.0772 8.54979 60.696C8.7009 61.3148 8.92294 61.8771 9.20269 62.351C9.48245 62.8248 9.81462 63.2009 10.1803 63.4577C10.5464 63.7145 10.9385 63.847 11.3345 63.8477H50.9499C51.2619 63.8477 51.5709 63.7437 51.8591 63.5417C52.1473 63.3397 52.4092 63.0438 52.6297 62.6707C52.8502 62.2975 53.025 61.8546 53.1441 61.3672C53.2632 60.8798 53.3244 60.3575 53.324 59.8302V6.71374C53.324 5.64954 53.0738 4.62892 52.6286 3.87641C52.1834 3.12391 51.5796 2.70116 50.9499 2.70116H21.1592C21.9426 2.74227 22.6857 3.29714 23.2313 4.24824C23.7768 5.19936 24.0819 6.47202 24.0819 7.79668C24.0819 9.12141 23.7768 10.394 23.2313 11.3452C22.6857 12.2963 21.9426 12.8511 21.1592 12.8923H15.4726C14.6889 12.9333 13.9461 13.4882 13.4003 14.4394C12.8549 15.3904 12.55 16.6631 12.55 17.9878C12.55 19.3124 12.8549 20.5851 13.4003 21.5362C13.9461 22.4874 14.6889 23.0422 15.4726 23.0833H25.2971C25.6928 23.0833 26.0847 23.215 26.4503 23.471C26.8159 23.7269 27.1481 24.1021 27.4279 24.575C27.7077 25.048 27.9296 25.6094 28.0811 26.2273C28.2325 26.8453 28.3105 27.5076 28.3105 28.1764C28.3105 28.8452 28.2325 29.5075 28.0811 30.1255C27.9296 30.7434 27.7077 31.3048 27.4279 31.7778C27.1481 32.2507 26.8159 32.6259 26.4503 32.8818C26.0847 33.1378 25.6928 33.2695 25.2971 33.2695H17.6723C16.889 33.3106 16.1458 33.8654 15.6 34.8166C15.0546 35.7677 14.7497 37.0404 14.7497 38.365C14.7497 39.6897 15.0546 40.9624 15.6 41.9135C16.1458 42.8646 16.889 43.4195 17.6723 43.4606H25.2971C25.7009 43.4394 26.1031 43.5555 26.4798 43.802C26.8565 44.0486 27.2001 44.4205 27.4902 44.8958C27.7803 45.371 28.0109 45.9399 28.1683 46.5687C28.3258 47.1975 28.407 47.8733 28.407 48.5561C28.407 49.2389 28.3258 49.9148 28.1683 50.5435C28.0109 51.1723 27.7803 51.7412 27.4902 52.2165C27.2001 52.6917 26.8565 53.0637 26.4798 53.3102C26.1031 53.5568 25.7009 53.6728 25.2971 53.6516H11.3345C10.5354 53.6516 9.7688 54.1883 9.20357 55.1434C8.63878 56.0985 8.32115 57.394 8.32115 58.7448Z" fill="#E0F0F5"/>
<path id="Vector_4" d="M40.9566 20.7949C40.9581 23.3529 41.2985 25.8778 41.9525 28.1846C42.6066 30.4914 43.5578 32.5215 44.7365 34.1261C45.9152 35.7307 47.2914 36.869 48.7643 37.4576C50.2371 38.0463 51.7692 38.0703 53.2483 37.5279L53.3354 37.4935V34.6056C55.3841 34.432 57.3523 33.2032 58.9757 31.0842L59.0599 30.9811C59.1966 30.8092 59.3331 30.6323 59.4639 30.4457L59.5016 30.3573C60.5275 27.7794 61.119 24.7784 61.2131 21.6757C61.3071 18.573 60.9 15.4856 60.0353 12.744C59.1707 10.0024 57.8811 7.71 56.3047 6.11225C54.7283 4.5145 52.9244 3.67161 51.0863 3.67385H50.9614C50.56 3.68313 50.1593 3.73233 49.7613 3.82119C47.8687 4.24122 46.0853 5.55929 44.6179 7.62256C44.5424 7.72079 44.4697 7.82885 44.4 7.9369C43.329 9.52574 42.4685 11.4789 41.8748 13.6685C41.8167 13.8797 41.7615 14.0958 41.7121 14.3119C41.2121 16.3687 40.9554 18.5712 40.9566 20.7949Z" fill="#BDDFE9"/>
<path id="Vector_5" d="M36.7314 50.4741L38.4894 45.327L39.9743 49.6735L40.9274 46.8839L43.9117 38.1514L46.8931 46.8839L49.8774 55.6163H43.9117H42.0055L42.0084 55.6212H38.4894H34.9734L36.7314 50.4741Z" fill="#A8FF8C"/>
<path id="Vector_6" d="M4.84558 6.71408V59.8256C4.84514 60.3534 4.90593 60.8762 5.02488 61.3642C5.14383 61.8521 5.31873 62.2956 5.53901 62.6693C5.75973 63.0429 6.02142 63.3393 6.30998 63.5416C6.59854 63.7439 6.90781 63.848 7.21972 63.848H11.3345C10.5512 63.8069 9.80797 63.252 9.26257 62.3009C8.71716 61.3498 8.41186 60.0771 8.41186 58.7525C8.41186 57.4278 8.71716 56.1551 9.26257 55.204C9.80797 54.2529 10.5512 53.698 11.3345 53.6569H25.2971C25.7009 53.6781 26.1031 53.562 26.4798 53.3154C26.8565 53.0689 27.2001 52.6969 27.4902 52.2217C27.7803 51.7465 28.0108 51.1775 28.1683 50.5488C28.3258 49.92 28.407 49.2441 28.407 48.5614C28.407 47.8786 28.3258 47.2028 28.1683 46.5739C28.0108 45.9452 27.7803 45.3763 27.4902 44.901C27.2001 44.4258 26.8565 44.0538 26.4798 43.8073C26.1031 43.5608 25.7009 43.4446 25.2971 43.4658H17.6723C16.889 43.4247 16.1458 42.8698 15.5999 41.9187C15.0545 40.9676 14.7497 39.695 14.7497 38.3703C14.7497 37.0456 15.0545 35.773 15.5999 34.8218C16.1458 33.8707 16.889 33.3159 17.6723 33.2747H25.2971C25.6928 33.2747 26.0847 33.143 26.4503 32.8871C26.8159 32.6311 27.1481 32.2559 27.4279 31.783C27.7077 31.3101 27.9296 30.7486 28.0811 30.1307C28.2325 29.5128 28.3105 28.8505 28.3105 28.1817C28.3105 27.5128 28.2325 26.8505 28.0811 26.2326C27.9296 25.6147 27.7077 25.0533 27.4279 24.5803C27.1481 24.1074 26.8159 23.7322 26.4503 23.4763C26.0847 23.2203 25.6928 23.0886 25.2971 23.0886H15.4726C14.6889 23.0475 13.9461 22.4926 13.4002 21.5415C12.8548 20.5904 12.55 19.3177 12.55 17.993C12.55 16.6684 12.8548 15.3957 13.4002 14.4446C13.9461 13.4934 14.6889 12.9386 15.4726 12.8975H21.1592C21.9426 12.8563 22.6857 12.3015 23.2312 11.3504C23.7768 10.3993 24.0819 9.12663 24.0819 7.80198C24.0819 6.47727 23.7768 5.20461 23.2312 4.25349C22.6857 3.30239 21.9426 2.74751 21.1592 2.70641H7.21135C6.58356 2.7103 5.98221 3.1341 5.53901 3.88512C5.09581 4.63614 4.84646 5.65327 4.84558 6.71408Z" fill="#BDDFE9"/>
<path id="Vector_7" d="M41.6484 2.59331H36.0285C36.0285 2.87987 36.0959 3.1547 36.2158 3.35733C36.3356 3.55997 36.4982 3.67381 36.6678 3.67381H41.0091C41.1787 3.67381 41.3413 3.55997 41.4612 3.35733C41.5811 3.1547 41.6484 2.87987 41.6484 2.59331Z" fill="white"/>
<path id="Vector_8" d="M41.6484 9.33171H36.0285C36.0285 9.61822 36.0959 9.89305 36.2158 10.0957C36.3356 10.2983 36.4982 10.4122 36.6678 10.4122H41.0091C41.1787 10.4122 41.3413 10.2983 41.4612 10.0957C41.5811 9.89305 41.6484 9.61822 41.6484 9.33171Z" fill="white"/>
<path id="Vector_9" opacity="0.7" d="M35.4036 9.33171H29.7866C29.7866 9.61822 29.854 9.89305 29.9738 10.0957C30.0937 10.2983 30.2563 10.4122 30.4259 10.4122H34.7643C34.9338 10.4122 35.0965 10.2983 35.2163 10.0957C35.3362 9.89305 35.4036 9.61822 35.4036 9.33171Z" fill="white"/>
<path id="Vector_10" d="M48.1458 2.59331H42.5287C42.5287 2.87987 42.5961 3.1547 42.716 3.35733C42.8359 3.55997 42.9985 3.67381 43.168 3.67381H47.5065C47.676 3.67381 47.8386 3.55997 47.9585 3.35733C48.0784 3.1547 48.1458 2.87987 48.1458 2.59331Z" fill="white"/>
<path id="Vector_11" d="M56.715 18.0101L58.043 16.8363L59.5366 17.0623L58.845 14.8178L58.9787 12.2933L57.6478 13.4623L56.1542 13.2363L56.8487 15.4857L56.715 18.0101Z" fill="#EEF0F1"/>
<path id="Vector_12" d="M57.6799 22.6072C57.4023 22.6072 57.1772 22.2268 57.1772 21.7576C57.1772 21.2883 57.4023 20.9079 57.6799 20.9079C57.9575 20.9079 58.1826 21.2883 58.1826 21.7576C58.1826 22.2268 57.9575 22.6072 57.6799 22.6072Z" fill="#EEF0F1"/>
<path id="Vector_13" d="M31.0449 2.86339H33.4887C33.5658 2.86339 33.6397 2.81165 33.6942 2.71954C33.7487 2.62744 33.7793 2.50251 33.7793 2.37226C33.7793 2.242 33.7487 2.11708 33.6942 2.02497C33.6397 1.93287 33.5658 1.88112 33.4887 1.88112H31.0536C30.9766 1.88112 30.9027 1.93287 30.8482 2.02497C30.7937 2.11708 30.7631 2.242 30.7631 2.37226C30.7631 2.50251 30.7937 2.62744 30.8482 2.71954C30.9027 2.81165 30.9766 2.86339 31.0536 2.86339H31.0449Z" fill="#183154"/>
<path id="Vector_14" d="M33.0645 64.0001H50.8831C51.5881 63.9949 52.2632 63.5182 52.7608 62.6743C53.2585 61.8304 53.5383 60.6879 53.5391 59.4964V6.38484C53.5383 5.19078 53.2573 4.046 52.7577 3.20167C52.2582 2.35734 51.5809 1.88242 50.8744 1.88112H35.7931C35.716 1.88112 35.6421 1.93287 35.5876 2.02497C35.5331 2.11708 35.5025 2.242 35.5025 2.37226C35.5025 2.50251 35.5331 2.62744 35.5876 2.71954C35.6421 2.81165 35.716 2.86339 35.7931 2.86339H50.8831C51.4339 2.86858 51.9612 3.24172 52.3499 3.90142C52.7386 4.56112 52.9571 5.45384 52.9579 6.38484V59.4964C52.9571 60.4299 52.7373 61.3248 52.3468 61.985C51.9562 62.6451 51.4267 63.0165 50.8744 63.0178H33.0558C32.9787 63.0178 32.9048 63.0696 32.8503 63.1616C32.7958 63.2538 32.7652 63.3787 32.7652 63.5089C32.7652 63.6392 32.7958 63.7641 32.8503 63.8562C32.9048 63.9483 32.9787 64.0001 33.0558 64.0001H33.0645Z" fill="#183154"/>
<path id="Vector_15" d="M28.2261 64H31.4225C31.4996 64 31.5735 63.9483 31.628 63.8561C31.6825 63.764 31.7131 63.6391 31.7131 63.5088C31.7131 63.3786 31.6825 63.2537 31.628 63.1616C31.5735 63.0695 31.4996 63.0177 31.4225 63.0177H28.2261C28.1491 63.0177 28.0751 63.0695 28.0206 63.1616C27.9661 63.2537 27.9355 63.3786 27.9355 63.5088C27.9355 63.6391 27.9661 63.764 28.0206 63.8561C28.0751 63.9483 28.1491 64 28.2261 64Z" fill="#183154"/>
<path id="Vector_16" d="M26.7617 64H26.9999C27.077 64 27.1509 63.9483 27.2054 63.8561C27.2599 63.764 27.2905 63.6391 27.2905 63.5088C27.2905 63.3786 27.2599 63.2537 27.2054 63.1616C27.1509 63.0695 27.077 63.0177 26.9999 63.0177H26.7617C26.6846 63.0177 26.6107 63.0695 26.5562 63.1616C26.5017 63.2537 26.4711 63.3786 26.4711 63.5088C26.4711 63.6391 26.5017 63.764 26.5562 63.8561C26.6107 63.9483 26.6846 64 26.7617 64Z" fill="#183154"/>
<path id="Vector_17" d="M7.15313 64.0002H25.3813C25.4583 64.0002 25.5323 63.9484 25.5868 63.8563C25.6413 63.7642 25.6719 63.6393 25.6719 63.509C25.6719 63.3788 25.6413 63.2538 25.5868 63.1618C25.5323 63.0696 25.4583 63.0179 25.3813 63.0179H7.15313C6.60023 63.0179 6.07025 62.6469 5.67947 61.9865C5.28914 61.3261 5.06931 60.4304 5.06931 59.4964V31.3199C5.06931 31.1897 5.03891 31.0647 4.98429 30.9727C4.92966 30.8805 4.85608 30.8288 4.77899 30.8288C4.70189 30.8288 4.62787 30.8805 4.57325 30.9727C4.51906 31.0647 4.48822 31.1897 4.48822 31.3199V59.4964C4.4891 60.6905 4.77018 61.8352 5.26976 62.6796C5.76935 63.524 6.44648 63.9988 7.15313 64.0002Z" fill="#183154"/>
<path id="Vector_18" d="M4.77901 29.1688C4.85611 29.1688 4.92968 29.117 4.98431 29.0249C5.03894 28.9328 5.06934 28.8079 5.06934 28.6776V27.9016C5.06934 27.7713 5.03894 27.6465 4.98431 27.5543C4.92968 27.4622 4.85611 27.4105 4.77901 27.4105C4.70192 27.4105 4.6279 27.4622 4.57327 27.5543C4.51908 27.6465 4.48825 27.7713 4.48825 27.9016V28.6776C4.48825 28.8079 4.51908 28.9328 4.57327 29.0249C4.6279 29.117 4.70192 29.1688 4.77901 29.1688Z" fill="#183154"/>
<path id="Vector_19" d="M4.77901 25.8142C4.85611 25.8142 4.92968 25.7624 4.98431 25.6703C5.03894 25.5782 5.06934 25.4533 5.06934 25.323V21.1877C5.06934 21.0574 5.03894 20.9325 4.98431 20.8403C4.92968 20.7483 4.85611 20.6965 4.77901 20.6965C4.70192 20.6965 4.6279 20.7483 4.57327 20.8403C4.51908 20.9325 4.48825 21.0574 4.48825 21.1877V25.323C4.48825 25.4533 4.51908 25.5782 4.57327 25.6703C4.6279 25.7624 4.70192 25.8142 4.77901 25.8142Z" fill="#183154"/>
<path id="Vector_20" d="M4.77902 17.848C4.85612 17.848 4.9297 17.7963 4.98432 17.7041C5.03895 17.612 5.06935 17.4871 5.06935 17.3568V6.38484C5.06935 5.4509 5.28918 4.5552 5.67951 3.8948C6.07028 3.23441 6.60027 2.86339 7.15317 2.86339H27.7641C27.8412 2.86339 27.9151 2.81165 27.9696 2.71954C28.0241 2.62744 28.0547 2.50251 28.0547 2.37226C28.0547 2.242 28.0241 2.11708 27.9696 2.02497C27.9151 1.93287 27.8412 1.88112 27.7641 1.88112H7.15317C6.44652 1.88242 5.76895 2.35734 5.2698 3.20167C4.77021 4.046 4.48914 5.19078 4.48826 6.38484V17.3568C4.48826 17.4871 4.5191 17.612 4.57328 17.7041C4.62791 17.7963 4.70193 17.848 4.77902 17.848Z" fill="#183154"/>
<path id="Vector_21" d="M29.4203 2.86339H29.7719C29.849 2.86339 29.9229 2.81165 29.9774 2.71954C30.0319 2.62744 30.0625 2.50251 30.0625 2.37226C30.0625 2.242 30.0319 2.11708 29.9774 2.02497C29.9229 1.93287 29.849 1.88112 29.7719 1.88112H29.4203C29.3433 1.88112 29.2693 1.93287 29.2148 2.02497C29.1603 2.11708 29.1297 2.242 29.1297 2.37226C29.1297 2.50251 29.1603 2.62744 29.2148 2.71954C29.2693 2.81165 29.3433 2.86339 29.4203 2.86339Z" fill="#183154"/>
<path id="Vector_22" d="M43.081 6.94462C42.7408 6.94462 42.4649 6.47846 42.4649 5.90341C42.4649 5.32836 42.7408 4.8622 43.081 4.8622C43.4212 4.8622 43.697 5.32836 43.697 5.90341C43.697 6.47846 43.4212 6.94462 43.081 6.94462Z" fill="#8BBBC6"/>
<path id="Vector_23" d="M41.3083 6.94462C40.9681 6.94462 40.6923 6.47846 40.6923 5.90341C40.6923 5.32836 40.9681 4.8622 41.3083 4.8622C41.6485 4.8622 41.9243 5.32836 41.9243 5.90341C41.9243 6.47846 41.6485 6.94462 41.3083 6.94462Z" fill="#8BBBC6"/>
<path id="Vector_24" d="M39.4545 6.94462C39.1143 6.94462 38.8385 6.47846 38.8385 5.90341C38.8385 5.32836 39.1143 4.8622 39.4545 4.8622C39.7948 4.8622 40.0706 5.32836 40.0706 5.90341C40.0706 6.47846 39.7948 6.94462 39.4545 6.94462Z" fill="#8BBBC6"/>
<path id="Vector_25" d="M43.0402 7.18548C43.1907 7.18548 43.3377 7.11013 43.4628 6.96896C43.588 6.82778 43.6856 6.6271 43.7433 6.39226C43.801 6.15741 43.8162 5.89894 43.7871 5.64946C43.758 5.39999 43.6857 5.1707 43.5795 4.99055C43.4734 4.81039 43.338 4.68745 43.1905 4.63725C43.043 4.58705 42.89 4.61183 42.7509 4.70847C42.6117 4.80511 42.4926 4.96928 42.4086 5.18024C42.3246 5.3912 42.2794 5.6395 42.2788 5.89379C42.2784 6.06319 42.2979 6.23104 42.336 6.38772C42.374 6.54441 42.4301 6.68684 42.5008 6.80686C42.5715 6.92687 42.6556 7.02208 42.7482 7.08706C42.8407 7.15203 42.9399 7.18548 43.0402 7.18548ZM43.0402 5.10797C43.1335 5.10798 43.2248 5.15491 43.3023 5.24277C43.3798 5.33064 43.4402 5.45549 43.4756 5.60145C43.5111 5.7474 43.5201 5.90788 43.5014 6.06249C43.4828 6.21708 43.4374 6.35883 43.3709 6.4697C43.3045 6.58057 43.2201 6.65556 43.1284 6.68515C43.0367 6.71473 42.9419 6.69756 42.856 6.63583C42.7701 6.57411 42.6969 6.4706 42.6459 6.33847C42.5949 6.20634 42.5683 6.05155 42.5694 5.89379C42.5717 5.68488 42.6222 5.48576 42.7102 5.33893C42.7981 5.1921 42.9165 5.10922 43.0402 5.10797Z" fill="#183154"/>
<path id="Vector_26" d="M41.2675 7.18548C41.4179 7.18548 41.565 7.11013 41.6902 6.96896C41.8153 6.82778 41.9129 6.6271 41.9706 6.39226C42.0283 6.15741 42.0435 5.89894 42.0144 5.64946C41.9852 5.39999 41.913 5.1707 41.8069 4.99055C41.7007 4.81039 41.5653 4.68745 41.4178 4.63725C41.2703 4.58705 41.1173 4.61183 40.9781 4.70847C40.839 4.80511 40.7199 4.96928 40.6359 5.18024C40.5519 5.3912 40.5067 5.6395 40.5062 5.89379C40.5058 6.06319 40.5252 6.23104 40.5633 6.38772C40.6014 6.54441 40.6574 6.68684 40.7281 6.80686C40.7989 6.92687 40.8829 7.02208 40.9755 7.08706C41.0681 7.15203 41.1673 7.18548 41.2675 7.18548ZM41.2675 5.10797C41.3608 5.10798 41.4521 5.15491 41.5296 5.24277C41.6072 5.33064 41.6675 5.45549 41.7029 5.60145C41.7384 5.7474 41.7474 5.90788 41.7287 6.06249C41.7101 6.21708 41.6646 6.35883 41.5983 6.4697C41.5318 6.58057 41.4474 6.65556 41.3557 6.68515C41.264 6.71473 41.1692 6.69756 41.0833 6.63583C40.9974 6.57411 40.9243 6.4706 40.8732 6.33847C40.8222 6.20634 40.7956 6.05155 40.7968 5.89379C40.799 5.68488 40.8495 5.48576 40.9375 5.33893C41.0255 5.1921 41.1439 5.10922 41.2675 5.10797Z" fill="#183154"/>
<path id="Vector_27" d="M39.4137 7.18548C39.5642 7.18548 39.7113 7.11013 39.8364 6.96896C39.9615 6.82778 40.0591 6.6271 40.1168 6.39226C40.1745 6.15741 40.1898 5.89894 40.1606 5.64946C40.1315 5.39999 40.0593 5.1707 39.9531 4.99055C39.8469 4.81039 39.7115 4.68745 39.564 4.63725C39.4166 4.58705 39.2635 4.61183 39.1244 4.70847C38.9852 4.80511 38.8661 4.96928 38.7821 5.18024C38.6981 5.3912 38.653 5.6395 38.6524 5.89379C38.6516 6.06336 38.6708 6.23151 38.7087 6.3885C38.7467 6.54548 38.8027 6.68817 38.8735 6.80831C38.9443 6.92845 39.0285 7.02365 39.1212 7.08839C39.214 7.15313 39.3134 7.18613 39.4137 7.18548ZM39.4137 5.10797C39.5071 5.10798 39.5983 5.15491 39.6759 5.24277C39.7534 5.33064 39.8137 5.45549 39.8492 5.60145C39.8846 5.7474 39.8936 5.90788 39.8749 6.06249C39.8563 6.21708 39.8109 6.35883 39.7445 6.4697C39.6781 6.58057 39.5937 6.65556 39.502 6.68515C39.4103 6.71473 39.3154 6.69756 39.2295 6.63583C39.1436 6.57411 39.0705 6.4706 39.0195 6.33847C38.9685 6.20634 38.9418 6.05155 38.943 5.89379C38.9445 5.68448 38.9948 5.48462 39.0829 5.33752C39.171 5.19043 39.2899 5.10796 39.4137 5.10797Z" fill="#183154"/>
<path id="Vector_28" d="M11.404 20.3282H29.0165C29.1706 20.3282 29.3185 20.2248 29.4275 20.0405C29.5364 19.8563 29.5977 19.6065 29.5977 19.3459C29.5977 19.0854 29.5364 18.8356 29.4275 18.6514C29.3185 18.4671 29.1706 18.3637 29.0165 18.3637H11.404C11.2498 18.3637 11.1023 18.4671 10.9934 18.6514C10.8842 18.8356 10.8229 19.0854 10.8229 19.3459C10.8229 19.6065 10.8842 19.8563 10.9934 20.0405C11.1023 20.2248 11.2498 20.3282 11.404 20.3282Z" fill="#8BBBC6"/>
<path id="Vector_29" d="M23.0276 24.9939H29.0165C29.1706 24.9939 29.3185 24.8904 29.4275 24.7062C29.5364 24.522 29.5977 24.2722 29.5977 24.0116C29.5977 23.7512 29.5364 23.5013 29.4275 23.3171C29.3185 23.1329 29.1706 23.0294 29.0165 23.0294H23.0276C22.8734 23.0294 22.7256 23.1329 22.6166 23.3171C22.5076 23.5013 22.4464 23.7512 22.4464 24.0116C22.4464 24.2722 22.5076 24.522 22.6166 24.7062C22.7256 24.8904 22.8734 24.9939 23.0276 24.9939Z" fill="#8BBBC6"/>
<path id="Vector_30" d="M23.0276 35.6125H29.0165C29.1706 35.6125 29.3185 35.509 29.4275 35.3248C29.5364 35.1406 29.5977 34.8907 29.5977 34.6302C29.5977 34.3697 29.5364 34.1199 29.4275 33.9357C29.3185 33.7514 29.1706 33.648 29.0165 33.648H23.0276C22.8734 33.648 22.7256 33.7514 22.6166 33.9357C22.5076 34.1199 22.4464 34.3697 22.4464 34.6302C22.4464 34.8907 22.5076 35.1406 22.6166 35.3248C22.7256 35.509 22.8734 35.6125 23.0276 35.6125Z" fill="#389D9C"/>
<path id="Vector_31" d="M15.025 29.6599H18.4014C18.5556 29.6599 18.7036 29.5564 18.8124 29.3722C18.9217 29.188 18.9829 28.9381 18.9829 28.6777C18.9829 28.4171 18.9217 28.1673 18.8124 27.983C18.7036 27.7988 18.5556 27.6953 18.4014 27.6953H15.025C14.8708 27.6953 14.7228 27.7988 14.6139 27.983C14.5051 28.1673 14.4439 28.4171 14.4439 28.6777C14.4439 28.9381 14.5051 29.188 14.6139 29.3722C14.7228 29.5564 14.8708 29.6599 15.025 29.6599Z" fill="#8BBBC6"/>
<path id="Vector_32" opacity="0.8" d="M9.71589 29.6599H13.0927C13.2465 29.6599 13.3945 29.5564 13.5033 29.3722C13.6126 29.188 13.6738 28.9381 13.6738 28.6777C13.6738 28.4171 13.6126 28.1673 13.5033 27.983C13.3945 27.7988 13.2465 27.6953 13.0927 27.6953H9.71589C9.5617 27.6953 9.41412 27.7988 9.30486 27.983C9.19604 28.1673 9.13481 28.4171 9.13481 28.6777C9.13481 28.9381 9.19604 29.188 9.30486 29.3722C9.41412 29.5564 9.5617 29.6599 9.71589 29.6599Z" fill="#8BBBC6"/>
<path id="Vector_33" d="M25.6428 29.6599H29.0165C29.1706 29.6599 29.3185 29.5564 29.4275 29.3722C29.5364 29.188 29.5977 28.9381 29.5977 28.6777C29.5977 28.4171 29.5364 28.1673 29.4275 27.983C29.3185 27.7988 29.1706 27.6953 29.0165 27.6953H25.6428C25.4887 27.6953 25.3409 27.7988 25.2319 27.983C25.1229 28.1673 25.0616 28.4171 25.0616 28.6777C25.0616 28.9381 25.1229 29.188 25.2319 29.3722C25.3409 29.5564 25.4887 29.6599 25.6428 29.6599Z" fill="#8BBBC6"/>
<path id="Vector_34" opacity="0.3" d="M20.334 29.6599H23.7077C23.8618 29.6599 24.0096 29.5564 24.1186 29.3722C24.2276 29.188 24.2888 28.9381 24.2888 28.6777C24.2888 28.4171 24.2276 28.1673 24.1186 27.983C24.0096 27.7988 23.8618 27.6953 23.7077 27.6953H20.334C20.1799 27.6953 20.032 27.7988 19.9232 27.983C19.8139 28.1673 19.7527 28.4171 19.7527 28.6777C19.7527 28.9381 19.8139 29.188 19.9232 29.3722C20.032 29.5564 20.1799 29.6599 20.334 29.6599Z" fill="#8BBBC6"/>
<path id="Vector_35" d="M11.404 40.8134H29.0165C29.1706 40.8134 29.3185 40.7099 29.4275 40.5257C29.5364 40.3414 29.5977 40.0916 29.5977 39.8312C29.5977 39.5706 29.5364 39.3208 29.4275 39.1365C29.3185 38.9523 29.1706 38.8488 29.0165 38.8488H11.404C11.2498 38.8488 11.1023 38.9523 10.9934 39.1365C10.8842 39.3208 10.8229 39.5706 10.8229 39.8312C10.8229 40.0916 10.8842 40.3414 10.9934 40.5257C11.1023 40.7099 11.2498 40.8134 11.404 40.8134Z" fill="#8BBBC6"/>
<path id="Vector_36" d="M23.0276 45.4794H29.0165C29.1706 45.4794 29.3185 45.3758 29.4275 45.1917C29.5364 45.0075 29.5977 44.7576 29.5977 44.4971C29.5977 44.2366 29.5364 43.9868 29.4275 43.8025C29.3185 43.6183 29.1706 43.5148 29.0165 43.5148H23.0276C22.8734 43.5148 22.7256 43.6183 22.6166 43.8025C22.5076 43.9868 22.4464 44.2366 22.4464 44.4971C22.4464 44.7576 22.5076 45.0075 22.6166 45.1917C22.7256 45.3758 22.8734 45.4794 23.0276 45.4794Z" fill="#8BBBC6"/>
<path id="Vector_37" d="M23.0276 56.0977H29.0165C29.1706 56.0977 29.3185 55.9942 29.4275 55.81C29.5364 55.6257 29.5977 55.3759 29.5977 55.1154C29.5977 54.8549 29.5364 54.605 29.4275 54.4208C29.3185 54.2367 29.1706 54.1331 29.0165 54.1331H23.0276C22.8734 54.1331 22.7256 54.2367 22.6166 54.4208C22.5076 54.605 22.4464 54.8549 22.4464 55.1154C22.4464 55.3759 22.5076 55.6257 22.6166 55.81C22.7256 55.9942 22.8734 56.0977 23.0276 56.0977Z" fill="#389D9C"/>
<path id="Vector_38" d="M15.025 50.1451H18.4014C18.5556 50.1451 18.7036 50.0416 18.8124 49.8574C18.9217 49.6732 18.9829 49.4233 18.9829 49.1628C18.9829 48.9023 18.9217 48.6524 18.8124 48.4683C18.7036 48.284 18.5556 48.1806 18.4014 48.1806H15.025C14.8708 48.1806 14.7228 48.284 14.6139 48.4683C14.5051 48.6524 14.4439 48.9023 14.4439 49.1628C14.4439 49.4233 14.5051 49.6732 14.6139 49.8574C14.7228 50.0416 14.8708 50.1451 15.025 50.1451Z" fill="#8BBBC6"/>
<path id="Vector_39" opacity="0.8" d="M9.71589 50.1451H13.0927C13.2465 50.1451 13.3945 50.0416 13.5033 49.8574C13.6126 49.6732 13.6738 49.4233 13.6738 49.1628C13.6738 48.9023 13.6126 48.6524 13.5033 48.4683C13.3945 48.284 13.2465 48.1806 13.0927 48.1806H9.71589C9.5617 48.1806 9.41412 48.284 9.30486 48.4683C9.19604 48.6524 9.13481 48.9023 9.13481 49.1628C9.13481 49.4233 9.19604 49.6732 9.30486 49.8574C9.41412 50.0416 9.5617 50.1451 9.71589 50.1451Z" fill="#8BBBC6"/>
<path id="Vector_40" d="M25.6428 50.1451H29.0165C29.1706 50.1451 29.3185 50.0416 29.4275 49.8574C29.5364 49.6732 29.5977 49.4233 29.5977 49.1628C29.5977 48.9023 29.5364 48.6524 29.4275 48.4683C29.3185 48.284 29.1706 48.1806 29.0165 48.1806H25.6428C25.4887 48.1806 25.3409 48.284 25.2319 48.4683C25.1229 48.6524 25.0616 48.9023 25.0616 49.1628C25.0616 49.4233 25.1229 49.6732 25.2319 49.8574C25.3409 50.0416 25.4887 50.1451 25.6428 50.1451Z" fill="#8BBBC6"/>
<path id="Vector_41" opacity="0.3" d="M20.334 50.1451H23.7077C23.8618 50.1451 24.0096 50.0416 24.1186 49.8574C24.2276 49.6732 24.2888 49.4233 24.2888 49.1628C24.2888 48.9023 24.2276 48.6524 24.1186 48.4683C24.0096 48.284 23.8618 48.1806 23.7077 48.1806H20.334C20.1799 48.1806 20.032 48.284 19.9232 48.4683C19.8139 48.6524 19.7527 48.9023 19.7527 49.1628C19.7527 49.4233 19.8139 49.6732 19.9232 49.8574C20.032 50.0416 20.1799 50.1451 20.334 50.1451Z" fill="#8BBBC6"/>
<path id="Vector_42" d="M42.4416 17.5138C42.4416 19.7619 42.7036 21.9881 43.2127 24.065C43.7218 26.142 44.468 28.029 45.4087 29.6184C46.3494 31.2079 47.4661 32.4686 48.695 33.3284C49.924 34.1883 51.2412 34.6305 52.5713 34.6299C52.7195 34.6299 52.8619 34.6299 53.0159 34.6299H53.1031C55.1517 34.4563 57.1199 33.2275 58.7434 31.1085L58.8247 31.0053C58.9758 30.804 59.1153 30.5928 59.2664 30.3816C61.1726 27.5615 62.3844 23.6367 62.6629 19.381C62.9414 15.1253 62.2664 10.8477 60.771 7.39167C59.2755 3.93568 57.0681 1.55216 54.5843 0.711171C52.1003 -0.129825 49.5201 0.632738 47.3525 2.84848C47.0909 3.1137 46.8381 3.39856 46.594 3.69815L46.5562 3.74236C45.6223 4.90884 44.8126 6.33551 44.1618 7.96122C43.4652 9.70128 42.9657 11.6447 42.6886 13.6928C42.6595 13.904 42.6333 14.1201 42.6101 14.3361C42.4956 15.3843 42.4391 16.4481 42.4416 17.5138Z" fill="#A8FF8C"/>
<path id="Vector_43" d="M42.3399 17.7596C42.3414 22.2987 43.4094 26.6509 45.3089 29.8596C47.2084 33.0683 49.7841 34.8708 52.4696 34.8707C52.5539 34.8707 52.6411 34.8707 52.7254 34.8707C52.7544 34.8707 52.7835 34.8707 52.8126 34.8707C54.8466 34.7621 56.8133 33.613 58.4528 31.5752L58.5342 31.4721C58.6707 31.3002 58.8073 31.1234 58.9381 30.9367C59.7692 29.7683 60.4852 28.384 61.0593 26.8357C61.007 26.8947 60.9518 26.9487 60.8966 27.0027C60.5855 27.3247 60.2634 27.6149 59.9319 27.872C58.6062 28.9053 57.1637 29.4398 55.7039 29.4388C54.729 29.44 53.7591 29.2035 52.8242 28.7365L52.737 28.6923C50.9024 27.7454 49.2645 25.9381 48.0135 23.4803C46.7625 21.0225 45.9499 18.0152 45.67 14.8078C45.6497 14.5917 45.6351 14.3805 45.6206 14.1644C45.5821 13.5511 45.5627 12.9346 45.5625 12.3178C45.5622 11.2466 45.6215 10.1777 45.7397 9.12538C45.869 7.95991 46.0706 6.82072 46.3412 5.72671C46.4719 5.19323 46.6194 4.67188 46.7829 4.16489C46.8759 3.87512 46.9718 3.59026 47.0735 3.31523L47.1026 3.23665C46.8306 3.52242 46.5677 3.83227 46.3151 4.16489L46.2802 4.2091C45.4369 5.31702 44.7024 6.64305 44.1038 8.13822C43.3626 9.96564 42.8413 12.0216 42.5694 14.189C42.5404 14.4002 42.5142 14.6163 42.4939 14.8324C42.3932 15.7989 42.3417 16.7782 42.3399 17.7596Z" fill="#389D9C"/>
<path id="Vector_44" d="M52.5684 23.5206C52.7911 23.5211 53.0065 23.3869 53.1757 23.1425L55.5411 19.7045C55.6408 19.5865 55.7247 19.4345 55.7875 19.2583C55.8503 19.0821 55.8906 18.8857 55.9058 18.6816C55.921 18.4775 55.9107 18.2703 55.8756 18.0733C55.8406 17.8764 55.7815 17.694 55.7022 17.5379C55.6229 17.3819 55.5252 17.2556 55.4153 17.1673C55.3054 17.0789 55.1858 17.0304 55.0641 17.025C54.9424 17.0195 54.8215 17.0571 54.709 17.1354C54.5964 17.2137 54.4948 17.331 54.4107 17.4797L52.734 19.9108L50.3425 13.9778C50.2783 13.8166 50.1958 13.6784 50.0999 13.571C50.004 13.4636 49.8965 13.3892 49.7836 13.352C49.6706 13.3148 49.5545 13.3157 49.4417 13.3544C49.329 13.3931 49.2219 13.4689 49.1264 13.5776C49.0311 13.6863 48.9492 13.8256 48.8857 13.9877C48.8222 14.1498 48.7782 14.3315 48.7562 14.5224C48.7342 14.7132 48.7347 14.9096 48.7576 15.1001C48.7804 15.2907 48.8253 15.4717 48.8896 15.633L51.7955 22.8331C51.8699 23.0166 51.9663 23.1719 52.0784 23.2886C52.1905 23.4053 52.3159 23.4811 52.4464 23.5108C52.4869 23.5189 52.5276 23.5222 52.5684 23.5206Z" fill="white"/>
<g id="Group_2" opacity="0.15">
<path id="Vector_45" opacity="0.15" d="M56.4595 10.9917C55.4388 10.9917 54.6114 9.59324 54.6114 7.86815C54.6114 6.14299 55.4388 4.74449 56.4595 4.74449C57.4802 4.74449 58.3076 6.14299 58.3076 7.86815C58.3076 9.59324 57.4802 10.9917 56.4595 10.9917Z" fill="white"/>
<path id="Vector_46" opacity="0.15" d="M58.5894 14.0417C58.079 14.0417 57.6653 13.3425 57.6653 12.4799C57.6653 11.6173 58.079 10.918 58.5894 10.918C59.0997 10.918 59.5134 11.6173 59.5134 12.4799C59.5134 13.3425 59.0997 14.0417 58.5894 14.0417Z" fill="white"/>
</g>
<path id="Vector_47" d="M62.5994 20.5346C62.6699 20.5358 62.7383 20.4936 62.7917 20.4159C62.8452 20.3382 62.8801 20.2303 62.89 20.1122C62.9573 19.2838 62.9913 18.4486 62.9917 17.6124C62.9917 17.4821 62.9611 17.3572 62.9066 17.2651C62.8521 17.173 62.7782 17.1212 62.7011 17.1212C62.624 17.1212 62.5501 17.173 62.4956 17.2651C62.4411 17.3572 62.4105 17.4821 62.4105 17.6124C62.4106 18.4026 62.3786 19.1919 62.3146 19.9747C62.3035 20.1 62.3215 20.2278 62.3649 20.3312C62.4082 20.4346 62.4735 20.5058 62.5471 20.5297L62.5994 20.5346Z" fill="#183154"/>
<path id="Vector_48" d="M62.056 24.1294C62.1148 24.1288 62.1722 24.0979 62.2205 24.0409C62.2687 23.9839 62.3056 23.9034 62.3262 23.8102C62.4569 23.2213 62.5694 22.6213 62.6633 22.0126C62.6729 21.9501 62.6751 21.8849 62.6698 21.8209C62.6645 21.7569 62.6517 21.6953 62.6323 21.6396C62.6128 21.5839 62.5871 21.5353 62.5565 21.4965C62.5259 21.4577 62.4911 21.4294 62.4541 21.4134C62.4171 21.3972 62.3785 21.3935 62.3406 21.4024C62.3028 21.4114 62.2663 21.433 62.2334 21.4658C62.2004 21.4987 62.1717 21.5422 62.1487 21.5939C62.1257 21.6456 62.109 21.7044 62.0996 21.7671C62.0112 22.3423 61.9054 22.9094 61.7828 23.4664C61.7563 23.5876 61.7592 23.7215 61.7907 23.8392C61.8223 23.9568 61.88 24.0487 61.9514 24.095C61.9845 24.1183 62.0201 24.1299 62.056 24.1294Z" fill="#183154"/>
<path id="Vector_49" d="M59.3857 16.5415C59.2701 16.5415 59.1592 16.4639 59.0774 16.3257C58.9957 16.1875 58.9498 16.0002 58.9498 15.8047C58.9498 15.6094 58.9957 15.422 59.0774 15.2838C59.1592 15.1457 59.2701 15.0681 59.3857 15.0681C59.5013 15.0681 59.6121 15.1457 59.6939 15.2838C59.7756 15.422 59.8215 15.6094 59.8215 15.8047C59.8215 16.0002 59.7756 16.1875 59.6939 16.3257C59.6121 16.4639 59.5013 16.5415 59.3857 16.5415Z" fill="#FDFEFF"/>
<path id="Vector_50" d="M58.5457 21.8361C58.8014 20.78 58.9526 19.66 58.9932 18.5209C59.0222 17.8137 59.6761 17.8088 59.647 18.5209C59.5956 19.8539 59.414 21.1633 59.1094 22.396C58.9467 23.0492 58.383 22.4844 58.5457 21.8361Z" fill="#FDFEFF"/>
<path id="Vector_51" d="M4.77897 9.37094H43.6415C43.7186 9.37094 43.7925 9.31922 43.847 9.22709C43.9015 9.13496 43.9321 9.01008 43.9321 8.87978C43.9321 8.74954 43.9015 8.62459 43.847 8.53254C43.7925 8.44041 43.7186 8.38869 43.6415 8.38869H4.77897C4.70188 8.38869 4.62786 8.44041 4.57323 8.53254C4.51905 8.62459 4.48821 8.74954 4.48821 8.87978C4.48821 9.01008 4.51905 9.13496 4.57323 9.22709C4.62786 9.31922 4.70188 9.37094 4.77897 9.37094Z" fill="#183154"/>
<path id="Vector_52" d="M34.4882 56.3481H42.5229H50.3977L43.9293 37.405L39.9948 48.927L38.507 44.5756L34.4882 56.3481ZM41.5291 55.3658H35.4937L38.507 46.5253L39.9948 50.8768L43.9293 39.3695L49.3923 55.356H41.5262L41.5291 55.3658Z" fill="#183154"/>
<path id="Vector_53" d="M52.5713 35.2195C52.7253 35.2195 52.8822 35.2195 53.0333 35.2195H53.1321C55.2355 35.0404 57.2559 33.7753 58.9206 31.5949L58.9932 31.5065C59.1617 31.2855 59.31 31.0694 59.4582 30.8533C60.2288 29.7058 60.8946 28.3718 61.4341 26.8947C61.618 26.3896 61.7858 25.8682 61.9368 25.3329C61.957 25.2747 61.9699 25.21 61.9747 25.1429C61.9794 25.0759 61.976 25.0079 61.9645 24.9432C61.953 24.8785 61.9337 24.8185 61.9079 24.767C61.8821 24.7155 61.8502 24.6736 61.8144 24.6437C61.7785 24.614 61.7394 24.597 61.6995 24.5939C61.6596 24.5907 61.6197 24.6016 61.5824 24.6257C61.5451 24.6498 61.5111 24.6867 61.4826 24.734C61.4541 24.7813 61.4316 24.8381 61.4167 24.9007C61.2714 25.3919 61.1261 25.8829 60.9401 26.3496C60.4272 27.7468 59.7935 29.0067 59.0601 30.0871C58.9206 30.2885 58.7695 30.4947 58.6329 30.6961L58.5515 30.7944C56.9767 32.8602 55.0649 34.0601 53.074 34.2323H53.0014C52.8444 34.2323 52.7108 34.2323 52.5568 34.2323C49.9515 34.2219 47.4548 32.4671 45.6134 29.352C43.772 26.237 42.7359 22.0156 42.7321 17.6122C42.7318 16.5706 42.7902 15.5312 42.9065 14.5083C42.9297 14.2971 42.953 14.0859 42.982 13.8845C43.2475 11.9076 43.7273 10.0309 44.3972 8.3494L44.4146 8.3052C45.0414 6.73507 45.8215 5.35659 46.7218 4.22877L46.7654 4.17966C47.0212 3.85223 47.271 3.57228 47.5152 3.33982C48.8906 1.94742 50.4466 1.14427 52.0477 1.00024C53.6488 0.856221 55.2465 1.3757 56.7016 2.51346C58.1568 3.65123 59.4255 5.37281 60.3971 7.52842C61.3688 9.68395 62.0141 12.2082 62.2768 14.8815C62.3008 14.9858 62.3452 15.0731 62.4025 15.129C62.4599 15.1848 62.5268 15.206 62.5923 15.1888C62.6577 15.1716 62.7177 15.1172 62.7623 15.0345C62.8069 14.9518 62.8335 14.8458 62.8376 14.7341C62.5582 11.9062 61.8747 9.23625 60.8465 6.95585C59.8183 4.67544 58.4764 2.85352 56.9373 1.64813C55.3981 0.442751 53.7082 -0.109684 52.0141 0.0387582C50.3201 0.187201 48.673 1.03203 47.2158 2.49997C46.9572 2.76518 46.6928 3.05987 46.4371 3.37419L46.3964 3.42331C45.443 4.60982 44.6156 6.06128 43.9497 7.71588L43.9293 7.76492C43.2106 9.55238 42.6962 11.5513 42.4125 13.6586C42.3834 13.8747 42.3544 14.0957 42.3311 14.3216C42.2104 15.405 42.1491 16.5049 42.1481 17.6073C42.1511 22.2776 43.2504 26.7551 45.2045 30.057C47.1587 33.3589 49.8081 35.2156 52.5713 35.2195Z" fill="#183154"/>
<g id="Group_3" opacity="0.4">
<path id="Vector_54" opacity="0.4" d="M53.8557 12.0034C52.8351 12.0034 52.0076 10.6049 52.0076 8.87971C52.0076 7.15461 52.8351 5.75612 53.8557 5.75612C54.8764 5.75612 55.7039 7.15461 55.7039 8.87971C55.7039 10.6049 54.8764 12.0034 53.8557 12.0034Z" fill="white"/>
<path id="Vector_55" opacity="0.4" d="M55.9856 15.0533C55.4752 15.0533 55.0615 14.354 55.0615 13.4915C55.0615 12.6289 55.4752 11.9297 55.9856 11.9297C56.4959 11.9297 56.9097 12.6289 56.9097 13.4915C56.9097 14.354 56.4959 15.0533 55.9856 15.0533Z" fill="white"/>
</g>
<path id="Vector_56" d="M40.422 39.8311C39.4109 39.8311 38.5913 38.4458 38.5913 36.7369C38.5913 35.028 39.4109 33.6427 40.422 33.6427C41.4331 33.6427 42.2527 35.028 42.2527 36.7369C42.2527 38.4458 41.4331 39.8311 40.422 39.8311Z" fill="#A8FF8C"/>
<path id="Vector_57" d="M40.3204 40.3223C40.74 40.3223 41.1501 40.1121 41.4989 39.7181C41.8477 39.3241 42.1196 38.7642 42.2802 38.1091C42.4408 37.4539 42.4827 36.7331 42.4009 36.0376C42.319 35.3421 42.117 34.7033 41.8204 34.2018C41.5237 33.7005 41.1457 33.359 40.7342 33.2206C40.3227 33.0823 39.8962 33.1533 39.5086 33.4247C39.121 33.696 38.7897 34.1555 38.5566 34.7452C38.3235 35.3348 38.1991 36.0279 38.1991 36.737C38.1999 37.6875 38.4236 38.5987 38.8213 39.2708C39.2189 39.9429 39.758 40.321 40.3204 40.3223ZM40.3204 34.1389C40.6251 34.1389 40.923 34.2917 41.1763 34.5779C41.4296 34.8642 41.627 35.2711 41.7435 35.747C41.86 36.2229 41.8903 36.7465 41.8307 37.2516C41.771 37.7566 41.6241 38.2205 41.4084 38.5843C41.1927 38.9482 40.918 39.1957 40.6191 39.2956C40.3201 39.3954 40.0104 39.3432 39.729 39.1455C39.4476 38.9476 39.2073 38.6133 39.0384 38.1846C38.8695 37.7558 38.7797 37.2521 38.7803 36.737C38.7811 36.0476 38.9436 35.3867 39.2324 34.8996C39.5211 34.4125 39.9124 34.1389 40.3204 34.1389Z" fill="#183154"/>
</g>
</g>
</g>
</g>
</g>
</g>
</g>
<defs>
<clipPath id="clip0_408_1297">
<rect width="64" height="64" fill="white" transform="matrix(-1 0 0 1 64 0)"/>
</clipPath>
</defs>
</svg>
