<svg width="16" height="17" viewBox="0 0 16 17" fill="none" xmlns="http://www.w3.org/2000/svg">
<mask id="mask0_3511_25187" style="mask-type:alpha" maskUnits="userSpaceOnUse" x="0" y="0" width="16" height="17">
<rect y="0.5" width="16" height="16" fill="#D9D9D9"/>
</mask>
<g mask="url(#mask0_3511_25187)">
<path d="M2.66683 13.8334C2.30016 13.8334 1.98627 13.7029 1.72516 13.4417C1.46405 13.1806 1.3335 12.8667 1.3335 12.5001V4.50008C1.3335 4.13341 1.46405 3.81953 1.72516 3.55841C1.98627 3.2973 2.30016 3.16675 2.66683 3.16675H13.3335C13.7002 3.16675 14.0141 3.2973 14.2752 3.55841C14.5363 3.81953 14.6668 4.13341 14.6668 4.50008V12.5001C14.6668 12.8667 14.5363 13.1806 14.2752 13.4417C14.0141 13.7029 13.7002 13.8334 13.3335 13.8334H2.66683ZM2.66683 12.5001H7.3335V4.50008H2.66683V12.5001ZM8.66683 12.5001H13.3335V4.50008H8.66683V12.5001ZM3.3335 11.1667H6.66683V9.83342H3.3335V11.1667ZM3.3335 9.16675H6.66683V7.83342H3.3335V9.16675ZM3.3335 7.16675H6.66683V5.83341H3.3335V7.16675ZM9.3335 11.1667H12.6668V9.83342H9.3335V11.1667ZM9.3335 9.16675H12.6668V7.83342H9.3335V9.16675ZM9.3335 7.16675H12.6668V5.83341H9.3335V7.16675Z" fill="#006A4E"/>
</g>
</svg>
